<svg width="40" height="40" viewBox="0 0 40 40" fill="none" xmlns="http://www.w3.org/2000/svg">
<ellipse cx="20" cy="20" rx="20" ry="20" fill="#627CE2"/>
<g style="mix-blend-mode:multiply">
<path d="M15.25 26C14.8358 26 14.5 25.6642 14.5 25.25V17.75C14.5 17.3358 14.8358 17 15.25 17C15.6642 17 16 17.3358 16 17.75V25.25C16 25.6642 15.6642 26 15.25 26Z" fill="#6360AA"/>
<path d="M20 26C19.5858 26 19.25 25.6642 19.25 25.25V20.75C19.25 20.3358 19.5858 20 20 20C20.4142 20 20.75 20.3358 20.75 20.75V25.25C20.75 25.6642 20.4142 26 20 26Z" fill="#6360AA"/>
<path d="M24 25.25C24 25.6642 24.3358 26 24.75 26C25.1642 26 25.5 25.6642 25.5 25.25V15.75C25.5 15.3358 25.1642 15 24.75 15C24.3358 15 24 15.3358 24 15.75V25.25Z" fill="#6360AA"/>
<path d="M11.75 30C10.7835 30 10 29.2165 10 28.25V11.75C10 10.7835 10.7835 10 11.75 10H28.25C29.2165 10 30 10.7835 30 11.75V28.25C30 29.2165 29.2165 30 28.25 30H11.75ZM11.5 28.25C11.5 28.3881 11.6119 28.5 11.75 28.5H28.25C28.3881 28.5 28.5 28.3881 28.5 28.25V11.75C28.5 11.6119 28.3881 11.5 28.25 11.5H11.75C11.6119 11.5 11.5 11.6119 11.5 11.75V28.25Z" fill="#6360AA"/>
</g>
<path d="M15.25 26C14.8358 26 14.5 25.6642 14.5 25.25V17.75C14.5 17.3358 14.8358 17 15.25 17C15.6642 17 16 17.3358 16 17.75V25.25C16 25.6642 15.6642 26 15.25 26Z" fill="white"/>
<path d="M20 26C19.5858 26 19.25 25.6642 19.25 25.25V20.75C19.25 20.3358 19.5858 20 20 20C20.4142 20 20.75 20.3358 20.75 20.75V25.25C20.75 25.6642 20.4142 26 20 26Z" fill="white"/>
<path d="M24 25.25C24 25.6642 24.3358 26 24.75 26C25.1642 26 25.5 25.6642 25.5 25.25V15.75C25.5 15.3358 25.1642 15 24.75 15C24.3358 15 24 15.3358 24 15.75V25.25Z" fill="white"/>
</svg>
