<svg width="48" height="48" xmlns="http://www.w3.org/2000/svg" xmlns:xlink="http://www.w3.org/1999/xlink" role="img">
<title>Reports Icon</title>
<defs><circle id="a" cx="24" cy="24" r="24"/><path id="c" d="M0 .126h54.765v40.29H0z"/></defs><g fill="none" fill-rule="evenodd"><mask id="b" fill="#fff"><use xlink:href="#a"/></mask><use fill="#E8EEFC" fill-rule="nonzero" xlink:href="#a"/><g mask="url(#b)"><path d="M-20.906 11.813h52.5c.139.144.257.32.42.425.56.359.805.83.694 1.505a3.081 3.081 0 0 0-.017 1.027c.148.827-.275 1.705.226 2.501.014.022-.14.149-.217.227-.712.16.024.783-.219.959l-.75.159-2.187-.177-.063-.638c-.294.258-.519.624-.78.652-.793.085-1.6.048-2.401.042-.776-.006-1.552-.033-2.327-.05-.654-.013-1.308-.014-1.961-.044-.38-.017-.843-.241-1.118-.093-.644.347-1.212.164-1.817.015-.07-.018-.185.025-.237.079-.422.446-.726.133-1.019-.175-.351.653-.914.116-1.357.264-.15.051-.425-.268-.689-.449.055.514-.331.453-.679.43-1.047-.073-2.107.184-3.146-.123a.719.719 0 0 0-.344.006c-.273.06-.56.237-.81.192-.662-.119-1.53.372-1.939-.59-.006-.015-.082-.002-.16-.002l-.145.587c-.576-.03-1.254.128-1.658-.135-.52-.34-.857-.183-1.283-.008-.04-.25.307-.63-.155-.713-.147-.025-.36.327-.543.506-.49.125-.958.333-1.488.314-.373-.013-.749.067-1.123.106-.557 0-.505-.701-.912-.867l-.46.8c-.42-.09-1.03.199-1.171-.561l-.06.528-5.2-.203c-.714.23-1.391.113-2.042-.222-.318.47-.785.41-1.246.346-.177-.025-.348-.129-.522-.13-1.489 0-2.978.014-4.466.023-.635.003-1.289.1-1.9-.02-.718-.14-1.618.29-2.199-.583v.434c-1.102 0-2.202-.011-3.301.004-.562.008-.803-.231-.719-.789-.013-.8-.03-1.599-.04-2.399-.013-1.169-.005-2.333 1.03-3.16" fill="#5B73F4"/><g transform="translate(-22 17.246)"><mask id="d" fill="#fff"><use xlink:href="#c"/></mask><path d="M3.45 16.014c.226.025.405.056.584.062 1.402.052 2.803.104 4.205.147.584.018.8-.217.75-.785-.054-.635-.178-.752-.82-.731-1.56.051-3.12.11-4.718.166v1.141zm7.04-8.864c.045-.435.108-.755.095-1.072-.005-.13-.164-.35-.272-.361a8.757 8.757 0 0 0-1.302-.027c-1.163.05-2.325.119-3.489.178-.568.029-1.137.047-1.705.079-.383.022-.48.304-.374.583.07.184.316.414.494.425 1.58.09 3.163.142 4.746.192.602.02 1.206.003 1.807.003zm-7.018 2.986v1.13h8.005l-.12-1.13H3.473zm7.76 11.143c0-.473.027-.952-.02-1.424-.011-.114-.267-.29-.411-.29a70.697 70.697 0 0 0-3.48.04c-1.147.049-2.292.164-3.438.231-.349.02-.513.134-.457.509.032.217.006.442.006.754.901-.162 1.692.134 2.513.133.853 0 1.707.037 2.561.045.868.008 1.736.002 2.726.002zM54.7.252l.007 1.167c.02 2.957.047 5.914.058 8.872.003.9-.054 1.8-.056 2.701-.008 2.841.006 5.683-.006 8.524-.011 2.771-.063 5.543-.063 8.314-.001 2.7.029 5.398.072 8.097.01.634-.108 1.106-.644 1.555-.741.62-1.443 1.087-2.473.888-.464-.09-.966.03-1.45.027-2.84-.02-5.68-.064-8.52-.07-1.592-.005-3.183.072-4.774.068-3.04-.008-6.078-.066-9.117-.067-2.774-.001-5.547.06-8.321.069-3.932.013-7.865.004-11.797.004-1.917 0-3.834.007-5.75-.007a3.497 3.497 0 0 1-1.02-.155c-.656-.208-.778-.484-.78-1.191C.06 37.297.005 35.546 0 33.794c-.002-.667.114-1.335.115-2.003.002-2.145-.033-4.29-.037-6.435-.002-1.333.035-2.666.041-3.998.008-1.82.003-3.638.003-5.457l.001-9.73c0-1.52.002-3.039 0-4.559C.12 1.117.11.622.103.126.02.684.261.923.823.916 1.923.9 3.022.91 4.125.91V.477c.58.873 1.48.443 2.198.584.611.12 1.265.023 1.9.02 1.488-.01 2.977-.024 4.466-.023.174 0 .345.105.522.129.46.064.928.124 1.246-.346.65.336 1.328.451 2.042.222.078.512-.285 1.134.485 1.529-.673.132-.559.502-.515.963.165 1.716-.505 3.445.053 5.164.013.04-.002.094-.018.135-.388.984.097 2.002-.115 2.998-.03.14.17.329.263.495-.05.564.044 1.198-.184 1.678-.357.75-.2 1.533-.148 2.214.106 1.399-.077 2.782.01 4.169.02.315.146.651.072.939-.137.533-.007.8.677.838-1.1.819-.63 1.947-.776 2.94l.392.165c-.125.43-.296.778-.317 1.135-.056.939-.052 1.881-.061 2.822-.003.247.035.493.055.74-.021.317-.003.643-.07.95-.217.99.178 1.962-.009 2.978-.149.811.087 1.694.154 2.56.653.328.64.463-.154 1.048.238.422-.265 1.093.415 1.319l-.27.598c.165.05.33.146.494.146 3.097 0 6.195-.016 9.292-.018 5.378-.005 10.755.004 16.132-.008.875-.002 1.75-.124 2.624-.12 2.663.008 5.327.027 7.988.1.638.018.696-.306.694-.748-.012-2.148-.048-4.295-.045-6.443 0-.382.146-.764.225-1.147l-.085.02-.164-.83c-.004-.456-.017-.914-.01-1.37.03-2.096.078-4.19.097-6.286.023-2.694.04-5.388.023-8.082-.004-.632-.16-1.263-.245-1.895.092-.373.25-.744.263-1.12.07-1.885.093-3.771.156-5.656.018-.544.173-1.086.165-1.627-.012-.845-.105-1.689-.177-2.532-.013-.154-.088-.303-.134-.454l.75-.16c.243-.175-.493-.798.22-.958z" fill="#E9EDF2" mask="url(#d)"/></g><path d="M17.536 23.432c.065-1.038-.014-1.164-.958-1.227-.752-.05-1.51-.008-2.265-.017-2.292-.026-4.583-.063-6.874-.084-1.59-.015-3.18-.005-4.77-.014a653.835 653.835 0 0 1-4.49-.039c-.62-.007-1.123.614-1.017 1.274.164 1.024.707 1.501 1.76 1.539.231.008.463-.002.694-.009 1.1-.032 2.2-.094 3.3-.091 1.214.003 2.428.081 3.642.095.48.006.964-.112 1.445-.107 1.354.015 2.707.078 4.06.096 1.399.02 2.797-.01 4.195.02.77.017 1-.104 1.188-.842.057-.222.07-.454.09-.594m-22.884 6.16c-.093-.166-.292-.354-.263-.494.212-.996-.273-2.015.115-2.998.016-.042.03-.096.018-.135-.558-1.72.112-3.448-.053-5.165-.044-.46-.158-.83.515-.962-.77-.395-.407-1.018-.485-1.53l5.2.204.06-.529c.141.76.75.471 1.17.561l1.373.068c.374-.039.75-.119 1.123-.106.53.019.997-.189 1.488-.314.2.181.296.708.698.207.426-.176.763-.331 1.283.008.404.263 1.082.105 1.658.135l.145-.587c.078 0 .154-.013.16.002.409.962 1.277.471 1.94.59.25.045.536-.132.81-.192a.722.722 0 0 1 .343-.006c1.04.307 2.1.05 3.146.122.348.024.734.085.68-.43.263.182.538.501.688.45.443-.148 1.006.39 1.357-.264.293.308.597.621 1.02.175.051-.054.166-.097.236-.08.606.15 1.173.333 1.817-.014.275-.148.738.076 1.118.093.653.03 1.307.03 1.96.045.776.016 1.552.043 2.328.049.801.006 1.608.043 2.402-.042.26-.028.485-.394.78-.652l.062.638 2.186.177c.047.151.122.3.135.454.072.843.165 1.687.177 2.532.008.54-.147 1.083-.165 1.626-.063 1.885-.085 3.772-.156 5.656-.014.377-.171.748-.263 1.121-.595.047-1.19.14-1.785.133-2.132-.025-4.263-.08-6.394-.128-1.348-.03-2.706.182-4.04-.169a.413.413 0 0 0-.201-.006 6.626 6.626 0 0 1-3.68-.052c-.082-.025-.18.011-.27.015-.47.017-.94.032-1.409.05-.176.007-.362-.012-.528.034-.525.145-.957-.025-1.239-.56-.264.506-.629.712-1.147.4l-.136.013c-.5.233-.996.292-1.527.072-.41-.17-.807-.25-1.296-.118-.476.13-1.026-.014-1.544-.036a2.856 2.856 0 0 0-.267.003c-.47.024-.94.078-1.41.07-1.677-.031-3.354-.075-5.03-.13-.525-.018-1.049-.138-1.572-.131-1.11.015-2.22.082-3.331.127" fill="#F9FAFB"/><path d="M5.61 18.4c-.401.5-.497-.027-.697-.208.183-.18.396-.531.543-.506.462.082.115.463.155.713" fill="#E9EDFB"/><path d="M2.302 18.612L.93 18.545l.46-.8c.407.166.355.867.912.867" fill="#E6EBFB"/><path d="M19.06 37.543c.178-.692-.57-1.444-1.204-1.397-.176.013-.338.181-.511.27-.46.234-.92.646-1.384.654-.753.012-1.317.316-1.813.763-1.09.983-2.138 2.013-3.192 3.036-.253.245-.46.34-.848.24-.334-.087-.809-.032-1.085.158-.406.28-.594.164-.943-.081a63.666 63.666 0 0 0-3.692-2.43c-.896-.542-1.743-.272-2.45.432-.75.747-1.438 1.56-2.22 2.27-.381.346-.666.943-1.419.757-.205-.051-.636.308-.755.573-.092.204.086.594.249.829.146.21.435.323.662.476.47.32.88.099 1.016-.313.21-.628.738-.925 1.128-1.362.443-.499.914-.973 1.38-1.451.369-.38.728-.771 1.125-1.12.673-.59 1.73-.46 2.67.267.961.743 1.943 1.458 2.904 2.2.132.102.21.283.294.438.352.654 1.13.723 1.59.14.126-.16.255-.323.407-.457.928-.813 1.86-1.622 2.796-2.426.885-.758 1.583-1.748 2.76-2.145.332-.112.54-.101.793.15.202.2.503.461.736.439.844-.083 1.497.33 2.22.63.724.3 1.473.592 2.327.233 1.21-.51 1.999-1.437 2.746-2.442.453-.61.913-1.217 1.413-1.787.125-.144.458-.248.625-.185.525.199.843.067 1.184-.371.359-.463.15-.794-.133-1.098a3.14 3.14 0 0 0-.873-.644c-.812-.41-1.468.02-1.488.925a.883.883 0 0 1-.159.489 258.846 258.846 0 0 1-2.42 3.1c-1.117 1.413-2.665 1.586-3.991.79-.19-.113-.299-.363-.445-.55m-8.295-7.82c.518.31.883.105 1.147-.401.282.535.714.705 1.239.56.166-.046.352-.027.529-.034.469-.018.938-.033 1.407-.05.09-.004.19-.04.27-.015a6.626 6.626 0 0 0 3.681.052.413.413 0 0 1 .2.006c1.335.35 2.693.139 4.04.169 2.132.048 4.263.103 6.395.128.594.006 1.19-.086 1.785-.133.086.632.241 1.263.245 1.895.018 2.693 0 5.388-.023 8.082-.019 2.095-.067 4.19-.097 6.285-.007.457.006.914.01 1.371-.95-.075-1.898-.04-2.85.012-.985.054-1.999.142-2.954-.035-1.005-.186-1.968.324-2.976-.05l-.384-.661-.243.803c-.498-.036-1.012-.192-1.454-.076-.618.162-1.053.123-1.357-.645-.528 1.137-1.41.512-2.077.682l-.43-.599-.126.059-.04.503c-.553 0-1.057.023-1.558-.005-1.25-.069-2.515.242-3.755-.139a1.205 1.205 0 0 0-.479-.035c-.587.068-1.17.174-1.76.22-.152.012-.396-.1-.462-.225-.315-.602-.665-.63-1.108-.096-.138.165-.4.316-.607.317-1.475.015-2.95-.02-4.424-.02-.806.001-1.61.032-2.306-.65-.04.626-.394.633-.797.599-.505-.042-1.014-.036-1.518-.08-.26-.023-.513-.111-.814-.18-.202.037-.482.147-.753.128-.666-.046-1.327-.151-1.99-.232-.019-.247-.057-.494-.054-.74.009-.941.005-1.883.06-2.822.022-.357.193-.706.318-1.136l-.392-.164c.145-.993-.325-2.122.776-2.94-.684-.038-.814-.306-.677-.838.074-.288-.052-.624-.071-.94-.089-1.386.095-2.77-.011-4.168-.052-.682-.209-1.465.148-2.215.228-.48.134-1.113.184-1.678 1.11-.045 2.22-.112 3.331-.127.523-.007 1.047.113 1.572.13 1.676.056 3.353.1 5.03.13.47.009.94-.045 1.41-.07.089-.004.178-.006.267-.002.518.022 1.068.165 1.544.036.489-.133.886-.051 1.296.118.53.22 1.027.161 1.527-.072l.136-.012" fill="#CBD8F7"/><path d="M16.765 52.98c-1.475-.621-3.006-.739-4.548-.747-1.312-.006-2.623.037-3.935.027-.883-.008-1.766-.104-2.649-.103-1.535.001-3.07.055-4.605.07-1.476.013-2.952.003-4.428.003-.345 0-.657.036-.693.486-.036.454.209.616.619.648.251.019.5.105.75.107 1.213.012 2.425.006 3.637.006 1.937 0 3.874.007 5.811-.002.436-.002.87-.086 1.306-.082 1.242.01 2.487.12 3.724.054 1.674-.089 3.34-.305 5.01-.467m-22.392-5.747c.662.081 1.323.186 1.989.232.27.019.55-.09.753-.128.301.069.555.157.814.18.505.044 1.013.038 1.518.08.403.033.757.027.797-.598.696.68 1.5.65 2.306.65 1.475 0 2.95.034 4.424.02.207-.003.47-.153.607-.318.443-.533.793-.506 1.108.095.066.126.31.238.462.226.59-.046 1.173-.152 1.76-.22.157-.019.33-.01.48.035 1.24.381 2.504.07 3.754.14.5.027 1.005.004 1.559.004l.039-.503.125-.059.43.599c.668-.17 1.55.455 2.078-.682.304.768.739.807 1.357.645.442-.116.956.04 1.454.076l.243-.803.384.66c1.008.375 1.97-.135 2.977.051.954.177 1.968.09 2.952.035.953-.053 1.9-.088 2.851-.012l.164.83.085-.02c-.079.382-.225.764-.225 1.147-.003 2.147.033 4.295.045 6.442.002.443-.056.766-.693.749a332.215 332.215 0 0 0-7.989-.101c-.874-.003-1.75.118-2.624.12-5.377.013-10.754.004-16.132.008-3.097.003-6.195.019-9.292.018-.164 0-.329-.095-.493-.145.086-.193.173-.386.27-.598-.681-.227-.178-.897-.416-1.32.794-.584.807-.72.154-1.047-.067-.866-.303-1.749-.154-2.56.187-1.016-.208-1.989.008-2.978.068-.307.05-.633.07-.95" fill="#F9FAFB"/><path d="M-10.768 38.524c-.99 0-1.858.007-2.726-.002-.854-.008-1.708-.044-2.561-.044-.82 0-1.612-.295-2.514-.133 0-.312.027-.538-.005-.755-.056-.374.108-.488.457-.508 1.146-.067 2.29-.182 3.438-.23 1.159-.049 2.32-.05 3.48-.042.144.001.4.176.411.29.047.472.02.952.02 1.424" fill="#B5BAC0"/><path d="M-18.528 27.382h7.886l.119 1.129h-8.005v-1.13z" fill="#2E3A5A"/><path d="M-11.51 24.396c-.6 0-1.205.016-1.807-.003-1.583-.05-3.166-.102-4.746-.193-.178-.01-.424-.24-.494-.424-.107-.28-.009-.562.375-.583.567-.032 1.136-.05 1.704-.08 1.163-.058 2.326-.128 3.49-.178a8.776 8.776 0 0 1 1.302.027c.107.012.266.232.271.361.013.317-.05.637-.095 1.073" fill="#B5B9BF"/><path d="M-18.55 33.26v-1.141c1.6-.057 3.16-.115 4.72-.166.641-.021.765.096.82.73.048.57-.167.804-.751.786a663.43 663.43 0 0 1-4.205-.147c-.18-.007-.358-.037-.583-.062" fill="#B4B9BF"/><path d="M17.536 23.432c-.02.14-.033.372-.09.594-.189.738-.418.859-1.188.842-1.398-.03-2.796 0-4.194-.02-1.354-.018-2.707-.081-4.061-.096-.481-.005-.964.113-1.445.107-1.214-.014-2.428-.092-3.641-.095-1.1-.003-2.2.06-3.3.091-.232.007-.464.017-.695.009-1.053-.038-1.596-.515-1.76-1.539-.106-.66.398-1.281 1.017-1.274 1.496.018 2.993.032 4.49.04 1.59.008 3.18-.002 4.77.013 2.291.02 4.582.058 6.874.084.755.009 1.513-.034 2.265.017.944.063 1.023.19.958 1.227" fill="#E9EDF2"/><path d="M10.765 29.723l-.136.012.136-.012" fill="#DFE7F9"/><path d="M19.06 37.543c.146.187.255.437.445.55 1.326.796 2.874.623 3.992-.79.812-1.028 1.622-2.06 2.419-3.1a.883.883 0 0 0 .16-.489c.019-.905.675-1.335 1.487-.925.32.161.63.383.873.644.282.304.492.635.133 1.098-.34.438-.66.57-1.184.37-.167-.062-.5.042-.625.186-.5.57-.96 1.177-1.413 1.787-.747 1.005-1.535 1.932-2.746 2.442-.854.36-1.603.067-2.327-.232-.723-.3-1.376-.714-2.22-.632-.233.023-.534-.239-.736-.438-.254-.251-.46-.262-.792-.15-1.178.397-1.876 1.387-2.76 2.145-.937.803-1.87 1.613-2.797 2.426-.152.134-.28.297-.407.458-.46.582-1.238.513-1.59-.141-.083-.155-.162-.336-.294-.438-.961-.742-1.943-1.457-2.903-2.2-.94-.727-1.998-.858-2.67-.267-.398.349-.757.74-1.126 1.12-.466.478-.937.952-1.38 1.45-.39.438-.919.735-1.128 1.363-.137.412-.546.632-1.016.313-.227-.153-.516-.266-.662-.476-.163-.235-.34-.625-.25-.83.12-.264.55-.623.756-.572.753.186 1.038-.41 1.419-.757.782-.71 1.47-1.523 2.22-2.27.707-.704 1.554-.974 2.45-.432a63.666 63.666 0 0 1 3.692 2.43c.35.245.537.361.943.081.276-.19.751-.245 1.085-.158.387.1.595.005.848-.24 1.054-1.023 2.102-2.053 3.192-3.036.496-.447 1.06-.75 1.813-.763.465-.008.924-.42 1.384-.654.173-.089.335-.257.511-.27.635-.047 1.382.705 1.204 1.397" fill="#FEFEFE"/><path d="M16.765 52.98c-1.67.162-3.337.378-5.011.467-1.237.066-2.482-.044-3.724-.054-.435-.004-.87.08-1.306.082-1.937.009-3.874.003-5.811.002-1.212 0-2.424.006-3.636-.006-.25-.002-.5-.088-.751-.107-.41-.032-.655-.194-.619-.648.036-.45.348-.486.693-.486 1.476 0 2.952.01 4.428-.004 1.535-.014 3.07-.068 4.605-.069.883 0 1.766.095 2.65.103 1.31.01 2.622-.033 3.934-.027 1.542.008 3.073.126 4.548.747" fill="#E9EDF2"/></g></g></svg>