<svg width="44" height="75" viewBox="0 0 44 75" fill="none" xmlns="http://www.w3.org/2000/svg">
<path fill-rule="evenodd" clip-rule="evenodd" d="M16.7654 44.0964H24.9474C27.7644 44.0964 29.5529 42.3621 29.5529 39.6555C29.5529 36.428 26.9751 35.5258 24.224 35.5258H16.7654V44.0964ZM16.7654 32.75H23.2984C27.0085 32.75 28.5226 31.3971 28.5226 28.7939C28.5226 25.3582 26.1176 24.8734 23.2984 24.8734H16.7654V32.75ZM13.5021 22.0971H22.4026C24.5692 22.0971 27.4214 22.0971 28.899 22.9993C30.5146 23.9707 31.785 25.7405 31.785 28.1701C31.785 30.807 30.4122 32.785 28.143 33.721V33.7907C31.169 34.4149 32.8171 36.7055 32.8171 39.7598C32.8171 43.4019 30.2389 46.8727 25.3594 46.8727H13.5021V22.0971Z" fill="#93A1B0"/>
<path fill-rule="evenodd" clip-rule="evenodd" d="M22.4979 12.7776C10.6259 12.7776 0.999725 22.4964 0.999725 34.485C0.999725 46.4723 10.6259 56.192 22.4979 56.192C34.374 56.192 44.0001 46.4723 44.0001 34.485C44.0001 22.4964 34.374 12.7776 22.4979 12.7776ZM41.1649 34.4954C41.1649 44.9036 32.8092 53.3414 22.4979 53.3414C12.1903 53.3414 3.83456 44.9036 3.83456 34.4954C3.83456 24.088 12.1903 15.652 22.4979 15.652C32.8092 15.652 41.1649 24.088 41.1649 34.4954Z" fill="#93A1B0"/>
<path fill-rule="evenodd" clip-rule="evenodd" d="M1.04436 63.6185H43.9557V60.7707H1.04436V63.6185Z" fill="#93A1B0"/>
<path fill-rule="evenodd" clip-rule="evenodd" d="M41.4486 57.2038C41.5177 57.0478 41.6108 56.9155 41.727 56.7973C41.8442 56.6808 41.9823 56.5944 42.1391 56.5265C42.2941 56.4599 42.4625 56.4294 42.6344 56.4294C42.813 56.4294 42.9787 56.4599 43.1369 56.5265C43.2901 56.5944 43.4251 56.6808 43.5396 56.7973C43.6558 56.9155 43.752 57.0478 43.818 57.2038C43.8892 57.3617 43.9213 57.5326 43.9213 57.717C43.9213 57.9032 43.8892 58.0737 43.818 58.2293C43.752 58.3898 43.6558 58.5248 43.5396 58.6412C43.4251 58.7609 43.2901 58.8481 43.1369 58.9151C42.9787 58.979 42.813 59.011 42.6344 59.011C42.4625 59.011 42.2941 58.979 42.1391 58.9151C41.9823 58.8481 41.8442 58.7609 41.727 58.6412C41.6108 58.5248 41.5177 58.3898 41.4486 58.2293C41.3773 58.0737 41.3484 57.9032 41.3484 57.717C41.3484 57.5326 41.3773 57.3617 41.4486 57.2038ZM41.6615 58.1528C41.7114 58.29 41.7854 58.4078 41.882 58.5068C41.9751 58.6053 42.0878 58.6835 42.2184 58.7406C42.3449 58.7964 42.487 58.8221 42.6344 58.8221C42.7854 58.8221 42.9248 58.7964 43.0509 58.7406C43.1787 58.6835 43.2901 58.6053 43.3872 58.5068C43.479 58.4078 43.5547 58.29 43.6068 58.1528C43.662 58.0197 43.6892 57.8722 43.6892 57.717C43.6892 57.5582 43.662 57.417 43.6068 57.2825C43.5547 57.1472 43.479 57.032 43.3872 56.9331C43.2901 56.8364 43.1787 56.7595 43.0509 56.7024C42.9248 56.6479 42.7854 56.6174 42.6344 56.6174C42.487 56.6174 42.3449 56.6479 42.2184 56.7024C42.0878 56.7595 41.9751 56.8364 41.882 56.9331C41.7854 57.032 41.7114 57.1472 41.6615 57.2825C41.6063 57.417 41.58 57.5582 41.58 57.717C41.58 57.8722 41.6063 58.0197 41.6615 58.1528ZM42.7164 56.9637C42.895 56.9637 43.0251 56.9996 43.111 57.0694C43.1974 57.1431 43.2415 57.2502 43.2415 57.3954C43.2415 57.5326 43.2019 57.6298 43.1284 57.6963C43.0509 57.7584 42.9587 57.7962 42.8442 57.8092L43.2732 58.4739H43.0251L42.6157 57.8231H42.3698V58.4739H42.1342V56.9637H42.7164ZM42.613 57.6351C42.666 57.6351 42.7164 57.6324 42.7631 57.6297C42.8068 57.6275 42.8513 57.6176 42.887 57.6014C42.9248 57.5825 42.9542 57.5582 42.9752 57.5263C42.9974 57.4912 43.0059 57.4471 43.0059 57.3851C43.0059 57.3352 42.9974 57.2929 42.9774 57.2659C42.9587 57.2335 42.9324 57.2124 42.9017 57.1971C42.87 57.1786 42.8375 57.1683 42.7961 57.1607C42.7565 57.1584 42.7186 57.1544 42.6781 57.1544H42.3698V57.6351H42.613Z" fill="#93A1B0"/>
<path fill-rule="evenodd" clip-rule="evenodd" d="M6.24474 3.23283C6.14273 3.06822 6.01623 2.92385 5.86433 2.79972C5.71154 2.67514 5.54004 2.57844 5.34761 2.50873C5.15562 2.43947 4.95472 2.40439 4.74447 2.40439C4.36094 2.40439 4.03443 2.4795 3.76671 2.62926C3.49855 2.77948 3.28118 2.98052 3.11458 3.23283C2.94798 3.48515 2.82637 3.77254 2.7502 4.09456C2.67358 4.41614 2.63617 4.74941 2.63617 5.09302C2.63617 5.42179 2.67358 5.74202 2.7502 6.0528C2.82637 6.36403 2.94798 6.64377 3.11458 6.89249C3.28118 7.1412 3.49855 7.34044 3.76671 7.49066C4.03443 7.64043 4.36094 7.71509 4.74447 7.71509C5.26654 7.71509 5.67412 7.55452 5.96723 7.23295C6.26033 6.91093 6.43985 6.48681 6.50488 5.96015H8.15705C8.11339 6.44993 8.00114 6.89249 7.82029 7.28737C7.63899 7.68271 7.39979 8.01957 7.10312 8.29662C6.80601 8.57502 6.45811 8.7873 6.05943 8.93347C5.66076 9.07964 5.22288 9.15295 4.74447 9.15295C4.15024 9.15295 3.61615 9.04861 3.1413 8.83992C2.66735 8.63169 2.266 8.34474 1.94082 7.97864C1.61475 7.61299 1.36441 7.18348 1.19069 6.68965C1.01652 6.19582 0.929656 5.66376 0.929656 5.09302C0.929656 4.50744 1.01652 3.96414 1.19069 3.46311C1.36441 2.96208 1.61475 2.52492 1.94082 2.15207C2.266 1.77878 2.66735 1.48644 3.1413 1.27415C3.61615 1.06232 4.15024 0.956177 4.74447 0.956177C5.1721 0.956177 5.57612 1.01869 5.95654 1.14238C6.3365 1.26696 6.67727 1.44821 6.97795 1.68613C7.27818 1.9236 7.52674 2.21819 7.72185 2.569C7.91829 2.92025 8.04123 3.32279 8.09157 3.77614H6.43985C6.41089 3.5787 6.34586 3.39744 6.24474 3.23283Z" fill="#93A1B0"/>
<path fill-rule="evenodd" clip-rule="evenodd" d="M12.1265 4.63193C11.9416 4.42729 11.6601 4.32475 11.2837 4.32475C11.0378 4.32475 10.8329 4.36703 10.6699 4.45113C10.5068 4.53523 10.3763 4.63913 10.2788 4.76326C10.1808 4.88829 10.1122 5.01962 10.0721 5.15904C10.0324 5.29802 10.0084 5.4217 10.0012 5.53189H12.5122C12.4396 5.13655 12.3109 4.83657 12.1265 4.63193ZM10.3821 7.61695C10.6137 7.84318 10.9474 7.95652 11.3817 7.95652C11.6935 7.95652 11.9617 7.87781 12.1862 7.72085C12.4107 7.56388 12.5479 7.39702 12.5995 7.22117H13.9577C13.7399 7.9021 13.4067 8.38873 12.9577 8.68107C12.5082 8.97341 11.9652 9.12003 11.3273 9.12003C10.8855 9.12003 10.4868 9.04852 10.1318 8.90595C9.77719 8.76338 9.47651 8.56054 9.22973 8.29653C8.9834 8.03342 8.79319 7.71905 8.65911 7.3534C8.52503 6.98774 8.45822 6.58521 8.45822 6.14625C8.45822 5.72214 8.52726 5.3268 8.6649 4.96115C8.8021 4.59505 8.99854 4.27887 9.25156 4.01217C9.50546 3.74502 9.80792 3.53498 10.1594 3.38116C10.5104 3.22735 10.8997 3.15089 11.3273 3.15089C11.8053 3.15089 12.2223 3.24399 12.5773 3.43064C12.9323 3.61728 13.2241 3.86735 13.4521 4.18218C13.6802 4.497 13.845 4.85546 13.9466 5.25754C14.0473 5.66007 14.0842 6.08059 14.0548 6.51955H10.0012C10.0231 7.02417 10.15 7.38983 10.3821 7.61695Z" fill="#93A1B0"/>
<path fill-rule="evenodd" clip-rule="evenodd" d="M16.2177 3.30444V4.35776H16.2396C16.3122 4.18236 16.4102 4.01954 16.5331 3.86933C16.6561 3.71956 16.7977 3.59138 16.9567 3.48524C17.1162 3.37954 17.2864 3.29679 17.4681 3.23832C17.649 3.17985 17.8374 3.15107 18.0329 3.15107C18.1345 3.15107 18.2463 3.16906 18.3701 3.20549V4.6537C18.2971 4.63931 18.2107 4.62671 18.1087 4.61547C18.0076 4.60468 17.9096 4.59883 17.8156 4.59883C17.5327 4.59883 17.2939 4.64695 17.0984 4.74185C16.9024 4.83675 16.7451 4.96673 16.6253 5.13134C16.5059 5.29595 16.4204 5.48754 16.3701 5.70747C16.3197 5.92695 16.2944 6.16442 16.2944 6.42034V8.97719H14.7504V3.30444H16.2177Z" fill="#93A1B0"/>
<path fill-rule="evenodd" clip-rule="evenodd" d="M22.5001 3.30443V4.34652H21.3691V7.15568C21.3691 7.41924 21.4132 7.59464 21.5001 7.68234C21.5869 7.7705 21.7611 7.81412 22.0213 7.81412C22.1081 7.81412 22.1919 7.81053 22.2712 7.80333C22.3509 7.79613 22.4271 7.78489 22.5001 7.7705V8.97719C22.3696 8.99968 22.2239 9.01362 22.0645 9.02081C21.9059 9.02846 21.75 9.03251 21.5976 9.03251C21.3584 9.03251 21.1317 9.01587 20.9179 8.98259C20.7045 8.9502 20.5165 8.88634 20.3535 8.79099C20.19 8.69564 20.0613 8.56072 19.9669 8.38486C19.8729 8.20901 19.8265 7.97873 19.8265 7.69404V4.34652H18.8915V3.30443H19.8265V1.60346H21.3691V3.30443H22.5001Z" fill="#93A1B0"/>
<path fill-rule="evenodd" clip-rule="evenodd" d="M23.3987 8.97741H24.9422V3.30466H23.3987V8.97741ZM23.3987 2.42629H24.9422V1.14224H23.3987V2.42629Z" fill="#93A1B0"/>
<path fill-rule="evenodd" clip-rule="evenodd" d="M25.5539 4.34647V3.30439H26.4773V2.86543C26.4773 2.3608 26.6332 1.94748 26.945 1.62591C27.2559 1.30343 27.7277 1.14242 28.358 1.14242C28.4952 1.14242 28.6333 1.14827 28.7714 1.15906C28.9077 1.1703 29.0422 1.1793 29.1723 1.1865V2.35001C28.9914 2.32752 28.803 2.31673 28.6074 2.31673C28.3976 2.31673 28.2471 2.3662 28.1571 2.4647C28.0667 2.56364 28.0212 2.73005 28.0212 2.96438V3.30439H29.0858V4.34647H28.0212V8.97714H26.4773V4.34647H25.5539Z" fill="#93A1B0"/>
<path fill-rule="evenodd" clip-rule="evenodd" d="M30.1317 8.97741H31.6751V3.30466H30.1317V8.97741ZM30.1321 2.42629H31.6756V1.14224H30.1321V2.42629Z" fill="#93A1B0"/>
<path fill-rule="evenodd" clip-rule="evenodd" d="M35.8535 4.63193C35.6691 4.42729 35.3876 4.32475 35.0112 4.32475C34.7649 4.32475 34.5608 4.36703 34.3974 4.45113C34.2339 4.53523 34.1038 4.63913 34.0063 4.76326C33.9083 4.88829 33.8397 5.01962 33.7996 5.15904C33.7599 5.29802 33.7363 5.4217 33.7292 5.53189H36.2388C36.1676 5.13655 36.0388 4.83657 35.8535 4.63193ZM34.1092 7.61695C34.3412 7.84318 34.6749 7.95652 35.1087 7.95652C35.4206 7.95652 35.6887 7.87781 35.9137 7.72085C36.1382 7.56388 36.2758 7.39702 36.3266 7.22117H37.6843C37.4678 7.9021 37.1342 8.38873 36.6856 8.68107C36.2348 8.97341 35.6927 9.12003 35.0548 9.12003C34.6125 9.12003 34.2138 9.04852 33.8593 8.90595C33.5047 8.76338 33.2036 8.56054 32.9572 8.29653C32.7109 8.03342 32.5211 7.71905 32.3866 7.3534C32.253 6.98774 32.1857 6.58521 32.1857 6.14625C32.1857 5.72214 32.2552 5.3268 32.392 4.96115C32.53 4.59505 32.7251 4.27887 32.9795 4.01217C33.2325 3.74502 33.535 3.53498 33.8864 3.38116C34.2379 3.22735 34.6272 3.15089 35.0548 3.15089C35.5328 3.15089 35.9502 3.24399 36.3052 3.43064C36.6602 3.61728 36.9516 3.86735 37.1801 4.18218C37.4077 4.497 37.5725 4.85546 37.6736 5.25754C37.7752 5.66007 37.8117 6.08059 37.7828 6.51955H33.7292C33.7506 7.02417 33.8775 7.38983 34.1092 7.61695Z" fill="#93A1B0"/>
<path fill-rule="evenodd" clip-rule="evenodd" d="M42.4013 5.44931C42.3581 5.23388 42.2837 5.04364 42.179 4.87858C42.0743 4.71441 41.938 4.58084 41.7714 4.47829C41.6048 4.37575 41.3946 4.32493 41.1411 4.32493C40.8881 4.32493 40.6734 4.37575 40.4997 4.47829C40.326 4.58084 40.1861 4.71576 40.081 4.88442C39.9763 5.05308 39.9006 5.24468 39.8533 5.46011C39.8057 5.67644 39.783 5.90132 39.783 6.13519C39.783 6.35467 39.8079 6.57415 39.8582 6.79363C39.909 7.01356 39.991 7.20875 40.1032 7.38056C40.2159 7.55327 40.3563 7.69179 40.5273 7.79748C40.6975 7.90407 40.9024 7.9567 41.1411 7.9567C41.3946 7.9567 41.6066 7.90587 41.7772 7.80333C41.9469 7.70079 42.0833 7.56361 42.1848 7.3918C42.2855 7.22 42.3581 7.0239 42.4013 6.80487C42.4454 6.58494 42.4668 6.35827 42.4668 6.1244C42.4668 5.89052 42.4454 5.6652 42.4013 5.44931ZM42.4668 8.25308C42.2855 8.56027 42.0485 8.782 41.755 8.91692C41.4619 9.0523 41.1304 9.11976 40.7607 9.11976C40.3398 9.11976 39.9709 9.03791 39.6524 8.87285C39.3335 8.70868 39.0702 8.48561 38.8644 8.20406C38.6573 7.92251 38.5014 7.59869 38.3967 7.23259C38.2916 6.86694 38.2395 6.4869 38.2395 6.09156C38.2395 5.71152 38.2916 5.34362 38.3967 4.98877C38.5014 4.63391 38.6573 4.32133 38.8644 4.05013C39.0702 3.78028 39.3295 3.56214 39.6413 3.39753C39.9527 3.23292 40.3148 3.15107 40.7282 3.15107C41.0614 3.15107 41.3786 3.22168 41.6783 3.3647C41.9799 3.50727 42.2169 3.71731 42.3911 3.99571H42.4124V1.14246H43.9555V8.97719H42.4886V8.25308H42.4668Z" fill="#93A1B0"/>
<path fill-rule="evenodd" clip-rule="evenodd" d="M4.80879 69.2102C4.73084 68.6615 4.21056 68.2445 3.61366 68.2445C2.53523 68.2445 2.12898 69.1719 2.12898 70.138C2.12898 71.0564 2.53523 71.9843 3.61366 71.9843C4.3482 71.9843 4.76336 71.4742 4.85334 70.7474H6.01863C5.89524 72.1237 4.95356 73.0043 3.61366 73.0043C1.92274 73.0043 0.928497 71.7292 0.928497 70.138C0.928497 68.4996 1.92274 67.224 3.61366 67.224C4.81592 67.224 5.82531 67.9356 5.97141 69.2102H4.80879Z" fill="#93A1B0"/>
<path fill-rule="evenodd" clip-rule="evenodd" d="M8.52681 72.1542C9.26893 72.1542 9.49032 71.5124 9.49032 70.8796C9.49032 70.2383 9.26893 69.5969 8.52681 69.5969C7.79272 69.5969 7.5691 70.2383 7.5691 70.8796C7.5691 71.5124 7.79272 72.1542 8.52681 72.1542ZM8.52681 68.7707C9.77451 68.7707 10.5777 69.6037 10.5777 70.8796C10.5777 72.1466 9.77451 72.9813 8.52681 72.9813C7.28669 72.9813 6.48354 72.1466 6.48354 70.8796C6.48354 69.6037 7.28669 68.7707 8.52681 68.7707Z" fill="#93A1B0"/>
<path fill-rule="evenodd" clip-rule="evenodd" d="M11.2482 68.8711H12.2798V69.6123H12.2963C12.4941 69.1108 13.0304 68.7636 13.5596 68.7636C13.6358 68.7636 13.7267 68.778 13.7975 68.8014V69.821C13.6959 69.7985 13.5365 69.7832 13.4068 69.7832C12.6099 69.7832 12.3337 70.3629 12.3337 71.0654V72.8663H11.2482V68.8711Z" fill="#93A1B0"/>
<path fill-rule="evenodd" clip-rule="evenodd" d="M17.1595 70.8875C17.1595 70.2525 16.9069 69.5972 16.2107 69.5972C15.4989 69.5972 15.2699 70.2385 15.2699 70.8875C15.2699 71.5356 15.5149 72.154 16.2187 72.154C16.931 72.154 17.1595 71.5356 17.1595 70.8875ZM14.2213 68.878H15.2552V69.3876H15.2699C15.5296 68.9635 15.9581 68.7705 16.4472 68.7705C17.6883 68.7705 18.2455 69.782 18.2455 70.9172C18.2455 71.984 17.6655 72.9811 16.5092 72.9811C16.0352 72.9811 15.584 72.772 15.3238 72.378H15.3078V74.2791H14.2213V68.878Z" fill="#93A1B0"/>
<path fill-rule="evenodd" clip-rule="evenodd" d="M20.6309 72.1542C21.3734 72.1542 21.5957 71.5124 21.5957 70.8796C21.5957 70.2383 21.3734 69.5969 20.6309 69.5969C19.8977 69.5969 19.675 70.2383 19.675 70.8796C19.675 71.5124 19.8977 72.1542 20.6309 72.1542ZM20.6309 68.7707C21.879 68.7707 22.6835 69.6037 22.6835 70.8796C22.6835 72.1466 21.879 72.9813 20.6309 72.9813C19.3921 72.9813 18.5885 72.1466 18.5885 70.8796C18.5885 69.6037 19.3921 68.7707 20.6309 68.7707Z" fill="#93A1B0"/>
<path fill-rule="evenodd" clip-rule="evenodd" d="M23.354 68.8711H24.387V69.6123H24.4035C24.6013 69.1108 25.1372 68.7636 25.665 68.7636C25.7412 68.7636 25.8338 68.778 25.9029 68.8014V69.821C25.8031 69.7985 25.6423 69.7832 25.5127 69.7832C24.7167 69.7832 24.4405 70.3629 24.4405 71.0654V72.8663H23.354V68.8711Z" fill="#93A1B0"/>
<path fill-rule="evenodd" clip-rule="evenodd" d="M28.7334 70.9174C28.5485 71.0806 28.1667 71.0869 27.8295 71.1499C27.4928 71.2178 27.1863 71.3357 27.1863 71.7368C27.1863 72.1466 27.5004 72.246 27.8532 72.246C28.7017 72.246 28.7334 71.5673 28.7334 71.3271V70.9174ZM26.2215 70.1065C26.2838 69.0783 27.1939 68.7707 28.0817 68.7707C28.8697 68.7707 29.8194 68.9475 29.8194 69.905V71.9842C29.8194 72.3481 29.8568 72.7101 29.9583 72.8734H28.8545C28.8175 72.7483 28.7855 72.6179 28.7775 72.4857C28.434 72.85 27.9293 72.9813 27.4469 72.9813C26.6968 72.9813 26.1003 72.6026 26.1003 71.7827C26.1003 70.8796 26.7752 70.6637 27.4469 70.5706C28.1128 70.4694 28.7334 70.4933 28.7334 70.0444C28.7334 69.574 28.41 69.5038 28.0287 69.5038C27.6148 69.5038 27.348 69.6734 27.3088 70.1065H26.2215Z" fill="#93A1B0"/>
<path fill-rule="evenodd" clip-rule="evenodd" d="M32.0142 68.8781H32.8106V69.6121H32.0142V71.5888C32.0142 71.9607 32.1068 72.0538 32.473 72.0538C32.5884 72.0538 32.6957 72.0457 32.8106 72.0232V72.8809C32.6258 72.912 32.3883 72.9192 32.1741 72.9192C31.5104 72.9192 30.9282 72.764 30.9282 71.9684V69.6121H30.2693V68.8781H30.9282V67.68H32.0142V68.8781Z" fill="#93A1B0"/>
<path fill-rule="evenodd" clip-rule="evenodd" d="M33.6302 72.8732H34.7171V68.878H33.6302V72.8732ZM33.6302 68.2596H34.7171V67.3551H33.6302V68.2596Z" fill="#93A1B0"/>
<path fill-rule="evenodd" clip-rule="evenodd" d="M37.4892 72.1542C38.2331 72.1542 38.454 71.5124 38.454 70.8796C38.454 70.2383 38.2331 69.5969 37.4892 69.5969C36.7551 69.5969 36.5328 70.2383 36.5328 70.8796C36.5328 71.5124 36.7551 72.1542 37.4892 72.1542ZM37.4892 68.7707C38.7373 68.7707 39.5422 69.6037 39.5422 70.8796C39.5422 72.1466 38.7373 72.9813 37.4892 72.9813C36.2504 72.9813 35.4477 72.1466 35.4477 70.8796C35.4477 69.6037 36.2504 68.7707 37.4892 68.7707Z" fill="#93A1B0"/>
<path fill-rule="evenodd" clip-rule="evenodd" d="M40.2441 68.8781H41.2775V69.4345H41.3002C41.576 68.9861 42.0504 68.7706 42.5101 68.7706C43.6656 68.7706 43.9556 69.4268 43.9556 70.4158V72.8733H42.8696V70.6164C42.8696 69.9598 42.6776 69.6346 42.1733 69.6346C41.5831 69.6346 41.3305 69.9674 41.3305 70.7797V72.8733H40.2441V68.8781Z" fill="#93A1B0"/>
</svg>
