<svg class="logo-svg u-mrg-0" xmlns="http://www.w3.org/2000/svg" viewBox="0 0 842 168" role="img"><title>Help Scout logo</title><desc id="helpscout-logo-desc-1">Help Desk software - Customer Support Software</desc>
    <style>.st3{fill:#2a3b47}.st1{fill:#1292ee}</style>
    <path class="st3" d="M232 31.5l-.3.1v44.7h-42.4V31.6l-.3-.1c-6.3-1.3-12.5-1.3-18.7 0l-.3.1v102.8l.3.1c3.1.6 6.2 1 9.3 1s6.2-.3 9.4-1l.3-.1V92.7h42.4v41.7l.3.1c6.2 1.3 12.5 1.3 18.7 0l.3-.1V31.6l-.3-.1c-6.3-1.2-12.5-1.2-18.7 0zM297.7 60.4c-22.2 0-35.4 14-35.4 37.5 0 12.2 2.8 21.9 8.4 28.6 6.1 7.3 15.2 11 27.3 11 20.5 0 31-12.2 32.3-24.3v-.3l-.3-.1c-5.2-1.7-10-2.1-15.7-1.3h-.2v.2c-1.2 7.2-7.2 11.5-15.9 11.5-12.2 0-18.2-6.7-18.4-20.5h51.6v-.3c1.5-13.6-1.2-24.6-7.8-32.1-6.1-6.4-15-9.9-25.9-9.9zm-.2 13.3c5.1 0 9.4 1.6 12.3 4.7 3 3.2 4.5 8 4.2 13.7h-34.2c.3-11.7 6.8-18.4 17.7-18.4zM343.9 31.5l-.3.1v102.8l.3.1c2.9.6 5.8 1 8.8 1 2.9 0 5.9-.3 8.8-1l.3-.1V31.6l-.3-.1c-5.8-1.3-11.7-1.2-17.6 0zM412.4 60.4c-7.7 0-15.8 3-23.5 8.7l-1.1-5.4-.2-.1c-4.4-1.3-8-1.3-12.3 0l-.2.1V166l.3.1c2.9.6 5.8 1 8.8 1s5.9-.3 8.8-1l.3-.1v-34.2c6.1 3.9 12.6 5.7 19.9 5.7 20.2 0 32.3-14.3 32.3-38.4-.1-24.5-12.1-38.7-33.1-38.7zM393 80.7c5.4-3.7 10.4-5.4 15.8-5.4 12.3 0 19 8.5 19 24.1 0 15.3-6.6 23.4-19.2 23.4-5.4 0-10.5-1.7-15.6-5.3V80.7zM522.6 79.1c-3.1-1.2-5.9-2.2-8.6-3.1-14-5-22.4-8-22.6-15.6-.1-3.5 1-6.5 3.4-9 3.5-3.6 9.4-5.5 16.6-5.5 7.1 0 12.6 1.9 15.9 5.4 2.8 3 4 7.1 3.7 12.2v.3l.3.1c6.1 1.2 12.2 1.1 18.8-.4l.3-.1v-.3c.4-8.6-2.2-16.1-7.5-21.7-6.6-7-17.2-10.7-30.6-10.8h-.4c-24.9 0-39.9 11.1-40.1 29.7-.1 18.5 16.9 24.7 27.1 28.3l1.5.6c3.4 1.2 6.6 2.3 9.4 3.3 13.8 4.8 22.1 7.7 22.4 15 .1 3.8-1 6.9-3.3 9.3-3.3 3.4-9.1 5.1-16.8 5-8.5 0-15-2.2-18.7-6.2-2.7-3-3.8-6.8-3.4-11.4v-.3l-.3-.1c-6.2-1.2-12.5-1.1-18.7.3l-.2.1v.3c-.5 8.3 2 15.7 7.4 21.4 7.2 7.7 19 11.7 34.2 11.6 14.9 0 39.4-4 39.6-30-.3-17.3-15.1-22.9-29.4-28.4zM596.7 75.3c12.3 0 15.2 8 15.8 12.7v.3h.3c5.7.9 11.1.5 16.3-1l.3-.1v-.3c-.5-7.2-3.6-13.7-8.7-18.4-5.8-5.3-14.1-8.2-23.9-8.2-23.4 0-36.3 13.7-36.3 38.6 0 24.8 12.8 38.5 36 38.5 10 0 18.4-2.9 24.3-8.4 4.9-4.6 7.9-10.8 8.5-17.5v-.3l-.3-.1c-4.9-1.7-10.3-2-16.2-1h-.2v.2c-1.6 11.2-12.5 12-15.8 12-12.6 0-18.5-7.5-18.5-23.6-.1-15.9 5.8-23.4 18.4-23.4zM673.7 60.4c-23 0-35.7 13.7-35.7 38.6 0 24.8 12.7 38.5 35.7 38.5 23 0 35.7-13.7 35.7-38.5 0-24.9-12.7-38.6-35.7-38.6zM692 99.1c0 15.9-6 23.6-18.3 23.6s-18.3-7.7-18.3-23.6c0-16.2 5.8-23.8 18.3-23.8 12.3 0 18.3 7.8 18.3 23.8zM767 63.7l-.3.1V115c-5.8 5-11.1 7.2-17.2 7.2-8.6 0-12.3-4.9-12.3-16.5v-42l-.3-.1c-5.8-1.4-11.7-1.4-17.6 0l-.3.1v46.1c0 17.5 9.4 27.6 25.9 27.6 8.8 0 16.5-3.4 24.8-11l1.7 8 .2.1c4.2 1.1 8.6 1.1 12.8 0l.3-.1V63.7l-.3-.1c-5.6-1.4-11.5-1.4-17.4.1zM840.1 120.7l-.1-.3-.3.1c-7 1.6-11.1 1.5-13.5-.4-2-1.6-2.9-4.4-2.9-8.8V78.5h14.2l.1-.3c1-4.8 1-9.7 0-14.6l-.1-.3h-14.2V43.9l-.3-.1c-5.8-1.3-11.7-1.3-17.5 0l-.3.1.1 19.4h-9l-.1.3c-1.1 4.8-1.1 9.8 0 14.6l.1.3h9l.1 31.5c0 8.8.5 17.7 6.6 22.8 3.3 2.7 8.1 4.1 14.3 4.1 3.8 0 8.2-.5 13.3-1.5h.2l.1-.2c1.4-4.7 1.5-9.6.2-14.5z"/>
    <path class="st1" d="M10.9 97.2l48.6-48.6c6.3-6.2 10.2-14.9 10.2-24.4 0-9.4-3.8-18-9.9-24.2L11.2 48.6C4.9 54.8 1 63.5 1 73c0 9.5 3.8 18 9.9 24.2zM128.6 68.8L80 117.4c-6.3 6.2-10.2 14.9-10.2 24.4 0 9.4 3.8 18 9.9 24.2l48.6-48.6c6.3-6.2 10.2-14.9 10.2-24.4 0-9.5-3.8-18-9.9-24.2zM128.3 48.7c6.3-6.2 10.2-14.9 10.2-24.4 0-9.4-3.8-18-9.9-24.2L11.2 117.4C4.9 123.7 1 132.3 1 141.9c0 9.4 3.8 18 9.9 24.2L128.3 48.7z"/>
</svg>
