<svg width="40" height="40" viewBox="0 0 40 40" fill="none" xmlns="http://www.w3.org/2000/svg">
<ellipse cx="20" cy="20" rx="20" ry="20" fill="#D866A7"/>
<g style="mix-blend-mode:multiply">
<path d="M28.0142 15.9168C25.1151 10.2289 17.3572 9.26815 13.1734 14.1371L16.0185 19.0848C16.2896 17.9013 17.0692 16.8945 18.1008 16.3511C18.9298 15.9143 19.6996 15.9152 20.8408 15.9167L21.0449 15.9168C21.9007 15.9163 23.1144 15.9166 24.3696 15.9168H24.373C25.6562 15.9171 26.9825 15.9174 28.0142 15.9168Z" fill="#9A4C9D"/>
<path d="M19.9972 22.9942C18.348 22.9942 17.0059 21.6521 17.0059 20.0018C17.0059 18.3514 18.3469 17.0082 19.9972 17.0093C21.6465 17.0093 22.9886 18.3514 22.9886 20.0018C22.9886 21.6521 21.6465 22.9942 19.9972 22.9942Z" fill="#9A4C9D"/>
<path d="M21.1573 23.9186C19.4788 24.417 17.5135 23.8646 16.438 22.0062C15.6167 20.5887 13.4455 16.8076 12.46 15.0875C9.00404 20.3839 11.9819 27.6007 18.2548 28.8326L21.1573 23.9186Z" fill="#9A4C9D"/>
<path d="M23.5311 22.047C24.4784 20.4147 24.1735 18.3087 22.7751 17.0082L28.4822 17.0071C30.6107 23.0472 25.8992 29.3809 19.4362 28.9826C20.5398 27.1219 22.8179 23.2778 23.5311 22.047Z" fill="#9A4C9D"/>
</g>
<path d="M19.9972 22.9942C18.348 22.9942 17.0059 21.6521 17.0059 20.0018C17.0059 18.3514 18.3468 17.0082 19.9972 17.0093C21.6464 17.0093 22.9886 18.3514 22.9886 20.0018C22.9886 21.6521 21.6464 22.9942 19.9972 22.9942Z" fill="white"/>
</svg>
