<svg width="160" height="160" viewBox="0 0 160 160" fill="none" xmlns="http://www.w3.org/2000/svg">
<g style="mix-blend-mode:multiply">
<rect width="160" height="160" rx="80" fill="url(#paint0_linear)"/>
</g>
<path d="M108.971 109.561C109.362 109.134 109.333 108.47 108.906 108.079C108.479 107.687 107.815 107.716 107.424 108.143L102.426 113.595L100.576 111.577C100.184 111.15 99.5205 111.121 99.0933 111.513C98.666 111.904 98.6372 112.568 99.0288 112.995L101.652 115.857C101.851 116.074 102.132 116.198 102.426 116.198C102.72 116.198 103.001 116.074 103.199 115.857L108.971 109.561Z" fill="#F9FBFE"/>
<path d="M104 99.4075C97.045 99.4075 91.4072 105.045 91.4072 112C91.4072 118.954 97.045 124.592 104 124.592C110.954 124.592 116.592 118.954 116.592 112C116.592 105.045 110.954 99.4075 104 99.4075ZM93.6967 112C93.6967 106.31 98.3094 101.697 104 101.697C109.69 101.697 114.302 106.31 114.302 112C114.302 117.69 109.69 122.303 104 122.303C98.3094 122.303 93.6967 117.69 93.6967 112Z" fill="#F9FBFE"/>
<path fill-rule="evenodd" clip-rule="evenodd" d="M106.441 107.242C107.33 106.272 108.837 106.207 109.807 107.096C110.777 107.985 110.843 109.492 109.954 110.462L104.182 116.758C103.731 117.251 103.094 117.531 102.426 117.531C101.758 117.531 101.121 117.251 100.669 116.758L98.0459 113.896C97.1567 112.926 97.2223 111.419 98.1923 110.53C99.1623 109.641 100.67 109.706 101.559 110.676L102.426 111.622L106.441 107.242Z" fill="#F9FBFE"/>
<g style="mix-blend-mode:multiply">
<path d="M68.4448 87.7037H83.8522C84.8738 87.7037 85.8535 88.1095 86.5759 88.8319C87.2982 89.5542 87.7041 90.534 87.7041 91.5555C87.7041 92.5771 87.2982 93.5568 86.5759 94.2792C85.8535 95.0016 84.8738 95.4074 83.8522 95.4074H68.4448C67.4232 95.4074 66.4435 95.0016 65.7211 94.2792C64.9988 93.5568 64.593 92.5771 64.593 91.5555C64.593 90.534 64.9988 89.5542 65.7211 88.8319C66.4435 88.1095 67.4232 87.7037 68.4448 87.7037Z" fill="#7874D2"/>
<path fill-rule="evenodd" clip-rule="evenodd" d="M94.7144 49.1851H99.2596C102.324 49.1851 105.264 50.4026 107.431 52.5697C109.598 54.7368 110.815 57.676 110.815 60.7407V96.1226C108.962 95.4675 106.967 95.1111 104.889 95.1111C104.289 95.1111 103.696 95.1408 103.111 95.1988V60.7407C103.111 59.7191 102.706 58.7394 101.983 58.017C101.261 57.2947 100.281 56.8889 99.2596 56.8889H95.4078V60.7407C95.4078 61.7623 95.0019 62.742 94.2796 63.4644C93.5572 64.1867 92.5775 64.5926 91.5559 64.5926H68.4448C67.4232 64.5926 66.4435 64.1867 65.7211 63.4644C64.9988 62.742 64.593 61.7623 64.593 60.7407V56.8889H60.7411C59.7195 56.8889 58.7398 57.2947 58.0174 58.017C57.2951 58.7394 56.8892 59.7191 56.8892 60.7407V106.963C56.8892 107.985 57.2951 108.964 58.0174 109.687C58.7398 110.409 59.7195 110.815 60.7411 110.815H87.2312C87.1522 111.495 87.1115 112.187 87.1115 112.889C87.1115 114.856 87.4312 116.749 88.0214 118.518H60.7411C57.6764 118.518 54.7372 117.301 52.5701 115.134C50.403 112.967 49.1855 110.028 49.1855 106.963V60.7407C49.1855 57.676 50.403 54.7368 52.5701 52.5697C54.7372 50.4026 57.6764 49.1851 60.7411 49.1851H65.2863C66.081 46.9374 67.5514 44.9905 69.4961 43.6113C71.4408 42.2321 73.7644 41.4881 76.1485 41.4814H83.8522C86.2363 41.4881 88.5599 42.2321 90.5046 43.6113C92.4493 44.9905 93.9197 46.9374 94.7144 49.1851ZM73.4248 50.3133C72.7025 51.0357 72.2967 52.0154 72.2967 53.037V56.8889H87.7041V53.037C87.7041 52.0154 87.2982 51.0357 86.5759 50.3133C85.8535 49.591 84.8738 49.1851 83.8522 49.1851H76.1485C75.1269 49.1851 74.1472 49.591 73.4248 50.3133Z" fill="#7874D2"/>
<path d="M68.4448 72.2963H91.5559C92.5775 72.2963 93.5572 72.7021 94.2796 73.4244C95.0019 74.1468 95.4078 75.1265 95.4078 76.1481C95.4078 77.1697 95.0019 78.1494 94.2796 78.8718C93.5572 79.5942 92.5775 80 91.5559 80H68.4448C67.4232 80 66.4435 79.5942 65.7211 78.8718C64.9988 78.1494 64.593 77.1697 64.593 76.1481C64.593 75.1265 64.9988 74.1468 65.7211 73.4244C66.4435 72.7021 67.4232 72.2963 68.4448 72.2963Z" fill="#7874D2"/>
</g>
<defs>
<linearGradient id="paint0_linear" x1="3.87099e-06" y1="160" x2="148.444" y2="11.5556" gradientUnits="userSpaceOnUse">
<stop stop-color="#F9A854"/>
<stop offset="1" stop-color="#F25A89"/>
</linearGradient>
</defs>
</svg>
