<svg width="40" height="40" viewBox="0 0 40 40" fill="none" xmlns="http://www.w3.org/2000/svg">
<ellipse cx="20" cy="20" rx="20" ry="20" fill="#EB5757"/>
<g style="mix-blend-mode:multiply">
<path d="M23.5549 18.4594C23.2615 19.1391 22.8336 19.7439 22.3 20.2329C23.6999 20.9041 24.8875 21.988 25.721 23.3549C26.5545 24.7219 26.9985 26.3141 27 27.9412C27 28.222 26.8946 28.4913 26.7071 28.6899C26.5196 28.8884 26.2652 29 26 29C25.7348 29 25.4804 28.8884 25.2929 28.6899C25.1054 28.4913 25 28.222 25 27.9412C25 26.2563 24.3679 24.6404 23.2426 23.449C22.1174 22.2576 20.5913 21.5882 19 21.5882C17.4087 21.5882 15.8826 22.2576 14.7574 23.449C13.6321 24.6404 13 26.2563 13 27.9412C13 28.222 12.8946 28.4913 12.7071 28.6899C12.5196 28.8884 12.2652 29 12 29C11.7348 29 11.4804 28.8884 11.2929 28.6899C11.1054 28.4913 11 28.222 11 27.9412C11.0015 26.3141 11.4455 24.7219 12.279 23.3549C13.1125 21.988 14.3001 20.9041 15.7 20.2329C15.1664 19.7439 14.7384 19.1391 14.4451 18.4594C14.1518 17.7798 14 17.0413 14 16.2941C14 14.89 14.5268 13.5435 15.4645 12.5506C16.4021 11.5578 17.6739 11 19 11C20.3261 11 21.5979 11.5578 22.5355 12.5506C23.4732 13.5435 24 14.89 24 16.2941C24 17.0413 23.8482 17.7798 23.5549 18.4594ZM17.3333 18.9353C17.8266 19.2843 18.4067 19.4706 19 19.4706C19.7956 19.4706 20.5587 19.1359 21.1213 18.5402C21.6839 17.9445 22 17.1366 22 16.2941C22 15.6659 21.8241 15.0517 21.4944 14.5294C21.1648 14.007 20.6962 13.5999 20.1481 13.3594C19.5999 13.119 18.9967 13.0561 18.4147 13.1787C17.8328 13.3012 17.2982 13.6038 16.8787 14.048C16.4591 14.4923 16.1734 15.0582 16.0576 15.6744C15.9419 16.2906 16.0013 16.9293 16.2284 17.5097C16.4554 18.0901 16.8399 18.5862 17.3333 18.9353Z" fill="#9A4C9D"/>
<path d="M25.6397 19.4086C25.4711 19.2823 25.3623 19.0986 25.3383 18.8965C25.3143 18.6947 25.3773 18.4928 25.5123 18.3349C25.6478 18.1767 25.8442 18.0757 26.059 18.0535C26.2733 18.0313 26.4885 18.0895 26.6572 18.2159L27.7181 19.0102C28.0971 18.6476 28.4716 18.2826 28.8477 17.916C29.4204 17.358 29.9976 16.7955 30.6026 16.2294C30.7137 16.1232 30.8545 16.0502 31.0073 16.0183V16.0044L31.1616 16.0003C31.4956 15.9914 31.8027 16.1742 31.9348 16.4636C32.0664 16.7527 31.9948 17.0877 31.7557 17.3075C31.1841 17.8424 30.6359 18.379 30.0831 18.92L30.0735 18.9294C29.5177 19.4734 28.9571 20.0219 28.3656 20.5754C28.0726 20.8511 27.6054 20.8756 27.2805 20.6344L25.6397 19.4086Z" fill="#9A4C9D"/>
</g>
<path d="M25.6394 19.4086C25.4708 19.2823 25.362 19.0986 25.338 18.8965C25.314 18.6947 25.377 18.4928 25.512 18.3349C25.6475 18.1767 25.8439 18.0757 26.0587 18.0535C26.273 18.0313 26.4881 18.0895 26.6569 18.2159L27.7178 19.0102C28.0967 18.6476 28.4713 18.2826 28.8474 17.916C29.4201 17.358 29.9973 16.7955 30.6023 16.2294C30.7134 16.1232 30.8542 16.0502 31.007 16.0183V16.0044L31.1613 16.0003C31.4953 15.9914 31.8024 16.1742 31.9345 16.4636C32.0661 16.7527 31.9945 17.0877 31.7554 17.3075C31.1838 17.8424 30.6356 18.379 30.0828 18.92L30.0732 18.9294C29.5174 19.4734 28.9568 20.0219 28.3653 20.5754C28.0723 20.8511 27.6051 20.8756 27.2802 20.6344L25.6394 19.4086Z" fill="white"/>
</svg>
