<svg width="160" height="160" viewBox="0 0 160 160" fill="none" xmlns="http://www.w3.org/2000/svg">
<g style="mix-blend-mode:multiply">
<rect width="160" height="160" rx="80" fill="url(#paint0_linear)"/>
</g>
<g style="mix-blend-mode:multiply">
<path d="M78.5084 35.8128C79.4698 35.4698 80.5293 35.4698 81.4908 35.8128L115.466 47.9341C117.124 48.5255 118.222 50.033 118.222 51.7173V80.0003C118.222 93.9254 108.531 105.052 99.7838 112.334C95.3208 116.049 90.8779 118.953 87.5591 120.927C85.8952 121.916 84.5027 122.678 83.5163 123.198C83.0228 123.458 82.6302 123.657 82.3552 123.795C82.2177 123.863 82.1095 123.916 82.0328 123.954L81.9415 123.998L81.914 124.011L81.9049 124.016C81.9035 124.016 81.8988 124.018 79.9996 120.405C78.1003 124.018 78.099 124.018 78.0977 124.017L78.0851 124.011L78.0576 123.998L77.9663 123.954C77.8896 123.916 77.7814 123.863 77.6439 123.795C77.3689 123.657 76.9763 123.458 76.4828 123.198C75.4965 122.678 74.1039 121.916 72.4401 120.927C69.1213 118.953 64.6783 116.049 60.2153 112.334C51.4677 105.052 41.7773 93.9254 41.7773 80.0003V51.7173C41.7773 50.033 42.8755 48.5255 44.5331 47.9341L78.5084 35.8128ZM79.9996 120.405L78.0977 124.017C79.2933 124.586 80.7032 124.587 81.8988 124.018L79.9996 120.405ZM79.9996 115.81C80.8134 115.371 81.8542 114.79 83.0574 114.074C86.1089 112.26 90.1598 109.608 94.1906 106.253C102.431 99.3932 109.728 90.3178 109.728 80.0003V54.5173L79.9996 43.9112L50.2712 54.5173V80.0003C50.2712 90.3178 57.5684 99.3932 65.8085 106.253C69.8393 109.608 73.8902 112.26 76.9418 114.074C78.1449 114.79 79.1857 115.371 79.9996 115.81Z" fill="#7874D2"/>
<path d="M96.4344 68.4249C97.1715 69.1532 97.1715 70.3339 96.4344 71.0621L75.6717 91.5751C74.9346 92.3034 73.7395 92.3034 73.0023 91.5751L63.5648 82.251C62.8276 81.5228 62.8276 80.342 63.5648 79.6138C64.3019 78.8855 65.497 78.8855 66.2341 79.6138L74.337 87.6192L93.765 68.4249C94.5021 67.6966 95.6973 67.6966 96.4344 68.4249Z" fill="#7874D2"/>
<path d="M92.2355 67.0236C93.8078 65.4701 96.3916 65.4701 97.9639 67.0236C99.4929 68.5342 99.4929 70.9529 97.964 72.4634L77.2013 92.9764C75.6289 94.5299 73.0451 94.5299 71.4728 92.9764L62.0352 83.6523C60.5062 82.1418 60.5062 79.7231 62.0352 78.2125C63.6076 76.659 66.1913 76.659 67.7637 78.2125L74.337 84.7068L92.2355 67.0236ZM74.7158 89.6071C74.5917 89.6285 74.4649 89.6395 74.337 89.6395C74.2091 89.6395 74.0824 89.6285 73.9583 89.6071L74.337 89.9813L74.7158 89.6071Z" fill="#7874D2"/>
</g>
<path d="M96.4346 68.4249C97.1717 69.1532 97.1717 70.3339 96.4346 71.0622L75.6719 91.5751C74.9348 92.3034 73.7397 92.3034 73.0026 91.5751L63.565 82.2511C62.8279 81.5228 62.8279 80.3421 63.565 79.6138C64.3021 78.8856 65.4972 78.8856 66.2343 79.6138L74.3372 87.6193L93.7652 68.4249C94.5024 67.6967 95.6975 67.6967 96.4346 68.4249Z" fill="white"/>
<path d="M92.2357 67.0236C93.8081 65.4702 96.3918 65.4702 97.9642 67.0236C99.4931 68.5342 99.4931 70.9529 97.9642 72.4635L77.2015 92.9764C75.6291 94.5299 73.0454 94.5299 71.473 92.9764L62.0354 83.6524C60.5064 82.1418 60.5064 79.7231 62.0354 78.2125C63.6078 76.659 66.1915 76.659 67.7639 78.2125L74.3372 84.7068L92.2357 67.0236ZM74.716 89.6071C74.5919 89.6285 74.4652 89.6395 74.3372 89.6395C74.2093 89.6395 74.0826 89.6285 73.9585 89.6071L74.3372 89.9813L74.716 89.6071Z" fill="white"/>
<defs>
<linearGradient id="paint0_linear" x1="-4.50388e-06" y1="160" x2="156" y2="4" gradientUnits="userSpaceOnUse">
<stop stop-color="#B153A0"/>
<stop offset="1" stop-color="#607CE2"/>
</linearGradient>
</defs>
</svg>
