<svg width="40" height="40" viewBox="0 0 40 40" fill="none" xmlns="http://www.w3.org/2000/svg">
<ellipse cx="20" cy="20" rx="20" ry="20" fill="#FF8100"/>
<g style="mix-blend-mode:multiply">
<path d="M29 21C28.7348 21 28.4804 21.1054 28.2929 21.2929C28.1054 21.4804 28 21.7348 28 22V26C28 26.2652 27.8946 26.5196 27.7071 26.7071C27.5196 26.8946 27.2652 27 27 27H13C12.7348 27 12.4804 26.8946 12.2929 26.7071C12.1054 26.5196 12 26.2652 12 26V16.41L17.88 22.3C18.4425 22.8618 19.205 23.1774 20 23.1774C20.795 23.1774 21.5575 22.8618 22.12 22.3L23.76 20.66C23.9483 20.4717 24.0541 20.2163 24.0541 19.95C24.0541 19.6837 23.9483 19.4283 23.76 19.24C23.5717 19.0517 23.3163 18.9459 23.05 18.9459C22.7837 18.9459 22.5283 19.0517 22.34 19.24L20.7 20.88C20.5131 21.0632 20.2618 21.1659 20 21.1659C19.7382 21.1659 19.4869 21.0632 19.3 20.88L13.41 15H20C20.2652 15 20.5196 14.8946 20.7071 14.7071C20.8946 14.5196 21 14.2652 21 14C21 13.7348 20.8946 13.4804 20.7071 13.2929C20.5196 13.1054 20.2652 13 20 13H13C12.2044 13 11.4413 13.3161 10.8787 13.8787C10.3161 14.4413 10 15.2044 10 16V26C10 26.7957 10.3161 27.5587 10.8787 28.1213C11.4413 28.6839 12.2044 29 13 29H27C27.7956 29 28.5587 28.6839 29.1213 28.1213C29.6839 27.5587 30 26.7957 30 26V22C30 21.7348 29.8946 21.4804 29.7071 21.2929C29.5196 21.1054 29.2652 21 29 21Z" fill="#F05B89"/>
<path d="M27.1197 9.25658L29.7415 11.9572C29.8234 12.0409 29.8884 12.1405 29.9328 12.2502C29.9772 12.3599 30 12.4776 30 12.5964C30 12.7152 29.9772 12.8329 29.9328 12.9426C29.8884 13.0523 29.8234 13.1519 29.7415 13.2356C29.6603 13.3199 29.5636 13.3869 29.4571 13.4326C29.3506 13.4783 29.2364 13.5019 29.121 13.5019C29.0056 13.5019 28.8914 13.4783 28.7849 13.4326C28.6784 13.3869 28.5818 13.3199 28.5005 13.2356L27.3732 12.0653V17.0975C27.3732 17.3363 27.2811 17.5653 27.1172 17.7341C26.9533 17.9029 26.731 17.9978 26.4993 17.9978C26.2675 17.9978 26.0452 17.9029 25.8813 17.7341C25.7174 17.5653 25.6253 17.3363 25.6253 17.0975V12.0653L24.498 13.2356C24.3334 13.4051 24.1102 13.5003 23.8775 13.5003C23.6448 13.5003 23.4216 13.4051 23.257 13.2356C23.0925 13.0661 23 12.8361 23 12.5964C23 12.3567 23.0925 12.1268 23.257 11.9572L25.8788 9.25658C25.9619 9.17462 26.0599 9.11037 26.1672 9.06753C26.3799 8.97749 26.6186 8.97749 26.8313 9.06753C26.9386 9.11037 27.0366 9.17462 27.1197 9.25658Z" fill="#F05B89"/>
</g>
<path d="M27.1197 9.25658L29.7415 11.9572C29.8234 12.0409 29.8884 12.1405 29.9328 12.2502C29.9772 12.3599 30 12.4776 30 12.5964C30 12.7152 29.9772 12.8329 29.9328 12.9426C29.8884 13.0523 29.8234 13.1519 29.7415 13.2356C29.6603 13.3199 29.5636 13.3869 29.4571 13.4326C29.3506 13.4783 29.2364 13.5019 29.121 13.5019C29.0056 13.5019 28.8914 13.4783 28.7849 13.4326C28.6784 13.3869 28.5818 13.3199 28.5005 13.2356L27.3732 12.0653V17.0975C27.3732 17.3363 27.2811 17.5653 27.1172 17.7341C26.9533 17.9029 26.731 17.9978 26.4993 17.9978C26.2675 17.9978 26.0452 17.9029 25.8813 17.7341C25.7174 17.5653 25.6253 17.3363 25.6253 17.0975V12.0653L24.498 13.2356C24.3334 13.4051 24.1102 13.5003 23.8775 13.5003C23.6448 13.5003 23.4216 13.4051 23.257 13.2356C23.0925 13.0661 23 12.8361 23 12.5964C23 12.3567 23.0925 12.1268 23.257 11.9572L25.8788 9.25658C25.9619 9.17462 26.0599 9.11037 26.1672 9.06753C26.3799 8.97749 26.6186 8.97749 26.8313 9.06753C26.9386 9.11037 27.0366 9.17462 27.1197 9.25658Z" fill="white"/>
</svg>
