 <svg
                    viewBox="0 0 20 20"
                    version="1.1"
                    xmlns="http://www.w3.org/2000/svg"
                  >
                    <g
                      stroke="none"
                      stroke-width="1"
                      fill="none"
                      fill-rule="evenodd"
                    >
                      <g fill="#8d98a1">
                        <path d="M20,3.33355556 C20,1.582 18.4186667,0 16.6666667,0 L3.33333333,0 C1.58133333,0 0,1.582 0,3.33355556 L0,16.6664444 C0,18.418 1.58133333,20 3.33355556,20 L10,20 L10,12.4444444 L7.55555556,12.4444444 L7.55555556,9.11111111 L10,9.11111111 L10,7.81244444 C10,5.57266667 11.6817778,3.55555556 13.75,3.55555556 L16.4444444,3.55555556 L16.4444444,6.88888889 L13.75,6.88888889 C13.4551111,6.88888889 13.1111111,7.24688889 13.1111111,7.78311111 L13.1111111,9.11111111 L16.4444444,9.11111111 L16.4444444,12.4444444 L13.1111111,12.4444444 L13.1111111,20 L16.6666667,20 C18.4186667,20 20,18.418 20,16.6664444 L20,3.33355556 Z"></path>
                      </g>
                    </g>
                  </svg>