<svg width="160" height="160" viewBox="0 0 160 160" fill="none" xmlns="http://www.w3.org/2000/svg">
<g style="mix-blend-mode:multiply">
<rect width="160" height="160" rx="80" fill="url(#paint0_linear)"/>
</g>
<g style="mix-blend-mode:multiply">
<path d="M76.0403 68.1211H91.8787C92.9289 68.1211 93.936 67.7039 94.6786 66.9613C95.4212 66.2188 95.8383 65.2116 95.8383 64.1615C95.8383 63.1113 95.4212 62.1042 94.6786 61.3616C93.936 60.6191 92.9289 60.2019 91.8787 60.2019H83.9595V56.2423C83.9595 55.1922 83.5424 54.185 82.7998 53.4424C82.0572 52.6999 81.0501 52.2827 79.9999 52.2827C78.9498 52.2827 77.9427 52.6999 77.2001 53.4424C76.4575 54.185 76.0403 55.1922 76.0403 56.2423V60.2019C72.8899 60.2019 69.8685 61.4534 67.6408 63.6811C65.4131 65.9088 64.1615 68.9302 64.1615 72.0807C64.1615 75.2311 65.4131 78.2525 67.6408 80.4802C69.8685 82.708 72.8899 83.9595 76.0403 83.9595H83.9595C85.0097 83.9595 86.0168 84.3766 86.7594 85.1192C87.502 85.8618 87.9191 86.8689 87.9191 87.9191C87.9191 88.9692 87.502 89.9763 86.7594 90.7189C86.0168 91.4615 85.0097 91.8787 83.9595 91.8787H68.1212C67.071 91.8787 66.0639 92.2958 65.3213 93.0384C64.5787 93.781 64.1615 94.7881 64.1615 95.8382C64.1615 96.8884 64.5787 97.8955 65.3213 98.6381C66.0639 99.3807 67.071 99.7978 68.1212 99.7978H76.0403V103.757C76.0403 104.808 76.4575 105.815 77.2001 106.557C77.9427 107.3 78.9498 107.717 79.9999 107.717C81.0501 107.717 82.0572 107.3 82.7998 106.557C83.5424 105.815 83.9595 104.808 83.9595 103.757V99.7978C87.11 99.7978 90.1314 98.5463 92.3591 96.3186C94.5868 94.0909 95.8383 91.0695 95.8383 87.9191C95.8383 84.7686 94.5868 81.7472 92.3591 79.5195C90.1314 77.2918 87.11 76.0403 83.9595 76.0403H76.0403C74.9902 76.0403 73.9831 75.6231 73.2405 74.8805C72.4979 74.138 72.0807 73.1308 72.0807 72.0807C72.0807 71.0305 72.4979 70.0234 73.2405 69.2808C73.9831 68.5383 74.9902 68.1211 76.0403 68.1211ZM79.9999 36.4443C71.3855 36.4443 62.9644 38.9988 55.8018 43.7848C48.6391 48.5707 43.0564 55.3732 39.7598 63.3319C36.4632 71.2906 35.6007 80.0482 37.2813 88.4971C38.9619 96.9461 43.1101 104.707 49.2015 110.798C55.2929 116.89 63.0537 121.038 71.5027 122.718C79.9516 124.399 88.7092 123.537 96.6679 120.24C104.627 116.943 111.429 111.361 116.215 104.198C121.001 97.0354 123.556 88.6143 123.556 79.9999C123.556 68.4482 118.967 57.3697 110.798 49.2015C102.63 41.0332 91.5516 36.4443 79.9999 36.4443ZM79.9999 115.636C72.9517 115.636 66.0618 113.546 60.2014 109.63C54.3411 105.715 49.7734 100.149 47.0762 93.6373C44.379 87.1256 43.6733 79.9603 45.0483 73.0476C46.4233 66.1348 49.8174 59.785 54.8012 54.8012C59.785 49.8173 66.1348 46.4233 73.0476 45.0483C79.9604 43.6732 87.1257 44.3789 93.6374 47.0762C100.149 49.7734 105.715 54.341 109.631 60.2014C113.546 66.0617 115.636 72.9517 115.636 79.9999C115.636 89.4512 111.882 98.5155 105.199 105.199C98.5156 111.882 89.4513 115.636 79.9999 115.636Z" fill="#7874D2"/>
</g>
<path d="M76.0409 68.1213H91.8793C92.9294 68.1213 93.9366 67.7042 94.6791 66.9616C95.4217 66.219 95.8389 65.2119 95.8389 64.1617C95.8389 63.1116 95.4217 62.1045 94.6791 61.3619C93.9366 60.6193 92.9294 60.2021 91.8793 60.2021H83.9601V56.2426C83.9601 55.1924 83.5429 54.1853 82.8003 53.4427C82.0578 52.7001 81.0506 52.283 80.0005 52.283C78.9503 52.283 77.9432 52.7001 77.2006 53.4427C76.4581 54.1853 76.0409 55.1924 76.0409 56.2426V60.2021C72.8904 60.2021 69.869 61.4537 67.6413 63.6814C65.4136 65.9091 64.1621 68.9305 64.1621 72.0809C64.1621 75.2314 65.4136 78.2528 67.6413 80.4805C69.869 82.7082 72.8904 83.9597 76.0409 83.9597H83.9601C85.0102 83.9597 86.0174 84.3769 86.7599 85.1195C87.5025 85.862 87.9197 86.8692 87.9197 87.9193C87.9197 88.9695 87.5025 89.9766 86.7599 90.7192C86.0174 91.4617 85.0102 91.8789 83.9601 91.8789H68.1217C67.0716 91.8789 66.0644 92.2961 65.3219 93.0387C64.5793 93.7812 64.1621 94.7884 64.1621 95.8385C64.1621 96.8887 64.5793 97.8958 65.3219 98.6384C66.0644 99.3809 67.0716 99.7981 68.1217 99.7981H76.0409V103.758C76.0409 104.808 76.4581 105.815 77.2006 106.558C77.9432 107.3 78.9503 107.717 80.0005 107.717C81.0506 107.717 82.0578 107.3 82.8003 106.558C83.5429 105.815 83.9601 104.808 83.9601 103.758V99.7981C87.1105 99.7981 90.132 98.5466 92.3597 96.3189C94.5874 94.0912 95.8389 91.0698 95.8389 87.9193C95.8389 84.7689 94.5874 81.7474 92.3597 79.5197C90.132 77.292 87.1105 76.0405 83.9601 76.0405H76.0409C74.9907 76.0405 73.9836 75.6234 73.241 74.8808C72.4985 74.1382 72.0813 73.1311 72.0813 72.0809C72.0813 71.0308 72.4985 70.0236 73.241 69.2811C73.9836 68.5385 74.9907 68.1213 76.0409 68.1213Z" fill="white"/>
<defs>
<linearGradient id="paint0_linear" x1="3.87099e-06" y1="160" x2="148.444" y2="11.5556" gradientUnits="userSpaceOnUse">
<stop stop-color="#F9A854"/>
<stop offset="1" stop-color="#F25A89"/>
</linearGradient>
</defs>
</svg>
