<svg height="48" viewBox="0 0 48 48" width="48" xmlns="http://www.w3.org/2000/svg" xmlns:xlink="http://www.w3.org/1999/xlink"><mask id="a" fill="#fff"><circle cx="24" cy="24" fill="#fff" fill-rule="evenodd" r="24"/></mask><g fill="none" mask="url(#a)"><circle cx="24" cy="24" fill="#ebecff" r="24"/><path d="m18.8249 38.3571c-.9243-.2067-1.9189-.2652-2.8784-.3588-1.4899-.1444-2.7966-1.0921-4.2553-1.2833-.2574-.0351-2.11786-.9204-2.37528-.936.40953.5031 2.35968 2.1802 2.99548 2.5079 1.2208.6318 2.5547 1.0882 3.6273 2.0009.1014.0858.2808.0741.4212.117 2.3324.7332 4.7077 1.0608 7.161 1.1662 1.685.0741 3.3075-.0273 4.9262-.3784.6162-.1326.8268.2418 1.0843.5539 1.7434 2.114 3.951 3.3699 6.6617 3.8067.9478.1521 1.8566.5226 2.8434.4329.7098-.0663 1.3378-.2301 1.3807-1.1194-1.6732-.4524-3.3855-.7605-5.0314-1.3144-.3511-.117-.706-.2106-1.0375-.3783-1.5797-.7879-3.1671-1.5562-4.7311-2.3714-.6436-.3354-1.1116-.9127-1.5056-1.4977-.2535-.3784-.5109-.4876-.9048-.4837-1.5017.0195-2.9994-.2652-4.501-.0936-.3316.0429-3.0306-.1833-3.8809-.3705z" fill="#afb5e5"/><path d="m41.954 30.7787c-.7372.1716-1.2911.5383-1.7825 1.1662-.6748.862-1.4821 1.6382-2.3207 2.348-.8386.7138-1.3378 1.7162-2.2193 2.387-.2223.1677-.4758.5929.0195.9049.4485.2847.3666.4836 1.0726.9985.5929-.7762 1.2871-1.8761 2.4416-2.6405.7333-.7411 1.0297-1.8761 1.4665-2.4143.6631-.7957 1.1428-1.7084 1.3223-2.7498z" fill="#afb5e5"/><path d="m35.3781 43.5524c-.3511-.117-.706-.2106-1.0375-.3783-1.5797-.7879-3.1671-1.5563-4.7311-2.3714-.6436-.3355-1.1116-.9127-1.5056-1.4978-.2535-.3783-.5109-.4875-.9048-.4836-1.5017.0195-2.9994-.1755-4.501-.0039-.3238.0351-1.3495.0156-1.3613.0429-.8775-.039-1.6654-.3198-2.5157-.511-.9243-.2067-1.9189-.2652-2.8784-.3588-1.4899-.1443-2.859-.7138-4.3177-.9088-.2574-.0351-1.82925-.8736-2.31679-1.3105-1.29491-1.1662-1.87216-2.8082-2.43381-4.3762-.60065-1.6732-.52264-3.4869-.49534-5.2654.0078-.3588.0624-2.7302.08971-3.3504.0702-1.4002.12871-2.8355.48364-4.1422.56555-2.1061 1.2286-4.2045 2.2934-6.1625 1.81759-3.32697 4.87539-4.61018 8.29989-5.42925 1.33-.31983 2.7186-.05461 4.0369-.62406 1.1584-.50314 2.5001-.43293 3.7209-.39393 1.2988.039 2.6327.24962 3.9432.49534 1.8878.35883 3.5376 1.1584 5.0861 2.20759 1.3183.89318 2.4494 2.00091 3.5064 3.21001.9868 1.1311 1.6069 2.4533 2.3714 3.6975.6045.9751.8191 2.1179 1.2169 3.1749 1.0063 2.6678 1.3105 5.3824 1.2052 8.1829-.0468 1.291-.1989 2.5664-.6787 3.7794-.7371.1716-1.291.5382-1.7824 1.1662-.6748.862-1.4822 1.6381-2.3207 2.348-.8386.7137-1.3378 1.7161-2.2193 2.387-.2223.1677-.4759.5928.0195.9049.4485.2847.7098.7137 1.1935 1.096 1.2052 1.6264 2.2544 3.1748 3.6546 4.6765.39.4173.6592 1.0492-.0936 1.5055-1.6693-.4446-3.3777-.7489-5.0275-1.3066z" fill="#fefefe"/><path d="m24.7604 31.4561c-1.057-.5226-3.1827-1.2793-3.483-1.4119-2.231-.9907-3.3231-2.1413-5.0549-4.2475-1.0725-1.3066-2.0671-2.8901-2.1997-4.7428-.2263-3.21 1.2247-4.9495 4.6882-4.3606 1.9423.3316 3.7092 1.1623 4.8754 2.898.4056.6045.8776.5421 1.2364.0351.9712-1.3729 2.4221-2.0399 3.8223-2.8434 1.5367-.8775 4.735.6085 5.1173 2.7381.4251 2.3792-2.0165 7.7967-5.7335 10.41-.9673.6825-2.4612 1.3261-3.2685 1.525z" fill="#fd9aae"/></g></svg>