<svg height="48" width="48" xmlns="http://www.w3.org/2000/svg" xmlns:xlink="http://www.w3.org/1999/xlink" role="img"><title>Help Desk Icon</title><defs><circle id="a" cx="24" cy="24" r="24"/><mask id="b" fill="#fff"><use fill="#fff" fill-rule="evenodd" xlink:href="#a"/></mask><mask id="c" fill="#fff"><path d="m0 .137h39.95v41.854h-39.95z" fill="#fff" fill-rule="evenodd"/></mask></defs><g fill="none" fill-rule="evenodd"><use fill="#fef5e2" fill-rule="nonzero" xlink:href="#a"/><g mask="url(#b)"><g transform="translate(5 6)"><path d="m28.689 11.484h.035v-.107h-.035zm.8-.125-.011-.093-.175.042.009.05h.176zm8.984 4.845c-.14-.184.1-.395-.008-.615.195-.234.043-.51.09-.762.006-.033.003-.075.022-.097.17-.203.1-.448.069-.657-.025-.171-.088-.375-.33-.456-.394-.131-.762-.331-1.197-.318-.291.01-.58.007-.893.152l-.225.226c-.036.288-.071.576-.108.863-.034.27-.1.54-.098.809 0 .284-.249.547-.072.83.217.072.467-.098.65.122.37.02.737-.013 1.11.045.141.022.296-.075.47.03.144.086.337.073.52-.172zm-3.431 1.489h-.107c-.319 0-.64-.03-.955.008-.308.037-.609.142-.853.203l-.507-.447-.623.114-.06-.056c-.293.08-.574.128-.829.236-.239.1-.381.364-.608.4l-.089.183a2.31 2.31 0 0 1 -.037-.036l-.075-.065-.188.189.198.406c.311-.27.659-.337.966-.495.304-.157.637-.255.97-.383.122.173.37-.013.533.088l.408.539c.197-.09.356-.213.526-.23.187-.018.363-.05.536-.114.14.194.338-.166.476.05.19-.018.382-.058.57-.05.182.009.36.068.541.101.18.033.36.062.55.094l.27-.27-.493-.358h-.695l-.106-.107h-.32zm-2.662 1.712c-.18.036-.402.019-.53.12-.164.133-.315.01-.472.068-.17.062-.375.03-.577.039l-.14.246c.215.162.43.188.656.17.48-.038.96-.072 1.44-.115.038-.004.072-.062.106-.093l.798.419c.148-.07.398.118.584-.1l.094.087.7-.13c.165-.107.123-.294.085-.466-.178-.05-.335-.113-.497-.13-.087-.009-.18.085-.274.093-.083.008-.191-.08-.253-.051-.14.066-.305-.155-.428.052-.013.021-.154-.027-.232-.054-.248-.084-.494-.174-.74-.262-.106.041-.27-.099-.32.107zm-4.153-8.242c-.125.003-.137.108-.09.165.07.086.169.093.197-.058a26.135 26.135 0 0 1 -.107-.107zm11.393 5.031c-.016.117.026.233-.068.349a.545.545 0 0 0 -.122.359c.018.176.104.345.173.552l-.262.153.265.367-.131.132-.198-.122.099.282c-.027.104-.1.222-.067.29.148.319.16.623-.007.934-.014.027 0 .07-.002.106-.019.223-.037.447-.058.67-.024.24.018.52-.093.708-.125.21.068.474-.166.628.198.097-.02.189-.006.288.017.122.028.255 0 .372-.13.54-.027 1.125-.312 1.636-.028.051-.003.132-.003.249l-1.179-.197-.1.058c-.042-.035-.083-.098-.128-.102-.17-.012-.34-.005-.51-.005-.022-.219-.242-.024-.308-.149l-.041-.168-.183.103c-.137.013-.297-.015-.403.048-.112.067-.23-.11-.307.042-.102-.15-.256-.068-.387-.09-.099-.018-.196-.056-.294-.056-.103 0-.205.043-.308.055-.207.023-.372-.134-.594-.118-.301.023-.607.046-.916-.08-.198-.08-.455 0-.684-.019-.234-.018-.466-.068-.699-.103-.195-.029-.392-.055-.592-.083l-.086.07-.756-.165-.15.071c-.035-.11-.091-.217-.102-.33a27.17 27.17 0 0 1 -.107-1.343c-.017-.344-.18-.671-.111-1.024.003-.014-.007-.032-.014-.047-.147-.312-.121-.659-.192-.986-.046-.213.032-.442-.101-.656-.041-.066.052-.215.09-.348-.026-.05-.093-.122-.096-.197-.015-.309-.03-.61-.099-.92-.106-.477-.1-.976-.217-1.458-.031-.132.05-.291.062-.353-.042-.272-.023-.496-.114-.658-.11-.196-.04-.377-.059-.563-.02-.207-.004-.418-.004-.59l-.162-.163c-.308.025-.64-.065-.946.109-.255-.127-.29-.157-.468-.063a.505.505 0 0 1 -.436.022.257.257 0 0 0 -.112-.017c-.35.05-.688.151-1.045.186-.159.015-.298-.036-.444-.02-.287.032-.573.07-.86.106.036-.074.096-.147.103-.223.021-.255-.047-.522.11-.757-.119-.256.008-.512.01-.767.004-.302.08-.604.13-.905.004-.028.047-.05.063-.067l-.112-.208.176-.177c.136 0 .277.006.418-.002.15-.009.322.062.433-.103.039.035.077.099.117.1.283.009.568-.01.85.009.27.017.537.082.807.099.299.018.6.004.843.004l.368.19c.058-.033.1-.074.146-.08.365-.057.716.044 1.054.148.225.07.417.101.615-.033.086.068.172.135.26.245l-.004-.051-.208.04.01.07c.067-.006.135-.012.202-.06.146-.107.267-.219.462-.08.102.072.305 0 .5-.01l.151.153h1.273l.252.238.243-.134.123.073c.233-.02.357-.041.48-.037.06.002.118.07.18.073.212.01.426-.01.637.008.2.017.397.067.595.103l.08.107.133-.107c.109.036.254.133.32.094.136-.08.301.032.33.002.156-.16.267.043.403.019.126-.023.275-.05.386.09.028.035.136.019.204.007.472-.079.919.138 1.388.117.118-.005.338.078.346.142.037.299.299.23.453.33.029.02.05.05.114.114-.012.13.015.32-.057.457-.072.138.203.283-.037.377.07.423-.265.825-.066 1.257.013.028-.002.078-.019.11-.188.372-.14.772-.145 1.166l-.203.036.008.071z" fill="#f8efbe" mask="url(#c)"/><path d="m9.205 12.34h.035v-.107h-.035zm.425 1.285h.036v-.107h-.036zm.213.963h.036v-.107h-.036zm.426 1.178h.036v-.107h-.036zm-2.609-12.4-.092.011.042.174.05-.008zm2.344 8.207-.012-.093-.173.042.008.05h.177zm2.266 2.351-.036-.183h-.789c-.314.335-.334.687-.094 1.061h.742c.222-.197.4-.417.376-.742-.003-.031-.02-.062-.032-.093zm-4.166-11.432-.106-.107-.089.035.089.072.106.107.202-.036-.007-.07h-.195zm-.639 1.285.089-.035-.089-.072-.088.035zm1.385 7.6c-.226-.086-.057-.262-.1-.395.113.026.227.089.316.063.093-.026.162-.137.246-.217-.247-.245-.43.122-.656-.018v-.449l-.232-.194v-.68l.203-.08-.016-.064h-.294l-.097-.17.066-.066c-.057-.395-.284-.747-.288-1.155.041-.036.08-.095.126-.103.097-.016.2-.005.3-.005a54.5 54.5 0 0 0 .106-.08l-.106-.134-.107.107-.106-.107c-.026-.198-.19-.065-.277-.117-.148-.104.099-.35-.15-.418-.062-.223-.13-.445-.181-.671-.01-.045.048-.105.083-.172l-.216-.42c.007-.51-.141-1.029-.296-1.547-.054-.175-.174-.393-.115-.525.083-.184-.045-.302-.029-.456.024-.223.12-.414.187-.62.026-.08.032-.166.043-.227.128-.1.235-.235.37-.275.128-.039.274.002.284-.195.204-.024.344-.286.589-.164.343-.17.712-.259 1.083-.339.44-.095.877-.21 1.323-.266.205-.026.393-.067.58-.147a1.97 1.97 0 0 1 .325-.113c.421-.1.84-.213 1.267-.278.223-.033.438-.041.602-.21.178-.061.366.042.55-.105.13-.102.376.068.533-.12.093-.111.157.202.301.03.054-.065.233-.015.352-.036.05-.01.092-.067.138-.103h.426l.305.148c.06.284.232.58.231.925 0 .079.062.156.07.236.027.235.14.443.154.69.016.291.142.576.225.863.014.046.077.085.076.127-.007.277-.008.55.15.773l-.193.19c-.76.003-1.462.332-2.206.444-.088.013-.162.122-.24.184-.283.043-.605.015-.843.145-.557.304-1.22.302-1.775.657 0 .334-.055.681.014 1.001.086.398.017.807.109 1.184.14.582.176 1.19.405 1.751.012.03-.04.088-.07.149l.394.942c0 .094-.023.276.007.448.025.14.118.27.174.406.058.14-.005.286.012.435.036.327.134.622.268.91.14.302.173.632.27.946.004.016-.047.05-.083.086a.925.925 0 0 1 .195.752c.249.152.252.429.322.664.059.199.06.415.22.573-.05.068-.089.178-.153.196-.208.06-.424.101-.64.121-.252.023-.5.03-.754.093-.242.058-.477.149-.717.192-.328.06-.65.123-.959.252-.064.026-.079-.147-.2-.05-.095.077-.242.087-.385.132l-.425-.435c-.169-.488-.151-1.044-.426-1.532a9.09 9.09 0 0 1 .051-.068c-.225-.479-.302-1-.294-1.547l-.19-.05c.029-.058.073-.113.083-.174.015-.086.004-.177.004-.3-.065-.048-.15-.111-.213-.16 0-.198.014-.359-.004-.516-.017-.147-.067-.29-.102-.436l.202-.036-.008-.07z" fill="#2c3959" mask="url(#c)"/><path d="m18.645 29.575c-.046.686-.15 1.369-.11 2.06.002.04-.055.083-.104.152l.27.19c-.372.14.043.413-.163.568.048.234-.104.495.094.71-.164.195-.061.43-.095.645-.034.217.106.463-.124.67l.24.19c-.123.332-.192.632-.032.961.06.124.044.321-.007.458-.149.396-.064.79-.043 1.186.001.026.047.05.067.07-.157.221-.113.455-.06.692.03.13.077.273.05.395-.108.48-.113.477-.001.94.028.117.028.247.015.367-.023.2-.094.399-.096.598-.001.181.08.361.095.544.018.213.004.428.004.65l-.285.264c-.276 0-.577-.012-.877.004-.288.015-.593-.092-.858.102-.093-.036-.187-.106-.276-.1-.45.03-.91-.098-1.35.074-.216-.211-.471.033-.714-.067-.167-.069-.384-.013-.615-.013l-.359-.491c.126-.348-.3-.709.015-1.08-.011-.15-.216-.282-.06-.462.09-.105-.165-.204.006-.341.124-.1-.03-.248-.037-.359-.017-.282-.115-.592.067-.86l-.104-.156.129-.195c-.088-.177-.195-.358-.052-.565.015-.02-.016-.073-.024-.11-.076-.363-.028-1.273.062-1.761.022-.119-.055-.256-.091-.402l.1-.15c-.137-.29-.177-.582-.021-.84l-.086-.47c.066-.013.144-.007.195-.042.139-.095.247-.222.401-.312.25-.147.45-.382.712-.616h.135l.42-.422h.154l.865-.648c.009-.013.049-.144.124-.168.344-.113.54-.413.817-.604.561-.388 1.11-.788 1.607-1.256" fill="#f5c83e" mask="url(#c)"/><path d="m21.2 27.077h.107v-.036h-.107zm-2.555 2.498c-.498.468-1.046.868-1.607 1.256-.276.191-.473.491-.818.604-.074.024-.114.155-.123.168l-.865.648h-.154l-.42.422h-.135c-.262.234-.461.469-.712.616-.154.09-.262.217-.401.312-.051.035-.13.029-.195.041.011-.529.022-1.058.038-1.587 0-.025.042-.05.064-.074l-.124-.137.143-.227c-.036-.06-.12-.134-.113-.2.018-.2-.087-.415.08-.608.039-.046-.008-.195-.05-.28-.073-.148-.059-.263.049-.35-.031-.086-.083-.162-.083-.24-.006-.872-.001-1.744-.007-2.616 0-.148.128-.282.01-.45-.07-.1.156-.25 0-.395-.017-.016.064-.14.103-.222-.188-.224-.086-.495-.11-.749h8.092l.106.107c.014.216-.056.447.106.639a1.045 1.045 0 0 0 -.02.924l-.086.15c-.025.043-.044.09-.075.128-.364.444-.874.704-1.318 1.045-.114.087-.157.307-.34.232-.12.145-.212.29-.336.399-.109.096-.252.155-.38.23v-.682l-.32.163v.733z" fill="#2a3452" mask="url(#c)"/><path d="m27.163 10.699h.106v-.036h-.106zm3.726.678-.258-.203c-.198.134-.39.103-.615.033-.338-.104-.69-.205-1.054-.149-.047.007-.088.048-.146.081l-.368-.19c-.243 0-.544.014-.843-.004-.27-.017-.537-.082-.807-.1-.282-.017-.567 0-.85-.008-.04-.001-.078-.065-.117-.1-.111.165-.283.094-.433.103-.14.008-.282.002-.418.002l-.176.177.112.208c-.016.017-.059.039-.064.067-.05.301-.125.603-.128.905-.003.255-.13.511-.01.767-.158.235-.09.502-.111.757-.007.076-.067.149-.102.223-.411-.016-.8.095-1.187.214-.301-.166-.669-.144-1.06-.008.021-.115.029-.213.057-.303.05-.157.13-.306.163-.466.099-.473.204-.941.473-1.353.218-.333.353-.71.579-1.045.225-.335.619-.552.7-.987.005-.03.043-.061.073-.075.462-.203.708-.686 1.16-.901.036-.042.094-.08.102-.127.016-.098.005-.2.005-.301l.165-.201c.045-.004.171.021.205-.024.163-.219.437-.247.633-.406.186-.15.439-.14.654-.207.455-.142.908-.324 1.393-.36.014 0 .025-.056.037-.087.089 0 .18.014.265-.004.061-.013.157-.105.164-.097.165.187.377-.15.533.051.379-.082.698.15 1.05.212.37.067.72.239 1.087.325.832.197 1.473.693 2.101 1.242.258.225.435.546.768.685.369.54.838 1.013 1.09 1.632l.182.062v.281l-.106.107c-.198-.036-.395-.086-.595-.103-.211-.018-.425.002-.638-.008-.06-.002-.119-.071-.18-.073-.122-.004-.246.017-.48.037.029.016-.042-.026-.122-.073l-.243.134-.252-.238h-1.273l-.152-.153c-.194.01-.397.082-.499.01-.195-.139-.316-.027-.464.04z" fill="#2c3959" mask="url(#c)"/><path d="m19.497 39.708h.106v-.035h-.106zm.035-.713h.036v-.107h-.036zm1.668-5.816h.107v-.036h-.107zm-1.57 8.385h.053v-.321h-.053v.32zm-.666-12.203c.128-.075.271-.134.38-.23.124-.11.217-.254.337-.399.182.075.225-.145.339-.232.444-.341.954-.601 1.318-1.045.03-.038.05-.085.075-.128.136.01.116.093.085.183-.124.357-.118.652 0 .897l-.167.625c.022.11.074.257.078.405.011.445.004.891.004 1.337 0 .25.033.505-.009.747-.042.245.12.466.017.719-.088.217.102.493-.11.703.222.284.07.611.096.917.027.319.03.644-.002.961-.02.196.247.33.049.578-.106.132-.022.409-.045.618-.014.13-.125.275-.091.38.103.318.076.645.124.965.005.028.048.05.067.07l-.18.326c.022.035.077.083.08.133.01.178-.042.374.017.53.064.17-.017.302-.014.451.004.143-.03.295.01.425.038.126.063.215 0 .347-.047.102-.009.245-.009.37 0 .142-.007.286.001.428.03.504.02.56-.207.958-.707.298-1.477.235-2.24.396.128-.286.154-.526.046-.772l.028-.554c.059-.173.056-.337-.08-.482.036-.09.127-.205.1-.269-.097-.23.032-.443.014-.665-.019-.23-.004-.463-.004-.695 0-.25.01-.5-.004-.748-.01-.166.036-.327-.089-.501-.108-.152.019-.384.048-.574.086-.562.036-1.121.021-1.682 0-.04-.06-.078-.088-.113.162-.344.168-1.536.006-1.846.166-.383.14-.763.02-1.228 0 0 .08-.07.08-.14-.007-.402-.039-.804-.047-1.206-.003-.156.105-.364.037-.459-.122-.171-.068-.335-.09-.501z" fill="#f8efbe" mask="url(#c)"/><path d="m30.499 23.794h.035v-.107h-.034v.107zm-.462-.535.15-.07.756.164.086-.07c.2.028.397.054.592.083.233.035.465.085.7.103.228.018.485-.061.683.02.31.125.615.102.916.08.222-.017.387.14.594.117.103-.012.205-.054.308-.055.098 0 .195.038.294.056.13.022.285-.06.387.09.077-.153.195.025.307-.042.106-.063.266-.035.403-.048l-.246.214h.778c.17 0 .34-.007.51.005.045.004.086.067.129.102-.013.102-.02.205-.04.305-.012.064-.068.126-.062.185.016.166.19.341.09.483-.116.165.04.27.012.4-.007.033-.016.065-.032.126h-12v-.214c.184.058.317-.105.488-.11.154-.003.307-.03.46-.04.113-.006.231.02.338-.007.129-.032.247-.105.372-.156.006-.003.024.022.036.035.121.127.174-.109.306-.052a.536.536 0 0 0 .366.003c.472-.177.958-.224 1.456-.21.368.01.682-.14.97-.35 0-.213.014-.41-.004-.603-.017-.183-.067-.363-.103-.544z" fill="#2c3959" mask="url(#c)"/><path d="m35.787 11.805.106-.107.107.107-.133.107a31.233 31.233 0 0 1 -.08-.107" fill="#9c9d95" mask="url(#c)"/><path d="m39.62 16.194h-.195l-.007-.07.202-.037z" fill="#faf2ca" mask="url(#c)"/><path d="m21.546 25.293h.053v-.214h-.053zm1.823-2.687c.148 0 .298.06.433-.082.125-.134.24.11.4.033.131-.062.304-.04.458-.046.159-.006.362.06.468-.015.167-.12.27.043.398.013.145-.033.288-.076.434-.105.141-.027.285-.042.427-.062l.23.08v-.515a49.855 49.855 0 0 0 -.147-.147c-.176 0-.39-.063-.52.016-.179.108-.298.123-.447-.006-.136.171-.353.027-.483.108-.166.104-.325.092-.493.096-.175.004-.35 0-.452 0l-.453.232-.074-.068c-.089.094-.176.187-.26.274zm1.312-1.694c.176.328.176.328.576.517l1.58-.37v-.294l-.254-.29c-.226.066-.472.065-.591.189-.15.156-.37.071-.49.23-.176-.266-.368.138-.553-.024l-.377-.502c-.214.092-.293.094-.466.026-.156.1-.301.22-.468.292-.454.193-.753.392-1.086.779l.18.307c.095-.095.149-.175.223-.215.055-.03.138-.006.252-.006.069-.32.411-.286.628-.447.234-.172.523-.233.846-.192zm.778-3.005c.005.18.01.359.013.535h.2c.324-.011.629-.152.966-.115.332.036.671.008.965.008l.299-.155c-.194-.203-.1-.403-.016-.562-.05-.249-.1-.458-.131-.67a6.481 6.481 0 0 1 -.058-.618c-.012-.224-.009-.45-.012-.671h-1.319c-.142 0-.345-.06-.412.012-.152.16-.239-.065-.35-.011-.089.043-.175.092-.251.132v1.153h-1.127l-.215.246.33.18h1.012v.388c-.226.141-.416-.19-.597.007l-.167-.087-.234.182.55.113c.133-.167.36-.024.554-.067zm-.106 7.386c-.143.123-.315.108-.486.108-1.131-.002-2.262-.001-3.393-.001-.154-.055.057-.303-.167-.321 0-.303.01-.606-.004-.908-.008-.168.045-.335-.053-.513-.043-.078.105-.24-.045-.374-.123-.11.15-.232.016-.4-.07-.088-.026-.274-.016-.414.003-.042.063-.08.097-.12-.145-.094-.091-.245-.103-.38-.013-.149.146-.297.001-.445.173-.13-.07-.282.007-.388.121-.166-.026-.3-.008-.45.018-.136-.005-.288.048-.407.072-.162-.123-.257-.053-.415.052-.118-.055-.285.094-.388-.159-.215-.075-.463-.082-.696-.004-.11.051-.22.092-.38l-.076-.103c.03-.214.055-.413.085-.612.033-.217.085-.433.102-.65.018-.23-.045-.478.016-.692.087-.301.123-.606.155-.912.035-.33-.022-.68.062-.993.074-.273.069-.559.179-.83.057-.143.145-.25.236-.369l-.246-.092.353-.278c0-.163-.033-.283.006-.372.162-.378.33-.755.527-1.115.098-.18.26-.325.383-.474l-.087-.307 1.28-1.27c.045-.026.192.045.302-.103.186-.251.48-.352.778-.421.159.009.09.133.106.214-.452.215-.698.698-1.16.901-.03.014-.068.046-.073.075-.081.435-.475.652-.7.987-.226.336-.361.712-.58 1.045-.268.412-.373.88-.472 1.353-.033.16-.114.309-.163.466-.028.09-.036.188-.056.303.39-.136.758-.158 1.059.008.387-.119.776-.23 1.187-.214.286-.036.572-.074.859-.106.146-.016.285.035.444.02.357-.035.695-.136 1.045-.186a.257.257 0 0 1 .112.017c.149.05.28.061.436-.022.178-.094.213-.064.468.063.306-.174.638-.084.946-.109l.162.163c0 .172-.016.383.004.59.018.186-.05.367.059.563.09.162.072.386.114.658-.013.062-.093.221-.062.353.118.482.11.981.217 1.459.07.309.084.61.099.919.003.075.07.147.096.197-.038.133-.131.282-.09.348.133.214.055.443.101.656.071.327.045.674.192.986.007.015.017.033.014.047-.07.353.094.68.11 1.024.023.448.063.896.108 1.343.01.113.067.22.102.33.036.181.086.361.103.544.018.194.004.39.004.603-.288.21-.602.36-.97.35-.498-.014-.984.033-1.456.21a.536.536 0 0 1 -.366-.003c-.132-.057-.185.18-.306.052-.012-.013-.03-.038-.036-.035-.125.051-.243.124-.372.156-.107.026-.225 0-.337.008-.154.01-.307.036-.46.04-.172.004-.305.167-.488.109z" fill="#fefefe" mask="url(#c)"/><path d="m8.21 7.63.107.107h.107v.108c-.1 0-.203-.012-.3.004-.047.008-.084.067-.126.103-.132-.008-.131-.1-.086-.175.063-.105.159-.181.299-.147" fill="#8c8050" mask="url(#c)"/><path d="m8.317 9.343h.294l.016.064-.203.08v.284c-.036-.042-.095-.08-.102-.126-.016-.099-.005-.201-.005-.302" fill="#736c54" mask="url(#c)"/><path d="m25.46 9.022c-.017-.081.052-.205-.107-.214.07-.072.142-.143.213-.214 0 .1.01.203-.005.301-.008.047-.066.085-.102.127" fill="#807f78" mask="url(#c)"/><path d="m25.762 7.78.186-.228.05.267-.165.032-.07-.07" fill="#f6d05e" mask="url(#c)"/><path d="m20.305 24.94-.225-.14c.258-.02.258-.02.225.14" fill="#f1c63e" mask="url(#c)"/><path d="m16.116 24.65h.053v-.32h-.053z" fill="#d4b143" mask="url(#c)"/><path d="m25.14 7.737c.15.029.143.127.057.2-.056.046-.161.033-.164-.093z" fill="#f6cf5b" mask="url(#c)"/><path d="m8.85 11.377h.194l.008.07-.202.037z" fill="#605e56" mask="url(#c)"/><path d="m18.858 24.972c.025-.149.107-.125.224-.055l-.118.055z" fill="#e9c041" mask="url(#c)"/><path d="m18.112 24.945h.213v-.054h-.213z" fill="#f1c53e" mask="url(#c)"/><path d="m5.674 17.676v-.178l.05-.008.042.174zm5.11 0v-.178l.05-.008.042.174z" fill="#f6ca45" mask="url(#c)"/><path d="m25.14 7.737-.107.107-.153-.061z" fill="#f9dc84" mask="url(#c)"/><path d="m27.27 7.488h.106v-.036h-.107z" fill="#f8d877" mask="url(#c)"/><path d="m24.927 7.488h.106v-.036h-.106z" fill="#f5ca48" mask="url(#c)"/><path d="m27.27 7.488h.106v-.036h-.107v.036zm-1.437.363-.07-.07.185-.229.05.268zm-.636.085c-.056.047-.161.034-.164-.092l-.153-.061.26-.046c.15.029.143.127.057.2zm-.27-.448h.106v-.036h-.106zm-4.224 17.59h.036v-.106h-.036v.107zm-.398-.137-.225-.141c.258-.02.258-.02.225.14zm-1.092.03h.035v-.106h-.035v.107zm-.249 0-.071.09-.035-.09c.025-.148.107-.124.224-.054l-.118.055zm-.852-.026h.213v-.054h-.213zm-1.996-.294h.053v-.321h-.053v.32zm-5.332-6.975v-.178l.05-.008.042.174zm-5.11 0v-.178l.05-.008.041.174zm22.505-10.43c-.247.025-.427.06-.607.06-4.076.004-8.152.003-12.228.003h-2.608l-.147.147v.461l.185.179c.057.792.214 1.545.406 2.269l-.092.197c.23.051.318.245.326.398.017.294.068.577.112.865.049.323.154.612.312.895l.154 1.086c.354.537.205 1.24.495 1.778-.099.147-.291-.027-.314.182-.05.068-.088.178-.152.196-.208.06-.424.101-.64.121-.252.023-.5.03-.754.093-.242.058-.477.149-.717.192-.328.06-.65.123-.959.252-.064.026-.079-.147-.2-.05-.095.077-.242.087-.385.132l-.425-.435c-.169-.488-.151-1.044-.426-1.532l.051-.068c-.225-.479-.302-1-.294-1.547l-.19-.05c.029-.058.073-.113.083-.174.015-.086.004-.177.004-.3-.065-.048-.15-.111-.213-.16 0-.198.014-.359-.004-.516-.017-.147-.067-.29-.102-.436v-.107c-.226-.086-.057-.262-.1-.395.113.026.227.089.316.063.093-.026.162-.137.246-.217-.247-.245-.43.122-.656-.018v-.449l-.232-.194v-.397c-.036-.042-.095-.08-.102-.126-.016-.099-.005-.201-.005-.302l-.097-.17.066-.066c-.057-.395-.284-.747-.288-1.155-.132-.008-.131-.1-.086-.175.063-.105.159-.181.299-.147-.026-.198-.19-.065-.277-.117-.148-.104.099-.35-.15-.418v.371l-.662.264c-.074.008-.235.003-.38.046-.223.067-.45.124-.667.192-.372.117-.72.318-1.104.413-.016.003-.027.02-.04.032-.447.377-.896.754-1.34 1.135-.107.092-.194.21-.303.299-.206.168-.655.695-.784.894-.276.426-.567.841-.878 1.3.065.213-.243.284-.323.473l.088.089-.403.48c.087.199-.18.45-.04.726-.11.228-.132.489-.215.713-.075.203-.06.423-.176.623-.113.198-.094.463-.14.692-.037.188-.011.38-.072.57-.061.195.01.427-.02.637-.029.193-.21.413-.155.557.083.222-.072.365-.059.55.008.107-.063.22-.099.33.04.053.08.106.089.12-.035.194-.077.339-.085.485a4.95 4.95 0 0 0 0 .695c.02.239-.085.492.072.717-.106.203-.074.422-.075.637-.002.179 0 .357 0 .535v.534c0 .196-.007.393.001.588.007.157.098.348.037.46-.11.205.06.32.072.472l-.121.16c.196.264.09.552.114.823-.224.096.11.242-.036.386-.057.057.047.278.075.414h21.152v-.428c0-.303.01-.606-.004-.908-.008-.168.045-.335-.053-.513-.043-.078.105-.24-.045-.374-.123-.11.15-.232.016-.4-.07-.088-.026-.274-.016-.414.003-.042.063-.08.097-.12-.145-.094-.091-.245-.103-.38-.013-.149.146-.297.001-.445.173-.13-.07-.282.007-.388.121-.166-.026-.3-.008-.45.018-.136-.005-.288.048-.407.072-.162-.123-.257-.053-.415.052-.118-.055-.285.094-.388-.159-.215-.075-.463-.082-.696-.004-.11.051-.22.092-.38l-.076-.103c.03-.214.055-.413.085-.612.033-.217.085-.433.102-.65.018-.23-.045-.478.016-.692.087-.301.123-.606.155-.912.035-.33-.022-.68.062-.993.074-.273.069-.559.179-.83.057-.143.145-.25.236-.369l-.246-.092.353-.278c0-.163-.033-.283.006-.372.162-.378.33-.755.527-1.115.098-.18.26-.325.383-.474l-.087-.307 1.28-1.27c.045-.026.192.045.302-.103.186-.251.48-.352.778-.421.07-.072.142-.143.213-.214l.165-.201c.045-.004.171.021.205-.024.163-.219.437-.247.633-.406.186-.15.439-.14.654-.207.455-.142.908-.324 1.393-.36.014 0 .025-.056.037-.087-.186-.004-.383.046-.474-.064z" fill="#f5c83e" mask="url(#c)"/><path d="m19.213 24.972h.035v-.107h-.035z" fill="#e3bb42" mask="url(#c)"/><path d="m18.858 24.972h.106l-.071.088a23.88 23.88 0 0 1 -.035-.088" fill="#c4a546" mask="url(#c)"/><path d="m20.703 25.079h.036v-.107h-.036z" fill="#ecc240" mask="url(#c)"/><path d="m38.473 16.204c-.183.245-.376.258-.52.172-.175-.105-.33-.008-.47-.03-.373-.058-.74-.025-1.11-.045-.183-.22-.433-.05-.65-.122-.177-.283.073-.546.072-.83-.001-.27.064-.54.098-.81.037-.286.072-.574.108-.862l.225-.226c.313-.145.602-.143.893-.152.435-.013.803.187 1.197.318.242.08.305.285.33.457.03.208.1.453-.069.656-.019.022-.016.064-.022.097-.047.252.104.528-.09.762.109.22-.131.431.008.615" fill="#fefefe" mask="url(#c)"/><path d="m35.467 17.8h.695l.493.358-.269.27c-.19-.032-.371-.06-.55-.094-.181-.033-.36-.092-.541-.1-.19-.009-.38.03-.571.049-.138-.216-.336.144-.476-.05-.173.064-.35.096-.536.115-.17.016-.329.138-.526.229l-.408-.54c-.162-.1-.41.086-.533-.087-.333.128-.666.226-.97.383-.308.158-.655.224-.966.495a613.63 613.63 0 0 1 -.198-.407l.188-.188.075.065.037.036.089-.183c.227-.035.37-.3.608-.4.255-.108.536-.155.83-.236l.059.056.623-.114.507.447c.244-.06.545-.166.853-.203.314-.038.636-.008.955-.008l.036.203.07-.007v-.196h.32l-.088.19.044.04z" fill="#2f3c5a" mask="url(#c)"/><path d="m32.7 19.298c.246.088.492.178.74.262.078.027.22.075.232.054.123-.207.288.014.428-.052.062-.03.17.059.253.051.094-.008.187-.101.274-.093.162.017.319.08.497.13.038.172.08.359-.085.466l-.7.13-.094-.087c-.186.218-.436.03-.584.1l-.798-.419c-.034.031-.068.09-.107.093-.48.043-.96.077-1.44.115-.225.018-.44-.008-.656-.17l.14-.246c.203-.01.408.024.578-.04.157-.057.308.066.473-.066.127-.102.349-.085.529-.12l.176.097.143-.205" fill="#303d5b" mask="url(#c)"/><path d="m36.745 23.901h-.778l.246-.214.183-.103.04.168c.067.125.287-.07.309.15" fill="#97988f" mask="url(#c)"/><path d="m32.7 19.298-.144.205-.176-.098c.05-.206.214-.066.32-.107" fill="#8b8d88" mask="url(#c)"/><path d="m35.467 17.8-.15.123-.044-.04.088-.19z" fill="#565f6d" mask="url(#c)"/><path d="m28.334 11.27c-.028.151-.126.144-.198.058-.046-.057-.034-.162.091-.165z" fill="#d4ceab" mask="url(#c)"/><path d="m30.892 11.46-.204.018-.009-.07.208-.04z" fill="#4b5468" mask="url(#c)"/><path d="m29.488 11.359h-.176l-.009-.051.175-.042z" fill="#eee6b9" mask="url(#c)"/><path d="m35.042 17.693v.196l-.071.007-.036-.203z" fill="#3d4760" mask="url(#c)"/><path d="m28.334 11.27-.107-.107z" fill="#878986" mask="url(#c)"/><path d="m28.689 11.484h.035v-.107h-.035z" fill="#eae2b7" mask="url(#c)"/><path d="m12.27 13.924.167.043c.011.031.03.062.032.093.025.325-.154.545-.375.742h-.743c-.24-.374-.22-.726.094-1.061h.789z" fill="#fcfcfd" mask="url(#c)"/><path d="m10.004 11.573h-.177a5.65 5.65 0 0 0 -.008-.051l.173-.042z" fill="#353e59" mask="url(#c)"/><path d="m7.66 3.366v.177a5.565 5.565 0 0 0 -.05.008l-.042-.174z" fill="#303d5c" mask="url(#c)"/><path d="m8.424 7.844v-.214c.035.045.07.09.106.133-.035.028-.07.055-.106.081" fill="#9f8b4e" mask="url(#c)"/><path d="m8.424 7.63v.107h-.107z" fill="#a7914e" mask="url(#c)"/><path d="m7.465 3.67.089.071-.089.036z" fill="#757e92" mask="url(#c)"/><path d="m7.465 3.67v.107l-.088-.072z" fill="#9ca2b1" mask="url(#c)"/><path d="m10.27 15.766h.035v-.107h-.036z" fill="#404858" mask="url(#c)"/><path d="m9.843 14.588h.036v-.107h-.036z" fill="#394259" mask="url(#c)"/><path d="m9.63 13.625h.036v-.107h-.036z" fill="#c1a449" mask="url(#c)"/><path d="m9.205 12.34h.035v-.107h-.035z" fill="#636155" mask="url(#c)"/><path d="m21.2 27.077h.107v-.036h-.107z" fill="#555d74" mask="url(#c)"/><path d="m27.163 10.7h.106v-.037h-.106z" fill="#465166" mask="url(#c)"/><path d="m19.63 41.564h.053v-.321h-.053z" fill="#f8e8a6" mask="url(#c)"/><path d="m21.2 33.179h.107v-.036h-.107z" fill="#faf3d5" mask="url(#c)"/><path d="m19.532 38.995h.036v-.107h-.036z" fill="#f8e9ab" mask="url(#c)"/><path d="m19.497 39.708h.106v-.035h-.106z" fill="#f7db7c" mask="url(#c)"/><path d="m30.499 23.794h.035v-.107h-.034z" fill="#323e5e" mask="url(#c)"/><path d="m25.353 16.301v-.509c.076-.04.162-.09.252-.132.11-.054.197.17.349.01.067-.07.27-.011.412-.011h1.319c.003.222 0 .447.012.671.01.207.028.413.058.617.031.213.081.422.131.672-.084.158-.178.358.016.561l-.3.155c-.293 0-.632.028-.964-.008-.337-.037-.642.104-.966.115-.105-.156-.145-.323-.089-.487l.408-.155.358.092.299-.13-.04-.07h-.617l-.033-.086c-.15.119-.328.082-.499.087v-.214c.108-.036.215-.097.325-.103.276-.014.553-.004.814-.004.085-.213-.001-.33-.162-.447h-.977c0-.192.005-.367-.005-.54-.001-.03-.066-.056-.101-.084" fill="#f5c83e" mask="url(#c)"/><path d="m24.68 20.912c-.322-.041-.611.02-.845.192-.217.161-.56.128-.628.447-.114 0-.197-.024-.252.006-.074.04-.128.12-.222.215l-.18-.307c.332-.387.631-.585 1.085-.78.166-.07.312-.192.467-.29.174.067.253.065.467-.027l.376.502c.187.162.378-.242.553.023.12-.158.34-.073.49-.23.12-.122.366-.122.592-.188l.254.29v.295l-1.58.37c-.4-.19-.4-.19-.576-.518m-1.311 1.694-.082-.193.26-.275.074.068.453-.232c.103 0 .277.004.452 0 .168-.004.327.008.493-.096.13-.08.347.063.483-.108.149.129.268.114.447.006.13-.079.344-.016.52-.016l.147.147v.515l-.23-.08c-.142.02-.286.035-.427.062-.146.029-.289.072-.434.105-.129.03-.231-.133-.399-.013-.105.075-.308.009-.467.015-.154.006-.327-.016-.457.046-.162.077-.276-.167-.401-.033-.135.142-.285.081-.433.082" fill="#f2eabd" mask="url(#c)"/><path d="m25.353 16.301c.035.028.1.054.101.083.01.174.005.349.005.541h.977c.161.116.247.234.162.447-.261 0-.538-.01-.814.004-.11.006-.217.067-.325.103l-.106-.107h-1.013l-.33-.18.215-.247h1.127v-.644z" fill="#f2e9ba" mask="url(#c)"/><path d="m25.353 17.372.106.107v.428c-.194.043-.42-.1-.553.067l-.551-.113.234-.182.167.087c.18-.196.371.134.597-.007z" fill="#f3ebc1" mask="url(#c)"/><path d="m25.46 17.907v-.214c.17-.005.347.032.498-.087l.033.087v.107l-.408.155c-.056.164-.016.33.09.487h-.2l-.014-.535" fill="#f2e6af" mask="url(#c)"/><path d="m21.546 25.293h.053v-.214h-.053z" fill="#f2f3f4" mask="url(#c)"/><path d="m25.991 17.8v-.107h.616l.04.07-.298.129z" fill="#f3e3a6" mask="url(#c)"/></g></g></g></svg>