<svg height="48" width="48" xmlns="http://www.w3.org/2000/svg" xmlns:xlink="http://www.w3.org/1999/xlink" role="img"><title>Integrations Icon</title><defs><circle id="a" cx="24" cy="24" r="24"/><mask id="b" fill="#fff"><use fill="#fff" fill-rule="evenodd" xlink:href="#a"/></mask><mask id="c" fill="#fff"><path d="m0 .14h22.865v26.26h-22.865z" fill="#fff" fill-rule="evenodd"/></mask><mask id="d" fill="#fff"><path d="m.122.03h20.865v23.02h-20.865z" fill="#fff" fill-rule="evenodd"/></mask></defs><g fill="none" fill-rule="evenodd"><use fill="#ffedf1" fill-rule="nonzero" xlink:href="#a"/><g mask="url(#b)"><path d="m6.42.14c.06.21.194.31.418.292.732-.059 1.402.212 2.095.384.26.064.574.063.822-.025.243-.086.461-.05.692-.052.117.361.423-.16.557.12.13-.347.392.103.56-.097.18-.213.364.172.612.001.165-.114.467-.055.705-.034.273.024.543.088.813.14.27.053.536.001.828.104.318.112.746.15 1.113-.049.136-.073.936-.046 1.092-.063.323-.037.638.048.982-.08.265-.1.61-.195.954-.075.172.06.408.071.617-.064.175-.113.382-.105.593.022.126.076.356.109.474.044.368-.204.68-.114 1.059-.008.44.123.835.249 1.14.602.031.036.14.005.213.005.045.202-.039.402.08.625.082.154-.05.42-.08.638-.059.437-.06.893-.194 1.305-.061.187-.03.38-.109.535-.091.177-.238.312.008.468-.203.131-.12.339-.147.52-.029.205.086.42-.097.618-.146.16.098.433.06.475-.177.201-.108.422-.091.62.012.136-.256.183-.076.346.043.04.012.16.015.243-.083-.017-.165-.036-.249-.05-.082-.015-.165-.025-.248-.037-.01.115-.058.247-.016.338.042.092.179.138.265.214.058.052.15.134.14.183-.038.174-.076.372-.187.497-.068.077-.268.037-.409.048-.355.026-.697-.003-1.004-.216-.062-.043-.213-.07-.238-.038-.135.172-.312.104-.47.104-.48 0-.893.177-1.27.456-.446.33-.874.674-1.173 1.162-.228.372-.519.706-.758 1.073-.05.077-.004.224.01.337.008.053.079.13.063.15-.274.34-.011.607.104.897.082.209.248.375.249.631 0 .135.113.348.226.39.366.133.533.47.802.698.198.168.385.336.663.337.514.001 1.03.035 1.512-.219.167-.088.395-.207.54-.156.258.093.342-.13.514-.172.03-.007.074.013.1.034.207.163.29.095.31-.147.003-.028.163-.079.174-.064.047.064.096.154.085.225-.016.107-.11.205-.12.31-.024.278-.031.544-.126.822-.064.188-.258.476.058.723.119.093.184.384-.119.559-.161.093-.292.338-.258.593.054.405-.093.771-.217 1.146-.142.429-.245.87-.365 1.306-.128.451-.264.613-.648.57-.306-.035-.532.156-.814.168-.273.012-.58-.128-.82.132-.02.021-.121-.045-.187-.054-.102-.014-.235.025-.303-.027-.171-.13-.247.05-.36.064-.207.027-.449-.113-.635-.053-.242.078-.433.149-.654-.03-.045-.035-.18-.01-.24.034-.158.114-.415.249-.42.383-.01.268-.287.335-.308.534-.027.268-.142.47-.282.69-.125.196-.113.481-.416.54.025.052.059.1.073.155.055.214.046.21-.296.287-.157.036-.125.323-.352.279-.015.114-.084.294-.038.331.225.18.076.298 0 .478-.25.587-.54 1.112-1.149 1.413-.205.101-1.394.666-1.628.67-.185.002-.36.026-.532-.133-.119-.109-.335-.128-.512-.153-.287-.041-1.24-.48-1.467-.683-.192-.171-.398-.326-.598-.488-.035-.028-.106-.067-.101-.081.154-.464-.417-.59-.447-.972-.03-.37-.128-.737-.128-1.105 0-.203-.209-.37-.032-.62.102-.147.024-.425.017-.643-.008-.237.011-.456.135-.675.046-.082-.176-.238-.007-.374-.167-.066-.341-.118-.498-.202-.21-.112-.374.203-.623.022-.132-.097-.403-.052-.59.117-.067.06-.236-.004-.355.013-.2.03-.353-.085-.527-.133-.127-.034-.297.126-.445.12-.224-.01-.443-.1-.668-.132-.205-.03-.398-.002-.605-.133-.198-.126-.485-.158-.73-.15-.204.008-.4-.239-.613-.018-.035.037-.15.028-.21 0a2.08 2.08 0 0 1 -.41-.24c-.111-.087-.208.206-.318-.01-.042-.08-.201-.101-.239-.18-.148-.316-.632-.387-.597-.836.004-.059-.09-.125-.139-.188v-.583c.042-.017.12-.035.119-.052-.004-.26.109-.49.163-.735.048-.223-.046-.498.16-.66.251-.196-.079-.403.081-.659.191-.306.18-.757.198-1.148.023-.468.145-.898.275-1.345.164-.569.361-1.144.331-1.768a3.11 3.11 0 0 1 .167-1.165c.276-.777.226-1.597.394-2.387.062-.29-.012-.596.142-.892.112-.214.137-.486.152-.735.024-.388-.065-.796.027-1.162.085-.333.26-.635.125-.99.212-.256.118-.581.156-.871.057.005.075.004.091.008l.3.081c-.044-.069-.078-.15-.136-.203-.09-.084-.106-.203-.127-.329-.042-.252.174-.446.146-.669-.07-.547.288-.956.412-1.437.052-.203.16-.204.325-.261.216-.074.513-.113.584-.42h2.334z" fill="#f3b5c3" mask="url(#c)" transform="translate(-13 2.756)"/><path d="m42 22.007c-.337-.002-.664.33-.998.084-.296-.218-.67.083-.937-.194-.191-.198-.37.179-.61.003-.144-.105-.417-.03-.631-.04-.093-.004-.26.004-.268-.028-.123-.448-.667-.226-.853-.552-.022-.039-.022-.133 0-.147.118-.069-.003-.288.227-.3.404-.021.761.16 1.144.219.159.024.316.06.475.079.67.079 1.338.18 2.004.296.152.026.298.094.447.143z" fill="#f5c854"/><path d="m17.782 34.554c.288-.183.642-.245.883-.514.168-.187.491.062.641-.208.364.087.676-.166 1.03-.157.114.003.264.007.335-.058.09-.084.129-.233.171-.36.022-.066.004-.145.004-.217 0-.438-.129-.933.035-1.297.173-.383-.065-.82.257-1.134-.107-.412.162-.777.152-1.18-.003-.104.066-.212.11-.315.111-.257.206-.51.184-.803-.008-.124.105-.252.118-.383.019-.175.074-.258.263-.234.141.019.338-.043.42.03.219.198.459.106.686.11.168.004.396-.152.496-.085.215.142.435.143.595.038.214-.14.309.092.491.073.395-.04.76-.215 1.179-.18.36.029.766.155 1.107-.126.029-.024.103-.02.142 0 .496.256 1.03.092 1.544.148.13.014.317.17.367.128.269-.227.615-.035.873-.19.303-.18.518-.11.759.117.121.115.322.2.49.204.648.019 1.298 0 1.947-.006.145-.198.355-.099.537-.109.266-.014.574.08.792-.024.269-.128.462.086.69.022.198-.055.396-.11.597-.144.207-.036.418-.046.627-.072.036-.005.07-.034.104-.053.224.45.57.06.85.122.31.07.625.128.934.207.286.073.552.128.866.113.417-.02.852.145 1.177.47.097.096.103.063.17-.049.193-.325.301-.36.535-.27.397.155.527.333.474.665-.01.065-.058.122-.078.186-.114.351-.26.692-.216 1.08.04.351-.193.662-.156 1.034.034.335-.163.656-.234.986-.068.313-.192.648-.164.943.045.49-.327.594-.586.737-.15.082-.333.124-.478.251-.05.044-.183.053-.24.017-.43-.266-.822-.037-1.18.13-.182.084-.356.178-.555.246-.63.217-1.116.657-1.575 1.125-.034.45-.439.646-.657.97-.347.515-.266 1.08-.1 1.64.025.086.08.166.09.253.017.143-.043.384.02.418.338.185.19.641.503.829.092.055.135.186.212.271.138.152.286.294.43.44.344-.201.212.353.449.288.32-.088.327.458.664.308.205.21.514.198.736.328.338.197.675.283 1.064.228.018.647.072 1.232-.216 1.781a.784.784 0 0 0 -.062.337c-.007.365.016.73-.008 1.093-.022.322-.12.64-.13.961-.008.201-.32.372-.023.623.14.118-.156.357-.003.603.143.23-.069.493-.183.71-.107.203-.147.528-.513.473-.233-.035-.112.224-.232.288s-.248.121-.35.208c-.33.28-.444.288-.739-.08-.084-.105-.077-.1-.178-.042a.566.566 0 0 1 -.337.057c-.2-.026-.463-.189-.58-.112-.187.124-.358.125-.539.113-.322-.022-.66.105-.969-.13-.092-.07-.29.017-.427-.017-.21-.052-.37.187-.623.027-.174-.11-.473-.02-.716-.02-.073 0-.172.03-.214-.006-.157-.135-.326-.22-.504-.088-.195.144-.326-.172-.482-.048-.14.111-.29.045-.433.075-.158.033-.365.118-.476.053-.457-.269-.975-.2-1.396-.097-.505.124-.989.081-1.48.1-.27.01-.58.123-.816-.134-.01-.012-.05-.01-.07 0-.495.22-1.018-.173-1.473.024-.263.113-.437-.183-.614-.02-.224.205-.396.172-.623.008-.06-.043-.24.117-.368.125-.314.02-.631.007-.947.007-.219 0-.512.089-.64-.019-.258-.214-.604-.225-.84-.462-.145-.144-.318-.293-.506-.353a.817.817 0 0 1 -.52-.44c-.062-.143-.345-.344-.032-.534-.09-.051-.24-.088-.257-.158-.04-.159-.08-.371-.007-.497.209-.363.114-.741.13-1.113.007-.17.008-.32.145-.455.112-.11.206-.253.257-.4.013-.038-.227-.133-.238-.217a.768.768 0 0 1 .081-.468c.165-.274.212-.557.2-.868-.009-.239.063-.512-.34-.44-.032.006-.097-.043-.108-.08-.133-.416-.474-.35-.792-.357-.084-.002-.165-.068-.25-.095-.238-.074-.448-.208-.723-.208-.213.001-.3-.342-.61-.294-.16.025-.016-.105.009-.171.007-.019-.068-.099-.104-.098-.352.006-.354.012-.486-.124-.391-.403-.859-.748-1.032-1.322-.078-.26-.152-.52-.24-.776-.018-.05-.093-.079-.142-.117.049-.268.087-.539.15-.804.056-.242.079-.534.177-.714.118-.215.21-.445.33-.659.19-.334.4-.67.662-.947.248-.262.576-.45.87-.67" fill="#f3b5c3"/><path d="m20.862 6.559c-.293.22-.621.407-.87.669-.262.277-.472.612-.66.947-.121.214-.213.444-.331.66-.099.18-.122.47-.178.713-.062.265-.1.536-.15.804-.158.021-.345-.07-.466.103-.112.16-.215.163-.38.054-.065-.043-.228.016-.322.07-.276.16-.546.33-.806.515-.09.064-.199.178-.204.273-.02.37-.268.623-.42.922-.084.162-.203.305-.306.457.347.303-.07.591-.02.895.038.23-.037.483.214.645.047.03.086.122.08.18-.034.357-.002.669.43.76.102.372.444.283.696.397.572.259 1.198.273 1.766.488.176.066.183-.067.272-.068.338-.004.676-.002 1.07-.002-.025.239.07.45-.132.671-.092.102-.02.315.123.434-.15.09-.13.236-.138.381-.016.276.072.56-.129.825-.056.075.086.279.088.424.001.13-.071.26-.1.392-.038.166-.148.402-.079.487.171.209-.003.29-.064.427-.028.06-.036.18 0 .21.26.214-.007.413.004.614.01.203-.153.378-.13.519.027.17.006.305-.005.467-.023.326-.435.463-.339.814-.192.064-.383.18-.576.183-.923.02-1.846.016-2.769.003-.15-.003-.297-.112-.45-.133-.102-.014-.187.217-.327.01-.123-.18-.23.233-.41.042-.04-.042-.228.088-.345.08-.298-.02-.624.113-.888-.137-.013-.012-.048-.006-.072-.001-.247.047-.494.134-.74.134-.248 0-.527-.184-.736-.117-.66.214-1.325.105-1.986.118-.268.005-.584.146-.814-.135-.251.237-.502.208-.753 0-.24.14-.484.228-.74.034-.453.253-.941.069-1.412.104-.459.034-.922-.005-1.383.012-.227.009-.448-.051-.686.115-.128.089-.428-.107-.651-.11-.22-.002-.473.163-.653.097-.174-.064-.273-.154-.416.017-.022.026-.108.038-.131.019-.316-.276-.692-.096-1.036-.139-.192-.023-.389 0-.583-.005-.577-.013-.832-.306-.626-.82.077-.191.071-.36.099-.54.031-.204-.081-.429.126-.613.036-.032-.08-.236-.126-.36.048-.039.145-.097.138-.112-.078-.184.186-.32.033-.552-.11-.166.176-.4.13-.654-.024-.131.066-.28.07-.421.003-.13-.059-.263-.056-.394.003-.1.11-.274.09-.289-.226-.146.007-.249.043-.333.084-.195.132-.383.144-.598.013-.249.142-.498.123-.739-.02-.256.223-.502.014-.753.246-.263.033-.632.166-.874.17-.308.086-.6.126-.896.01-.069 0-.17.039-.198.27-.191-.036-.322-.039-.482.049-.061.132-.12.14-.186.025-.211-.047-.462.043-.632.197-.37.078-.744.1-1.113.01-.175-.18-.09-.283-.111v-.292c.146-.09.367-.149.422-.278.104-.246.127-.531.158-.803.037-.321.025-.634.121-.964.106-.363.28-.754.174-1.164.043-.606.224-1.199.154-1.816-.008-.07.09-.15.138-.227v-.146c.049-.22.12-.44.14-.663.025-.263.006-.53.006-.796l.507-.433c.252.258.484-.068.756-.025.577.091 1.139-.121 1.701-.26.16-.038.316-.202.544-.026.194.15.427-.154.657-.126.581.07.89-.13 1.17-.7.404-.829 1.145-1.423 1.97-1.85.355-.185.723-.362 1.097-.516.124-.052.293-.145.384-.101.243.118.522.016.726.114.448.215.947.284 1.38.553.23.144.418.26.498.53.038.126.117.25.205.35.16.183.34.346.51.52.013.013 0 .047.004.071l.163 1.159c.77-.033 1.551.114 2.333-.07.105-.024.237.085.351.075.423-.036.86.117 1.274-.091.038-.02.171.06.195.12.075.185.139.33.394.279.09-.019.207.074.308.122.101.049.2.154.298.151.37-.01.563.172.668.505.078.25.45.428.157.778-.056.067.143.367.092.413-.152.137.13.319-.094.448-.074.043-.012.32-.012.49" fill="#2a3b58" mask="url(#d)" transform="translate(-3.08 27.995)"/><path d="m7.716 22.59c.12-.435.223-.877.365-1.305.124-.376.271-.742.217-1.147-.034-.255.097-.5.258-.593.303-.175.238-.465.119-.559-.316-.247-.122-.535-.058-.722.095-.279.102-.545.126-.822.01-.106.104-.203.12-.31.011-.072-.038-.162-.085-.225-.011-.015-.171.036-.174.063-.02.242-.103.31-.31.147-.026-.02-.07-.04-.1-.033-.172.042-.256.264-.514.172-.145-.052-.373.068-.54.156-.482.254-.998.22-1.512.218-.278 0-.465-.168-.663-.337-.269-.228-.436-.564-.802-.698-.113-.041-.226-.254-.226-.39-.001-.255-.167-.422-.25-.63-.114-.29-.377-.558-.103-.897.016-.02-.055-.097-.062-.15-.015-.114-.062-.26-.01-.338.238-.367.53-.7.757-1.073.3-.488.727-.832 1.174-1.162.376-.278.788-.456 1.269-.455.158 0 .335.067.47-.105.025-.032.176-.005.238.038.307.213.649.243 1.004.216.14-.01.34.029.409-.048.11-.124.15-.323.187-.497.01-.049-.082-.13-.14-.182-.086-.077-.223-.122-.265-.214-.042-.091.007-.224.016-.338.083.012.166.022.248.036.084.014.166.033.25.05-.004-.083.027-.203-.016-.242-.18-.164.088-.211.076-.347-.017-.198-.086-.418.092-.62.037-.042-.207-.315-.061-.474.183-.2.068-.414.097-.618.026-.182-.056-.39.147-.52-.246-.156-.099-.292-.008-.469.08-.154.048-.348.109-.535.135-.412.135-.868.194-1.305.03-.217.162-.484.08-.638-.119-.222-.035-.423-.08-.625.202-.046.436.104.616-.101.025-.03.099-.056.123-.041.57.356 1.131-.168 1.708-.017.188.05.362-.264.644-.068.112.077.372-.045.575.07.11.062.289.03.43.007.23-.038.441-.081.687-.01.237.069.503-.011.745.149.1.067.284.011.43.011 1.094 0 2.187-.005 3.281.004.203.002.435-.092.61.124.018.022.19-.12.29-.118.102.002.2.124.304.13.493.027.997-.063 1.47.152.865-.112 1.705.189 2.566.148.189-.01 1.328.397 1.576.587.231.177.52.38.555.66.044.354.346.107.411.249.074.162.078.356.113.536.413-.022.111.436.394.57.276.13.064.486.125.734.043.175.185.387.128.515-.157.357-.053.746-.193 1.088-.079.192.163.38-.064.593-.107.1.019.41-.164.577.12.154.024.305.02.463a9.305 9.305 0 0 1 -.272 1.934c-.036.153.062.34.108.508.037.133-.273.257-.006.396.02.01.02.127.002.135-.408.193-.152.526-.123.77.024.194-.267.357-.03.541-.202.162-.12.388-.137.592-.017.206.078.44-.144.598-.011.008 0 .047-.001.07-.049.564-.09 1.128-.15 1.69-.03.298-.112.59-.137.888-.024.29.004.584-.01.875-.005.081-.097.155-.119.24-.044.172-.221.332-.025.53.151.153-.233.272-.045.485.083.095.095.376.017.465-.157.18-.04.392-.127.535-.13.216-.307.398-.326.67-.006.086-.08.164-.096.25-.029.161.022.399-.068.472-.145.118-.375.14-.574.18-.117.024-.269.05-.36-.003-.355-.21-.746-.171-1.107-.12-.265.039-.478-.168-.766-.038-.222.1-.526.02-.793.02h-1.668c-.206-.542-.116-1.153-.465-1.645-.127-.178.11-.42.063-.48-.13-.161-.116-.322-.094-.475.051-.367-.117-.61-.417-.749-.31-.144-.488-.51-.886-.511-.055 0-.104-.144-.164-.213-.052-.058-.155-.16-.17-.15-.41.285-1.002-.013-1.358.427-.61-.077-.931.366-1.308.718-.15.14-.352.226-.498.37a1.942 1.942 0 0 0 -.312.451 6.28 6.28 0 0 0 -.29.609c-.06.145-.1.299-.148.449-.061.193-.07.446-.2.562-.111.1-.363.035-.552.055-.442.044-.883.113-1.325.137-.2.01-.43.091-.61-.114-.046-.05-.195-.05-.276-.02-.453.172-.87.005-1.298-.1-.06-.015-.14.09-.212.09-.442.002-.888.067-1.279-.26-.183-.153-.442-.215-.667-.318" fill="#f7d1da"/><path d="m35.58 12.328c.185.636-.383 1.137-.611 1.748 0 .002-.104-.057-.147-.045-.074.02-.166.06-.202.12-.097.158.06.123.123.12.27-.01.298.056.098.24a.397.397 0 0 0 -.13.233c-.044.631-.51.98-.906 1.372-.126.125-.886.073-1.023-.048-.143-.127-.25-.27.05-.332.188-.04.114-.181.12-.286.013-.194-.14-.145-.25-.153-.139-.01-.227 0-.09-.187.114-.154.125-.381.2-.569.059-.145.167-.272.217-.42.091-.268.552-.17.522-.578-.019-.242.063-.5.138-.738.185-.596.403-1.18 1.132-1.296.167-.027.198-.096.167-.232-.016-.07-.045-.138-.069-.206.066.013.133.023.197.042.374.109.528.354.468.741-.019.119-.003.242-.003.474" fill="#f5c752"/><path d="m38.456 16.61c.242.01.522-.042.778.14.178.127.184.15-.016.3-.316.233-.622.481-.934.721-.072.055-.168.159-.224.142-.401-.117-.677.16-.952.334-.215.136-.408.08-.61.113-.143.023-.37-.086-.334.216-.05 0-.143.007-.145-.004-.07-.334-.361-.085-.54-.176-.176-.09-.378-.145-.525-.3-.15-.157-.135-.273.053-.398.054-.036.135-.032.187-.07.352-.25.926-.03 1.153-.544.41-.113.832-.195 1.191-.452.056-.04.128.197.26.035.044-.054.17-.049.26-.055.121-.009.242-.003.398-.003" fill="#f5c753"/></g></g></svg>