<svg width="160" height="160" viewBox="0 0 160 160" fill="none" xmlns="http://www.w3.org/2000/svg">
<g style="mix-blend-mode:multiply">
<rect width="160" height="160" rx="80" fill="url(#paint0_linear)"/>
</g>
<g style="mix-blend-mode:multiply">
<path d="M106.482 120.889H54.0074C50.5281 120.889 47.1913 119.507 44.7311 117.047C42.2708 114.586 40.8887 111.25 40.8887 107.77V64.0411C40.8887 60.5618 42.2708 57.225 44.7311 54.7647C47.1913 52.3045 50.5281 50.9224 54.0074 50.9224H58.3803C58.4539 47.2169 59.7025 43.6306 61.9461 40.6807C64.1896 37.7308 67.3122 35.5697 70.8634 34.5092C74.4146 33.4487 78.2109 33.5436 81.7047 34.7802C85.1984 36.0167 88.2092 38.3311 90.3026 41.3894C92.2636 44.1843 93.3309 47.5083 93.3636 50.9224H106.482C107.642 50.9224 108.754 51.3831 109.574 52.2032C110.395 53.0232 110.855 54.1355 110.855 55.2953V68.414C114.561 68.4876 118.147 69.7362 121.097 71.9797C124.047 74.2233 126.208 77.3459 127.268 80.8971C128.329 84.4483 128.234 88.2446 126.997 91.7383C125.761 95.2321 123.447 98.2429 120.388 100.336C117.593 102.297 114.269 103.365 110.855 103.397V116.516C110.855 117.676 110.395 118.788 109.574 119.608C108.754 120.428 107.642 120.889 106.482 120.889ZM54.0074 59.6682C52.8476 59.6682 51.7354 60.1289 50.9153 60.949C50.0952 61.7691 49.6345 62.8813 49.6345 64.0411V107.77C49.6345 108.93 50.0952 110.042 50.9153 110.862C51.7354 111.682 52.8476 112.143 54.0074 112.143H102.109V98.2373C102.106 97.5361 102.271 96.8443 102.59 96.2203C102.91 95.5962 103.375 95.0581 103.946 94.6515C104.516 94.2454 105.174 93.9818 105.867 93.8829C106.559 93.784 107.265 93.8526 107.925 94.083C109.172 94.5914 110.529 94.766 111.863 94.5896C113.198 94.4133 114.463 93.892 115.534 93.0772C116.601 92.4269 117.515 91.5558 118.217 90.5224C118.918 89.489 119.39 88.3174 119.601 87.0863C119.77 85.8447 119.67 84.5813 119.307 83.3817C118.945 82.1821 118.33 81.0743 117.502 80.1334C116.383 78.7739 114.859 77.8074 113.152 77.3748C111.445 76.9422 109.644 77.066 108.013 77.7283C107.352 77.9587 106.646 78.0273 105.954 77.9284C105.262 77.8295 104.603 77.5659 104.034 77.1598C103.462 76.7532 102.997 76.2151 102.678 75.591C102.358 74.967 102.193 74.2752 102.197 73.574V59.6682H88.2036C87.4849 59.7089 86.7673 59.5716 86.1144 59.2684C85.4615 58.9652 84.8936 58.5056 84.461 57.9302C84.0284 57.3549 83.7445 56.6816 83.6346 55.9702C83.5246 55.2588 83.592 54.5313 83.8307 53.8522C84.3391 52.606 84.5137 51.2487 84.3373 49.9143C84.1609 48.58 83.6396 47.3147 82.8249 46.2433C82.1793 45.1465 81.2951 44.2089 80.2379 43.5002C79.1807 42.7914 77.9775 42.3297 76.7176 42.1491C75.4577 41.9685 74.1733 42.0737 72.9596 42.457C71.7459 42.8402 70.6339 43.4916 69.7062 44.363C68.8446 45.2175 68.1703 46.242 67.7261 47.3713C67.2819 48.5005 67.0776 49.7099 67.1261 50.9224C67.1363 51.9254 67.3289 52.9182 67.6946 53.8522C67.9258 54.5135 67.9947 55.2206 67.8956 55.9141C67.7965 56.6075 67.5323 57.267 67.1251 57.8371C66.7179 58.4071 66.1798 58.8709 65.5559 59.1896C64.9321 59.5083 64.2409 59.6724 63.5404 59.6682H54.0074Z" fill="#7874D2"/>
</g>
<path d="M92.4346 73.6775C93.1717 74.4057 93.1717 75.5865 92.4346 76.3147L71.6719 96.8277C70.9348 97.556 69.7397 97.556 69.0026 96.8277L59.565 87.5036C58.8279 86.7754 58.8279 85.5946 59.565 84.8664C60.3021 84.1381 61.4972 84.1381 62.2343 84.8664L70.3372 92.8718L89.7652 73.6775C90.5024 72.9492 91.6975 72.9492 92.4346 73.6775Z" fill="white"/>
<path d="M88.2357 72.2762C89.8081 70.7227 92.3918 70.7227 93.9642 72.2762C95.4931 73.7868 95.4931 76.2055 93.9642 77.716L73.2015 98.229C71.6291 99.7825 69.0454 99.7825 67.473 98.229L58.0354 88.9049C56.5064 87.3943 56.5064 84.9757 58.0354 83.4651C59.6078 81.9116 62.1915 81.9116 63.7639 83.4651L70.3372 89.9594L88.2357 72.2762ZM70.716 94.8597C70.5919 94.8811 70.4652 94.892 70.3372 94.892C70.2093 94.892 70.0826 94.8811 69.9585 94.8597L70.3372 95.2338L70.716 94.8597Z" fill="white"/>
<defs>
<linearGradient id="paint0_linear" x1="-5.4472e-07" y1="160" x2="146.222" y2="13.7778" gradientUnits="userSpaceOnUse">
<stop stop-color="#B153A0"/>
<stop offset="1" stop-color="#F4588A"/>
</linearGradient>
</defs>
</svg>
