  <svg
                    viewBox="0 0 20 20"
                    version="1.1"
                    xmlns="http://www.w3.org/2000/svg"
                    role="img"
                  >
                    <g
                      stroke="none"
                      stroke-width="1"
                      fill="none"
                      fill-rule="evenodd"
                    >
                      <g fill="#8d98a1">
                        <path d="M10.7358299,9.05316505 C10.74693,9.03496505 10.7625302,9.01306505 10.7778304,8.99176505 L10.7778304,9.05316505 L10.7358299,9.05316505 Z M16.9563347,16.7413593 L13.9355007,16.7413593 L13.9355007,11.9100805 C13.9355007,10.696181 13.4977552,9.86785022 12.4052981,9.86785022 C11.5695643,9.86785022 11.0734621,10.4266736 10.8556124,10.9662 C10.7748894,11.1588913 10.7548946,11.4283987 10.7548946,11.6975342 L10.7548946,16.7411734 L7.73457208,16.7411734 C7.73457208,16.7411734 7.77409657,8.5583491 7.73457208,7.71146523 L10.7553596,7.71146523 L10.7553596,8.99162555 C11.1563705,8.37649203 11.8729729,7.4990119 13.477156,7.4990119 C15.4654707,7.4990119 16.9563347,8.78884399 16.9563347,11.5636639 L16.9563347,16.7413593 Z M4.55280357,6.47798976 L4.53248332,6.47798976 C3.51912172,6.47798976 2.86222458,5.78497064 2.86222458,4.91734826 C2.86222458,4.03224231 3.53841897,3.35800873 4.57186832,3.35800873 C5.60541067,3.35800873 6.24115058,4.03205632 6.26123833,4.91734826 C6.26123833,5.78515663 5.60564317,6.47798976 4.55280357,6.47798976 Z M3.0415728,16.7413593 L6.06342984,16.7413593 L6.06342984,7.71160472 L3.0415728,7.71160472 L3.0415728,16.7413593 Z M18.5232253,0 L1.4777512,0 C0.661547082,0 0,0.641358883 0,1.43295561 L0,18.5664399 C0,19.3580366 0.661779579,20 1.4777512,20 L18.5232253,20 C19.3391969,20 20,19.3576181 20,18.5664399 L20,1.43295561 C20,0.641591377 19.3391969,0 18.5232253,0 Z"></path>
                      </g>
                    </g>
                  </svg>