<svg height="48" width="48" xmlns="http://www.w3.org/2000/svg" xmlns:xlink="http://www.w3.org/1999/xlink" role="img"><title>Live Chat Icon</title><defs><circle id="a" cx="24" cy="24" r="24"/><mask id="b" fill="#fff"><use fill="#fff" fill-rule="evenodd" xlink:href="#a"/></mask><mask id="c" fill="#fff"><path d="m0 0h28.047v27.482h-28.047z" fill="#fff" fill-rule="evenodd"/></mask><mask id="d" fill="#fff"><path d="m.063.001h6.537v22.45h-6.537z" fill="#fff" fill-rule="evenodd"/></mask><mask id="e" fill="#fff"><path d="m0 0h2.103v1.65h-2.103z" fill="#fff" fill-rule="evenodd"/></mask><mask id="f" fill="#fff"><path d="m0 .099h1.1v.103h-1.1z" fill="#fff" fill-rule="evenodd"/></mask><mask id="g" fill="#fff"><path d="m0 0h.55v.114h-.55z" fill="#fff" fill-rule="evenodd"/></mask><mask id="h" fill="#fff"><path d="m0 .137h.1v.413h-.1z" fill="#fff" fill-rule="evenodd"/></mask><mask id="i" fill="#fff"><path d="m0 .1h.42v.097h-.42z" fill="#fff" fill-rule="evenodd"/></mask><mask id="j" fill="#fff"><path d="m.1.126h.096v.424h-.095z" fill="#fff" fill-rule="evenodd"/></mask><mask id="k" fill="#fff"><path d="m.1 0h.102v.202h-.102z" fill="#fff" fill-rule="evenodd"/></mask><mask id="l" fill="#fff"><path d="m.1 0h.1v.103h-.1z" fill="#fff" fill-rule="evenodd"/></mask><mask id="m" fill="#fff"><path d="m.032 0h.068v.1h-.07z" fill="#fff" fill-rule="evenodd"/></mask></defs><g fill="none" fill-rule="evenodd"><use fill="#d2f4e6" fill-rule="nonzero" xlink:href="#a"/><g mask="url(#b)"><path d="m10.326 9.294c-.04.172-.074.346-.121.516-.14.499.265.646.569.799.335.168.703.217.998-.15.58-.72.782-1.571.862-2.458.06-.66.744-1.151 1.404-.968.904.252 1.292 1.503.746 2.336-.1.154-.168.434-.094.57.084.156.349.299.526.289.133-.007.304-.245.37-.415.492-1.26 1.427-2.124 2.529-2.833.102-.066.447.019.475.101.148.445.28.907.328 1.371.09.88.906 1.501 1.69 1.24.42-.14.845-.27 1.27-.397.775-.23 1.462-.575 1.942-1.43l-4.02 1.289c-.144-.622-.266-1.258-.441-1.88-.18-.636-.888-1.088-1.508-.887-.457.148-.889.442-1.262.754-.311.26-.521.642-.811 1.014-.804-1.343-1.295-1.583-3.072-1.627-.1-.564-.164-1.163-.7-1.53-.592-.407-1.173-.874-1.971-.54l-.117-.001c-.386.185-.794.335-1.155.56-1.61.998-2.926 2.264-3.567 4.1-.055.159.05.373.08.562.177-.111.406-.184.522-.34.303-.412.53-.88.835-1.29a9.384 9.384 0 0 1 3.342-2.81c.405-.205 1.015-.262 1.435-.114.489.172.59 1.728.231 2.134-.24.27-.545.495-.732.795-.242.386-.396.828-.588 1.245l.005-.004zm5.486 6.273.084-.085 1.17-1.278c.785 1.409 2.533 2 3.653 1.11-.31-.027-.528-.047-.745-.063-.468-.035-.95-.01-1.4-.117-.57-.134-.62-.711-.727-1.159-.097-.407-.326-.63-.676-.72-.39-.1-.623.157-.775.49l.004-.004c-.408.42-.792.867-1.23 1.255-.756.67-1.55 1.305-2.644 1.29-.18-.003-.441-.061-.514-.183-.071-.12.02-.367.09-.537.265-.649.562-1.285.824-1.934.17-.42-.115-.66-.42-.863-.314-.208-.527-.007-.655.236-.292.553-.579 1.114-.801 1.696-.133.347-.008.888-.229 1.084-.523.466-1.145.877-1.797 1.126-.715.272-1.069.019-1.378-.722a2.77 2.77 0 0 1 -.219-.762c-.088-.85-.078-1.684.63-2.323-.588-.36-.807-.345-1.03.117-.504 1.047-.589 2.104-.044 3.171.378.74 1.937 1.398 2.69 1.074.662-.284 1.29-.644 1.988-.998 1.452 1.058 3.014.255 4.151-.9zm-8.922 11.32.003-.186-.003.187zm-6.89-5.958v-18.806l.09-.311c.454-.787 1.06-1.4 1.943-1.698l.296-.114h23.088l.309.092c.247.106.49.222.74.314.804.295 1.58 1.342 1.58 2.204.004 4.992-.003 9.985-.007 14.978-2.728.001-5.456.013-8.184-.003-.799-.004-1.551.071-2.299.41-.924.42-1.655 1.395-1.658 2.417l-.006 3.026c-.64.004-1.281.01-1.922.01-.52 0-.957.12-1.217.641-.184.37-.387.75-.664 1.05-.305.33-.566.8-1.04.729-.175.204-.28.398-.442.503-.869.562-1.847.874-2.857.998-.751.092-1.55.272-2.272-.192l.03-.142a95.29 95.29 0 0 0 -.232.053c-.416-.422-.045-.811.135-1.115.467-.786.827-1.596 1.007-2.524-1.076 0-2.119-.023-3.16.007-.917.026-1.599-.414-2.166-1.045-.409-.454-.732-.986-1.092-1.483z" fill="#76d5ac" mask="url(#c)" transform="translate(2 4)"/><path d="m6.14 4.357c.006-.014.014-.029.014-.043 0-.005-.024-.009-.037-.013-.005.014-.014.029-.013.043 0 .004.024.008.036.013m.225 7.223-.023-.04c-.01.012-.027.023-.028.035-.001.013.013.027.02.04l.03-.035m-.143-4.693c.009-.028.02-.054.023-.081 0-.008-.03-.03-.037-.026-.023.012-.041.031-.061.048zm.274 13.247c-.59.912-1.217 1.788-2.333 2.175a2.114 2.114 0 0 1 -.652.134c-1.134.013-2.269.006-3.404.005-.105-.302-.022-.563.297-.642.56-.138 1.131-.235 1.702-.318.872-.125 1.756-.181 2.618-.347.764-.146 1.18-.666 1.25-1.381.074-.752.168-1.502.206-2.255.045-.865.067-1.733.048-2.599-.024-1.122-.1-2.242-.15-3.364-.039-.865-.065-1.73-.111-2.594-.06-1.122-.157-2.243-.193-3.365-.013-.42.154-.817.012-1.271-.128-.407-.019-.88-.032-1.323-.025-.866-.072-1.733-.086-2.6-.002-.128.13-.258.2-.388l.629.904.104.303v1.309c-.014.01-.04.024-.039.028.01.026.025.049.039.072v17.316l-.105.2" fill="#e9edf2" mask="url(#d)" transform="translate(39.4 22.7)"/><path d="m2.103.103c-.913.27-1.54.827-2.01 1.54a.377.377 0 0 0 -.093.007v-1.65h2.095z" fill="#fdfefd" mask="url(#e)" transform="translate(2 4)"/><path d="m1.1.1v.102h-1.1v-.103h1.1" fill="#fbfcfc" mask="url(#f)" transform="translate(38.85 49)"/><path d="m.014.114-.014-.114h.55z" fill="#daf4eb" mask="url(#g)" transform="translate(4.2 3.9)"/><path d="m.1.55-.1-.413h.1z" fill="#f2f4f7" mask="url(#h)" transform="translate(45.899 23.25)"/><path d="m.412.1.008.094-.42-.093h.412z" fill="#c8efe1" mask="url(#i)" transform="translate(27.3 3.9)"/><path d="m.1.138c.03-.01.06-.013.09-.011l-.09.423v-.413z" fill="#beecdb" mask="url(#j)" transform="translate(1.899 5.65)"/><path d="m2.051 26.999-.102.202v-.1z" fill="#d2f1e6"/><path d="m.1.202.103-.202v.202z" fill="#f5f7f9" mask="url(#k)" transform="translate(45.899 42.4)"/><path d="m2.051 27.05-.102.1v-.1c.033 0 .066 0 .099.003l.003-.004z" fill="#7ad7b0"/><path d="m.2.103a1.247 1.247 0 0 0 -.099-.002v-.101z" fill="#c3edde" mask="url(#l)" transform="translate(1.899 27)"/><path d="m.1.1c-.011-.022-.027-.045-.035-.071-.003-.005.023-.019.035-.029z" fill="#f2f4f7" mask="url(#m)" transform="translate(45.899 24.85)"/><path d="m30.12 32.454-.58-.002c-.918.003-1.836.002-2.754.012-.715.007-1.436.094-2.143.026-.992-.097-.988-.145-.961.822 0 .03.027.057.087.175 5.366-.166 10.785.315 16.31-.338-.173-.207-.257-.406-.368-.423a17.226 17.226 0 0 0 -1.806-.196c-1.05-.05-2.103-.062-3.154-.09l-1.625-.002-2.906.016zm-6.528-3.972c1.078.032 2.156.083 3.233.09.942.007 1.885-.04 2.827-.053a68.464 68.464 0 0 1 2.03.005c.714.011 1.427.039 2.14.06l.117-.2c.126.056.254.161.38.16.951-.007 1.904-.01 2.853-.068.503-.031.999-.171 1.498-.262h.783l.008-.155-.391-.073c-.531-.105-1.059-.269-1.594-.301-1.069-.065-2.142-.07-3.214-.074-.705-.004-1.41.04-2.116.054-.71.014-1.42.016-2.13.023l-.092-.065-1.413-.017-.13.052h-4.651l-.157.74-.039.14.06-.056m2.098 8.843h-1.957c-.054.264-.11.44-.12.619-.007.1.042.28.102.297.293.086.597.16.9.178.365.023.733-.028 1.1-.025 1.033.005 2.067.023 3.1.033.117.001.234-.022.35-.023.756-.008 1.513.01 2.268-.026.5-.024.997-.164 1.497-.178.583-.017.603-.004.517-.711l-3.128-.171c-.154-.033-.308-.093-.463-.094-.83-.01-1.66-.017-2.49 0-.559.012-1.117.066-1.676.1m19.406-14.803c-.067.13-.193.26-.19.39.012.873.057 1.745.082 2.618.012.446-.092.922.03 1.331.136.457-.024.858-.01 1.28.034 1.13.126 2.258.184 3.388.045.87.07 1.742.106 2.612.049 1.13.121 2.258.145 3.387.017.872-.003 1.746-.046 2.617-.038.758-.127 1.514-.198 2.27-.068.72-.467 1.244-1.2 1.391-.827.166-1.676.223-2.511.35-.549.082-1.097.18-1.634.32-.306.079-.385.342-.284.646.043.356.014.742.144 1.063.313.777.701 1.524 1.059 2.283-.676.014-1.388.173-2.019.01-1.028-.268-2.028-.694-2.994-1.153a4.13 4.13 0 0 1 -1.834-1.75c-.301-.547-.732-.866-1.297-.944-.613-.085-1.243-.062-1.866-.067-1.173-.008-2.347-.002-3.578-.002l.219.357c-.298-.174-.52-.399-.951-.403-1.917-.016-3.84-.06-5.748-.234-.916-.083-1.964-.156-2.476-1.207-.022-.045-.114-.055-.173-.081-.034-.502-.095-1.003-.096-1.505-.01-4.673-.009-9.347-.011-14.02l.007-3.034c.002-1.024.728-2.001 1.645-2.422.742-.34 1.49-.416 2.282-.412 2.708.016 5.416.004 8.124.003 4.317.001 8.634-.007 12.95.012.816.004 1.535.342 2.14.906" fill="#f9fafb"/><path d="m17.01 12.71c-.015.004-.032.006-.043.015-.004.003.006.024.01.037.014-.004.03-.005.042-.014.004-.004-.006-.025-.01-.038m-3.658.146-.056.076c.026.01.052.021.08.024.008 0 .03-.03.026-.037-.012-.023-.032-.042-.05-.063m-.44.96-.028.191.13-.084a.24.24 0 0 0 .024-.08l.195-.533.036-.162-.143.157-.101.271-.114.24m-1.09-5.298c.8-.345 1.384.136 1.978.556.538.38.603.998.702 1.58 1.783.046 2.276.294 3.082 1.68.29-.385.502-.778.814-1.047.374-.322.808-.625 1.266-.778.621-.208 1.332.259 1.513.916.176.641.298 1.298.441 1.94 1.307-.43 2.614-.86 4.034-1.329-.48.883-1.171 1.239-1.948 1.476-.427.13-.852.264-1.274.41-.787.27-1.605-.371-1.696-1.28-.047-.48-.18-.956-.33-1.415-.027-.086-.373-.173-.476-.105-1.104.732-2.043 1.624-2.537 2.925-.066.175-.237.42-.37.428-.178.01-.445-.138-.528-.298-.075-.141-.007-.43.094-.588.548-.86.158-2.153-.749-2.412-.661-.19-1.347.318-1.408 1-.08.914-.284 1.793-.864 2.536-.296.38-.666.33-1.002.155-.305-.158-.711-.31-.571-.825.047-.175.081-.355.121-.532.005.014.008.03.016.041.005.007.019.007.029.01l-.05-.047c.193-.431.347-.887.59-1.286.188-.31.495-.54.735-.82.36-.42.258-2.026-.232-2.203-.421-.153-1.033-.095-1.44.117a9.487 9.487 0 0 0 -3.353 2.9c-.305.425-.533.908-.838 1.333-.115.162-.345.237-.523.35-.03-.194-.136-.415-.08-.579.643-1.895 1.964-3.202 3.578-4.233.363-.232.772-.387 1.16-.578l.12.252.079-.042zm6.698 9.212c.154-.338.39-.6.786-.498.354.091.587.318.685.733.108.455.16 1.041.737 1.178.457.108.945.083 1.418.118.22.017.441.037.756.064-1.135.906-2.907.304-3.702-1.128l-1.187 1.3-.084.086c-1.153 1.175-2.736 1.991-4.208.915-.706.36-1.344.726-2.015 1.016-.763.33-2.343-.34-2.726-1.092-.552-1.085-.467-2.16.045-3.224.226-.47.447-.486 1.044-.12-.719.65-.728 1.499-.639 2.362.028.264.12.528.222.775.314.753.672 1.011 1.396.734.662-.253 1.292-.671 1.822-1.144.224-.2.097-.75.232-1.102.225-.592.516-1.162.811-1.724.13-.248.347-.453.665-.24.309.205.598.449.426.876-.266.66-.567 1.307-.836 1.967-.07.173-.163.423-.09.545.073.125.338.184.52.187 1.108.015 1.913-.63 2.68-1.312.443-.394.833-.848 1.246-1.275.005.013.008.028.017.039.005.006.018.006.028.009l-.049-.044z" fill="#293a57"/><path d="m11.917 8.28.082.2-.079.042-.12-.244z" fill="#4c837f"/><path d="m7.586 31.021-.201-.09.23-.052z" fill="#90debf"/><path d="m9.149 31.043.002-.186z" fill="#8dddbd"/><path d="m9.149 31.043.002-.186z" fill="#a5e5cc"/><path d="m17.908 19.442.084-.084z" fill="#76d5ac"/><path d="m29.582 45.008c.012-.026.04-.06.032-.079s-.052-.024-.08-.036c-.012.027-.04.06-.032.079s.052.025.08.036m-2.06.035-.222-.341c1.246 0 2.433-.006 3.62.002.631.004 1.268-.017 1.89.064.57.075 1.006.378 1.311.9a4.083 4.083 0 0 0 1.857 1.668c.976.437 1.988.843 3.03 1.098.637.157 1.358.005 2.041-.009l.001.096-.102.194-1.017.385h-1.117c-.453-.098-.918-.16-1.355-.3-.647-.21-1.28-.461-1.903-.727-.155-.066-.25-.258-.37-.394-.038-.044-.06-.134-.097-.14-1.074-.146-1.27-1.112-1.826-1.742-.157-.177-.367-.311-.553-.465-.165-.064-.33-.182-.496-.183-1.389-.015-2.777-.006-4.166-.013-.176-.001-.35-.061-.526-.093" fill="#e9edf2"/><path d="m27.185 44.95c.171.034.342.095.514.096 1.355.008 2.711-.002 4.067.014.162.002.323.124.484.19-.225-.033-.45-.094-.676-.095-3.619-.006-7.238-.018-10.857.005-1.108.006-2.526-.672-2.767-2.11.059.026.15.036.17.08.507 1.037 1.542 1.11 2.447 1.192 1.885.172 3.784.214 5.678.23.427.004.645.226.94.398" fill="#e9edf2"/><path d="m41 48.651.1-.202z" fill="#f9fafb"/><path d="m45.475 29.354-.072-.06c.019-.016.036-.036.058-.047.007-.004.037.017.036.025-.002.027-.014.053-.022.082" fill="#f2f4f7"/><path d="m45.474 34.253-.028.034c-.008-.013-.021-.027-.02-.04 0-.012.017-.023.027-.034z" fill="#eef1f5"/><path d="m45.461 27.128c-.012-.005-.035-.009-.035-.013 0-.014.008-.029.013-.043.012.004.035.008.035.013 0 .014-.008.029-.013.043" fill="#eff2f5"/><path d="m29.887 33.486c.003.013.002.032.01.037.012.008.03.007.046.01l-.013-.062zm-1.8-.54c-.004-.014-.005-.032-.014-.043-.003-.004-.024.006-.037.01.005.015.006.032.015.043.003.004.024-.006.036-.01m-1.496-.108-.059.047c.01.011.022.034.029.032.026-.005.051-.018.077-.028zm2.283-.054-.006.078c.01-.012.025-.023.027-.036 0-.013-.013-.027-.021-.042m6.834.239.128-.145-.133-.049zm-1.723-.296-.039.174.13-.08zm.606-.124c1.058.029 2.116.04 3.172.092.608.03 1.216.107 1.817.203.112.017.196.222.37.435-5.557.674-11.008.179-16.405.35-.06-.122-.087-.151-.088-.18-.027-.998-.031-.949.967-.85.71.072 1.436-.018 2.155-.026.924-.01 1.848-.009 2.772-.012l.581.002-.01.169.112-.169 2.923-.017zm-2.455-4.693-.079.085.137.138.051-.06zm-2.283-.168c.706-.008 1.411-.01 2.117-.026.7-.015 1.402-.065 2.103-.061 1.065.006 2.131.01 3.193.083.532.037 1.056.221 1.584.339l-.397.257c-.496.102-.99.26-1.49.295-.942.066-1.889.069-2.834.077-.126.001-.252-.118-.378-.18l-.115.224c-.71-.023-1.418-.054-2.127-.067a60.35 60.35 0 0 0 -2.017-.006c-.937.014-1.873.069-2.81.061-1.07-.009-2.14-.066-3.212-.103a.123.123 0 0 0 -.02-.093l.156-.833h4.623l.032.036.098-.004v-.091l1.403.019zm-4.473 9.498.022-.068-.038.01.017.057m4.119.604c-.015-.006-.03-.014-.043-.014-.005 0-.01.023-.014.036.015.005.03.013.043.013.005 0 .01-.023.014-.035m-1.177-.011c.005-.014.014-.028.013-.042 0-.005-.023-.01-.035-.014-.005.014-.014.029-.013.043 0 .005.023.009.035.013m-1.601-.492c.002.01.001.026.008.03.01.008.027.007.04.01a49.352 49.352 0 0 1 -.011-.055zm3.454-.34 3.137.17c.085.7.066.688-.52.704-.5.015-.998.154-1.5.177-.757.036-1.516.018-2.274.026-.117 0-.234.024-.351.023-1.037-.01-2.073-.027-3.11-.033-.367-.002-.736.047-1.101.025a4.218 4.218 0 0 1 -.904-.176c-.06-.018-.108-.195-.103-.295.01-.178.067-.352.122-.614h1.962c.094.047.192.14.28.132.198-.018.391-.126.587-.128 1.258-.014 2.517-.01 3.775-.011" fill="#293a57"/><path d="m30.05 36.982c-1.193.001-2.386-.004-3.579.01-.185.003-.368.11-.556.13-.084.007-.176-.086-.265-.133.531-.035 1.062-.089 1.593-.1.789-.018 1.578-.01 2.367 0 .147 0 .293.06.44.093" fill="#919baa"/><path d="m35 32.602-1.65-.004z" fill="#8e99a8"/><path d="m38.85 28.313.278-.226.272.073-.006.153z" fill="#354561"/><path d="m30.106 32.519-.112.162.01-.162z" fill="#3a4a65"/><path d="m33.842 28.3.116-.2z" fill="#9aa4b1"/><path d="m23.458 28.13c.02.025.027.053.02.083l-.059.056.04-.138" fill="#e4e7ea"/><path d="m30.096 27.682-.092-.064zm-1.631-.074v.08l-.098.004-.032-.032z" fill="#293a57"/><path d="m13.446 13.626.101-.276.107.005-.194.545z" fill="#60ac96"/><path d="m13.585 13.428-.106-.004.142-.152z" fill="#4d8380"/><path d="m13.064 13.91-.128.082.027-.184.101.103" fill="#57988b"/><path d="m13.038 13.9-.101-.169.113-.381.013.425a.56.56 0 0 1 -.025.125" fill="#74d2ab"/><path d="m13.554 12.752c.017.02.037.038.049.06.003.007-.018.037-.026.036-.027-.002-.053-.014-.08-.022.019-.025.037-.05.057-.074" fill="#324e62"/><path d="m17.416 12.775c.004.012.014.033.01.036-.011.009-.028.01-.042.014-.004-.012-.014-.033-.01-.036.011-.009.028-.01.042-.014" fill="#2c425c"/><path d="m12.426 13.33.048.045c-.01-.003-.024-.003-.028-.01-.009-.01-.01-.026-.016-.04z" fill="#4e8782"/><path d="m18.476 17.73.048.044c-.01-.003-.023-.003-.028-.01-.008-.01-.01-.025-.016-.038z" fill="#416c73"/><path d="m29.524 44.76c-.028-.012-.072-.018-.08-.038-.007-.02.02-.054.032-.082.028.012.072.018.08.038s-.02.054-.032.082" fill="#eff2f5"/><path d="m36.033 32.507.134.047-.129.14z" fill="#5f6c82"/><path d="m34.515 32.606-.13.078.04-.168z" fill="#808a9c"/><path d="m28.943 32.563c.008.013.021.027.02.04 0 .012-.017.023-.026.034z" fill="#2f405c"/><path d="m26.755 32.562.048.05c-.026.009-.05.021-.077.026-.007.002-.019-.02-.029-.03z" fill="#99a3b0"/><path d="m28.425 32.616c-.012.004-.033.014-.036.01-.009-.011-.01-.028-.014-.042.012-.004.033-.014.036-.01.009.011.01.028.014.042" fill="#31425e"/><path d="m36.097 32.507.006.186z" fill="#40506a"/><path d="m30.022 33.135.043-.015.013.06c-.016-.003-.034-.001-.046-.009-.008-.005-.007-.023-.01-.036" fill="#7d8799"/><path d="m32.235 27.552.11.144-.051.052-.139-.121z" fill="#2c3d59"/><path d="m28.35 27.652.1-.004z" fill="#3a4a65"/><path d="m26.726 37.537a5.63 5.63 0 0 1 .037-.014l.011.054c-.013-.002-.03-.001-.04-.008-.006-.005-.006-.02-.008-.032" fill="#5d6a81"/><path d="m28.411 38.128c-.012-.004-.035-.009-.035-.013 0-.014.008-.029.013-.043.012.004.035.009.035.013 0 .014-.008.029-.013.043" fill="#30415d"/><path d="m29.528 38.089c-.004.012-.008.035-.013.035-.014 0-.029-.008-.043-.013.004-.012.008-.035.013-.035.014 0 .029.008.043.013" fill="#32435f"/><path d="m25.648 37.584a14.797 14.797 0 0 0 -.017-.057l.038-.01z" fill="#3e4e68"/></g></g></svg>