<svg width="160" height="160" viewBox="0 0 160 160" fill="none" xmlns="http://www.w3.org/2000/svg">
<g style="mix-blend-mode:multiply">
<rect width="160" height="160" rx="80" fill="url(#paint0_linear)"/>
</g>
<g style="mix-blend-mode:multiply">
<path d="M112.103 55.1386C108.778 55.1406 105.557 56.2099 102.987 58.1646C100.417 60.1192 98.6573 62.8384 98.0074 65.8596C97.3575 68.8808 97.8574 72.0172 99.4222 74.7354C100.987 77.4535 103.52 79.5854 106.59 80.7684C105.86 82.3894 104.628 83.7736 103.049 84.7461C101.471 85.7185 99.6161 86.2356 97.7204 86.2319H78.5432C75.1634 86.245 71.8503 87.1045 68.9546 88.7194V63.2228C72.1534 62.175 74.8494 60.1132 76.5662 57.4018C78.2829 54.6904 78.9098 51.504 78.336 48.4058C77.7623 45.3076 76.0249 42.4971 73.4308 40.4709C70.8368 38.4448 67.5531 37.3335 64.1603 37.3335C60.7674 37.3335 57.4838 38.4448 54.8897 40.4709C52.2957 42.4971 50.5582 45.3076 49.9845 48.4058C49.4108 51.504 50.0377 54.6904 51.7544 57.4018C53.4711 60.1132 56.1672 62.175 59.366 63.2228V100.357C56.2065 101.41 53.5441 103.454 51.8401 106.134C50.1362 108.815 49.4981 111.963 50.0365 115.033C50.5749 118.104 52.2558 120.903 54.7879 122.946C57.32 124.989 60.5437 126.147 63.9005 126.219C67.2572 126.291 70.5353 125.272 73.1667 123.34C75.7981 121.408 77.617 118.684 78.3082 115.64C78.9993 112.596 78.5192 109.423 76.9509 106.673C75.3827 103.922 72.8252 101.766 69.7217 100.579C70.4484 98.9652 71.6731 97.5858 73.2424 96.6139C74.8116 95.642 76.6556 95.1208 78.5432 95.1157H97.7204C102.106 95.1149 106.36 93.7212 109.771 91.167C113.182 88.6127 115.545 85.0523 116.466 81.0793C119.671 80.0702 122.39 78.046 124.143 75.3628C125.896 72.6796 126.571 69.5095 126.05 66.4104C125.529 63.3112 123.845 60.4818 121.294 58.42C118.742 56.3582 115.488 55.1962 112.103 55.1386ZM64.1603 46.2547C65.1085 46.2547 66.0354 46.5153 66.8238 47.0033C67.6123 47.4914 68.2268 48.1852 68.5896 48.9968C68.9525 49.8085 69.0474 50.7016 68.8625 51.5632C68.6775 52.4249 68.2209 53.2163 67.5504 53.8376C66.8799 54.4588 66.0256 54.8818 65.0956 55.0532C64.1656 55.2246 63.2016 55.1366 62.3256 54.8004C61.4495 54.4642 60.7008 53.8949 60.174 53.1644C59.6472 52.434 59.366 51.5752 59.366 50.6967C59.366 49.5186 59.8711 48.3888 60.7702 47.5558C61.6693 46.7227 62.8887 46.2547 64.1603 46.2547ZM64.1603 117.325C63.2121 117.325 62.2851 117.065 61.4967 116.577C60.7083 116.089 60.0938 115.395 59.7309 114.583C59.3681 113.772 59.2731 112.878 59.4581 112.017C59.6431 111.155 60.0997 110.364 60.7702 109.742C61.4407 109.121 62.295 108.698 63.225 108.527C64.155 108.355 65.1189 108.443 65.995 108.78C66.871 109.116 67.6198 109.685 68.1466 110.416C68.6734 111.146 68.9546 112.005 68.9546 112.883C68.9546 114.061 68.4495 115.191 67.5504 116.024C66.6513 116.857 65.4318 117.325 64.1603 117.325ZM112.103 72.9062C111.155 72.9062 110.228 72.6457 109.44 72.1576C108.651 71.6695 108.037 70.9758 107.674 70.1641C107.311 69.3525 107.216 68.4594 107.401 67.5977C107.586 66.7361 108.043 65.9446 108.713 65.3234C109.384 64.7022 110.238 64.2791 111.168 64.1077C112.098 63.9363 113.062 64.0243 113.938 64.3605C114.814 64.6967 115.563 65.266 116.09 65.9965C116.616 66.727 116.898 67.5858 116.898 68.4643C116.898 69.6424 116.392 70.7722 115.493 71.6052C114.594 72.4382 113.375 72.9062 112.103 72.9062Z" fill="#7874D2"/>
</g>
<path fill-rule="evenodd" clip-rule="evenodd" d="M69.3327 50.6668C69.3327 53.6123 66.9449 56.0002 63.9993 56.0002C61.0538 56.0002 58.666 53.6123 58.666 50.6668C58.666 47.7213 61.0538 45.3335 63.9993 45.3335C66.9449 45.3335 69.3327 47.7213 69.3327 50.6668ZM69.3327 112.889C69.3327 115.834 66.9449 118.222 63.9993 118.222C61.0538 118.222 58.666 115.834 58.666 112.889C58.666 109.943 61.0538 107.556 63.9993 107.556C66.9449 107.556 69.3327 109.943 69.3327 112.889ZM111.999 73.778C114.945 73.778 117.333 71.3902 117.333 68.4447C117.333 65.4991 114.945 63.1113 111.999 63.1113C109.054 63.1113 106.666 65.4991 106.666 68.4447C106.666 71.3902 109.054 73.778 111.999 73.778Z" fill="#F7FAFE"/>
<defs>
<linearGradient id="paint0_linear" x1="3.30806e-06" y1="160" x2="148" y2="12" gradientUnits="userSpaceOnUse">
<stop stop-color="#607CE2"/>
<stop offset="1" stop-color="#F4588A"/>
</linearGradient>
</defs>
</svg>
