<svg width="48" height="48" viewBox="0 0 48 48" fill="none" xmlns="http://www.w3.org/2000/svg">
<mask id="mask0" mask-type="alpha" maskUnits="userSpaceOnUse" x="0" y="0" width="48" height="48">
<circle cx="24" cy="24" r="24" fill="#D6EDFF"/>
</mask>
<g mask="url(#mask0)">
<circle cx="24" cy="24" r="24" fill="#D6EDFF"/>
<path d="M11.0682 16.1236C11.2155 15.0792 11.0051 13.9921 11.5944 13.0435C11.6049 13.0222 11.6365 12.9902 11.6259 12.9689C11.1208 11.658 12.1731 10.6029 12.2047 9.35592C12.2152 9.02552 11.7522 8.59921 12.2994 8.29013C12.815 8.00237 13.3622 7.95974 13.9199 8.01303C16.035 8.22618 18.15 8.47131 20.2651 8.64184C21.5278 8.74842 22.7906 8.855 24.0428 8.95092C26.7261 9.16407 29.4094 9.30263 32.1032 9.46249C32.3663 9.47315 34.555 9.57973 35.4599 9.70762C36.891 9.92078 38.3642 9.78223 39.8164 10.006C39.8374 10.006 39.869 10.038 39.89 10.0274C41.1948 9.89947 42.4576 10.2405 43.7624 10.2618C44.6989 10.2725 45.6565 10.4324 46.6035 10.443C48.7607 10.4643 50.8442 11.1358 53.0224 11.0185C53.6853 10.9866 54.443 11.2956 55.148 11.4555C55.3058 11.4875 55.4532 11.5195 55.611 11.5514C56.0214 11.6154 56.5791 11.3383 56.8211 11.7006C57.1158 12.1376 57.0105 12.7664 56.8948 13.2673C56.5054 15.0046 56.2318 16.7738 55.8951 18.5217C55.5268 20.4188 55.127 22.3265 54.7692 24.2236C54.3167 26.6536 53.78 29.0623 53.1908 31.4496C52.5489 34.0501 51.8754 36.672 50.9599 39.2085C50.3496 40.8925 49.8445 42.6297 49.129 44.2604C48.7923 45.0384 48.3924 45.859 48.1609 46.6264C47.6558 48.2997 46.6456 49.7065 46.0458 51.3265C45.4039 53.0637 44.3938 54.6518 43.594 56.3357C43.1626 57.231 42.5418 58.0516 42.4365 59.0854C42.426 59.16 42.4365 59.2879 42.3839 59.3092C40.7424 60.3963 40.4267 62.4107 39.3113 63.8601C38.8588 64.4463 38.48 65.0964 38.0591 65.7039C37.9538 65.8532 37.8381 66.0343 37.6066 65.9491C36.649 65.6187 35.6283 65.8425 34.6707 65.5654C34.2919 65.4588 33.8815 65.3949 34.1341 64.6488C33.2186 65.5867 32.4504 64.9366 31.7454 64.7128C29.5883 64.0307 27.4627 63.2313 25.3371 62.4533C24.7899 62.2508 24.2953 61.9417 23.7692 61.6859C20.7807 60.2578 17.8238 58.7763 14.909 57.199C13.0991 56.2185 11.1314 55.5257 9.10048 55.0248C7.79566 54.705 6.44874 54.3853 5.25968 53.6499C4.69145 53.2982 3.99695 53.3408 3.35506 53.1916C1.92397 52.8506 0.492872 52.339 -0.990835 52.4669C-2.29566 52.5841 -3.64257 52.1472 -5 52.6907C-1.69586 47.884 1.56619 43.0667 3.87067 37.6845C3.78649 37.5992 3.84963 37.3114 3.91276 37.2795C4.28106 37.1196 5.02817 35.0733 4.84929 34.7003C4.75458 34.5084 4.5757 34.2313 4.84929 34.1674C5.84895 33.9436 5.95418 32.963 6.18568 32.3129C6.55397 31.3004 6.81704 30.2133 7.28004 29.2435C7.82722 28.0818 8.00611 26.8241 8.46911 25.6411C8.91107 24.522 9.32145 23.3816 9.39511 22.124C9.42668 21.6444 9.75289 21.1542 9.88968 20.6426C10.1107 19.8113 10.2685 18.9693 10.4263 18.1167C10.5316 17.5518 10.6158 16.9336 11.2787 16.6779C11.5523 16.5713 12.0258 16.5393 11.8995 16.1236C11.7733 15.6867 11.3839 16.2089 11.0682 16.1236Z" fill="#F9FBFB"/>
<path d="M11.8784 38.3322C11.2892 38.4068 10.7525 38.1617 10.1527 38.1191C10.5 36.5844 11.2892 35.2521 11.668 33.8027C12.0678 32.2466 12.9202 30.8504 13.1833 29.2518C13.2254 29.0173 13.3411 28.8787 13.6884 28.9214C16.2033 29.1878 18.7182 29.401 21.2332 29.6354C21.9803 29.6994 22.6432 30.1257 23.1273 30.5414C23.4429 30.8185 23.3903 31.7137 23.1588 32.2999C22.4433 34.1011 21.8645 35.9555 20.9385 37.6608C20.6334 38.2257 20.5597 38.8865 20.1809 39.4193C19.8862 39.835 19.6337 39.867 19.3391 39.4513C18.9602 39.2488 19.1076 38.9824 19.2233 38.6946C19.8336 37.3304 19.076 36.2966 17.9501 36.0408C16.6347 35.7317 15.2878 35.6465 13.9409 35.6145C13.6989 35.6038 13.4463 35.6465 13.2674 35.8063C12.4888 36.4671 11.7837 37.1705 11.8784 38.3322Z" fill="#D6EDFF"/>
<path d="M20.9385 25.9159C18.7708 25.9585 16.6242 25.8413 14.467 25.3403C14.5828 24.0507 15.1931 22.9104 15.4877 21.674C15.8771 20.0434 16.1822 18.4021 16.7084 16.8034C16.8557 16.3558 17.0135 16.1746 17.466 16.2492C19.3391 16.5263 21.2332 16.6116 23.1167 16.7714C24.3163 16.8674 25.5159 16.9633 26.7155 17.0485C27.1049 17.0699 27.168 17.2724 27.1049 17.5921C26.6734 19.7023 26.263 21.8233 25.8 23.9228C25.6948 24.3918 25.4528 24.8394 25.3476 25.3297C25.2529 25.788 24.9898 26.129 24.4216 26.129C23.4114 26.129 22.4012 26.193 21.4121 25.9052C21.7067 25.4789 22.1276 25.7667 22.4854 25.724C22.9168 25.6707 23.4429 25.8413 23.6744 25.2977C23.8954 24.7648 23.5482 24.4025 23.243 24.0081C22.0855 22.5373 20.5176 22.2602 18.8129 22.3881C18.0448 22.4521 17.1188 23.4539 17.1082 24.2106C17.1082 24.4025 17.0872 24.509 16.9294 24.605C16.7505 24.7115 16.5085 24.8075 16.6347 25.0846C16.7505 25.3403 17.0135 25.383 17.2556 25.3723C18.2447 25.3297 19.2128 25.5322 20.1914 25.5642C20.465 25.5748 20.8438 25.4576 20.9385 25.9159Z" fill="#D6EDFF"/>
<path d="M11.8785 38.3322C11.4892 37.9592 11.384 37.5755 11.8785 37.2132C12.1626 37.0107 12.1626 36.6696 12.31 36.4032C13.0676 35.1242 14.2777 35.3267 15.3826 35.4759C16.1613 35.5825 16.9505 35.5292 17.7187 35.753C19.0761 36.1367 19.6338 36.5843 19.6548 37.9912C19.6548 38.2683 19.739 38.5454 19.4023 38.7586C19.2234 38.8758 19.0866 39.1955 19.3392 39.462C18.9393 39.5259 18.5605 39.462 18.1606 39.4193C16.6453 39.2382 15.1721 38.7799 13.6464 38.6413C13.0571 38.5774 12.4994 38.2363 11.8785 38.3322Z" fill="#527CEB"/>
<path d="M45.3303 22.5267C43.5203 22.3988 41.721 22.3242 39.911 22.1217C38.5115 21.9618 37.0699 21.9725 35.6493 21.8552C34.2288 21.7486 32.8187 21.5994 31.3981 21.5248C30.8931 21.5035 30.4827 21.2051 30.1144 20.8108C29.9671 20.6509 29.7776 20.5656 29.8618 20.3205C29.946 20.0434 30.2091 20.0647 30.3985 20.1073C31.3034 20.3311 32.2084 20.2459 33.1134 20.2352C34.8391 20.2033 36.5543 20.4484 38.2695 20.5123C39.3007 20.555 40.3109 20.7575 41.3421 20.8108C41.9209 20.8427 42.5417 20.896 43.131 20.8747C43.6256 20.8534 43.9833 21.1092 44.3937 21.2477C45.2356 21.5461 46.1826 21.1625 46.9928 21.706C47.2138 21.8552 47.519 21.9405 47.4769 22.2282C47.4348 22.58 47.0981 22.516 46.835 22.5053C46.3404 22.516 45.8354 22.5267 45.3303 22.5267Z" fill="#2C3959"/>
<path d="M43.5414 37.9059C41.9945 37.6715 40.4582 37.4583 38.9114 37.1919C37.1962 36.8934 35.4704 36.6909 33.7658 36.3712C32.1242 36.0621 30.4406 36.1048 28.8095 35.7211C28.2413 35.5825 27.631 35.6038 27.0943 35.2841C26.926 35.1775 26.6103 35.1988 26.705 34.9004C26.7681 34.6873 27.0101 34.6766 27.2311 34.634C28.1466 34.4635 29.0621 34.57 29.9565 34.666C31.093 34.7832 32.261 34.6233 33.3764 34.9644C34.3971 35.2735 35.4704 35.1988 36.5227 35.5399C37.3119 35.7957 38.2484 35.817 39.1218 35.9129C40.9633 36.1048 42.7311 36.5524 44.499 37.064C44.7094 37.1279 44.8988 37.2771 44.8462 37.4263C44.7725 37.6182 44.5937 37.8313 44.3516 37.8633C44.0886 37.8953 43.8255 37.874 43.5519 37.874C43.5414 37.8633 43.5414 37.8846 43.5414 37.9059Z" fill="#2C3959"/>
<path d="M20.9386 25.9158C19.9495 25.6707 18.9393 25.6814 17.9291 25.5961C17.6134 25.5748 17.2872 25.6387 16.9821 25.5641C16.6559 25.4895 16.277 25.4682 16.2876 24.9033C16.2876 24.8157 16.5 24 16.5 24C16.5 24 16.5191 23.9228 16.9084 23.6137C17.5608 23.1022 17.866 22.1216 18.8867 22.1216C20.6756 22.1216 22.3802 22.3561 23.4746 24.0294C23.6114 24.2426 23.9166 24.2639 23.9586 24.6049C24.0849 25.4789 23.7692 25.8732 22.8959 25.9265C22.3908 25.9585 21.8962 25.756 21.4016 25.8945C21.2438 25.9052 21.0965 25.9052 20.9386 25.9158Z" fill="#527CEB"/>
<path d="M39.2903 26.4381C38.3011 26.1397 37.3751 26.4061 36.5228 26.2036C35.1548 25.8626 33.7448 25.8626 32.3768 25.5855C31.3877 25.383 30.3354 25.5108 29.4199 24.9673C29.1884 24.8287 28.9359 24.7648 28.8938 24.4344C29.3252 24.1466 29.7461 24.0934 30.2933 24.168C31.4614 24.3491 32.6609 24.2852 33.8184 24.477C34.9654 24.6689 36.1545 24.7222 37.2383 25.2231C37.533 25.3616 37.8907 25.3403 38.2275 25.4149C38.7115 25.5428 39.0377 25.788 39.2903 26.4381Z" fill="#2C3959"/>
<path d="M24.9899 38.4921C28.294 38.2897 31.3877 38.8225 34.2394 40.5065C32.4189 40.6663 30.6827 40.3253 28.9464 39.867C28.3256 39.7071 27.6732 39.7711 27.0313 39.6752C26.4631 39.6006 25.958 39.3448 25.4003 39.2808C25.0109 39.2382 24.8005 38.9931 24.9899 38.4921Z" fill="#2C3959"/>
<path d="M17.424 34.9537C16.6138 35.0603 15.8982 34.5807 15.2037 34.1224C14.7092 33.792 15.1195 32.204 15.7825 31.9269C17.0347 31.3833 18.6657 31.394 19.7706 32.5877C20.3073 33.1738 20.202 33.9945 19.4444 34.229C19.0656 34.3462 18.8341 34.634 18.5184 34.8151C18.1922 34.9963 17.8555 34.9324 17.424 34.9537Z" fill="#527CEB"/>
<path d="M21.3279 21.7167C20.4019 21.9299 19.7705 21.2478 19.1392 20.7362C18.7814 20.4378 18.7182 19.7876 18.8866 19.308C19.1286 18.6259 19.8652 18.6259 20.4124 18.53C21.3489 18.3701 22.2855 18.5513 23.1904 18.8497C23.6534 19.0096 23.9796 19.3293 23.927 19.8409C23.8639 20.4378 24.0638 21.1945 23.2009 21.4396C22.6117 21.6101 22.0119 21.77 21.3279 21.7167Z" fill="#527CEB"/>
</g>
</svg>
