<svg width="43" height="39" viewBox="0 0 43 39" fill="none" xmlns="http://www.w3.org/2000/svg">
<g clip-path="url(#clip0)">
<path d="M0.105596 32.9913H3.35553V16.2127H0.023468V10.7046H10.7353V32.9913H13.9853V37.8643H0.105596V32.9913Z" fill="#93A1B0"/>
<path d="M14.1495 16.7323C14.1495 13.0949 17.2352 10.3466 21.0014 10.3466C24.7793 10.3466 27.818 13.1064 27.818 16.7323C27.818 20.3236 24.7793 23.1643 21.0014 23.1643C17.2352 23.1643 14.1495 20.3236 14.1495 16.7323ZM34.5995 10.7045H39.9613L22.6205 37.8642H17.2587L34.5995 10.7045ZM22.9138 16.7323C22.9138 15.0117 22.1042 14.1341 21.0014 14.1341C19.8633 14.1341 19.089 15.0117 19.089 16.7323C19.089 18.5337 19.8633 19.3652 21.0014 19.3652C22.1042 19.3652 22.9138 18.5337 22.9138 16.7323ZM29.3198 31.7903C29.3198 28.1528 32.4055 25.4045 36.1716 25.4045C39.9495 25.4045 42.9883 28.1643 42.9883 31.7903C42.9883 35.4277 39.9495 38.2222 36.1716 38.2222C32.4055 38.2222 29.3198 35.4277 29.3198 31.7903ZM38.0841 31.7903C38.0841 30.0697 37.2745 29.1921 36.1716 29.1921C35.0336 29.1921 34.2592 30.0697 34.2592 31.7903C34.2592 33.5917 35.0336 34.4231 36.1716 34.4231C37.2745 34.4231 38.0841 33.5917 38.0841 31.7903Z" fill="#93A1B0"/>
<path d="M1.97108 7.25183H0L0.0234652 0L3.00355 0.0115475C4.88076 0.023095 5.91323 1.1432 5.9015 2.62128C5.9015 4.09936 4.8573 5.18483 2.98008 5.18483H1.97108V7.25183ZM2.89795 3.55663C3.56671 3.55663 3.93042 3.2102 3.93042 2.60973C3.93042 2.00926 3.57844 1.65129 2.90969 1.65129H1.99454L1.98281 3.55663H2.89795Z" fill="#93A1B0"/>
<path d="M7.3446 0.0230713L9.31568 0.0346188L9.30395 5.6467L12.4248 5.65825V7.298L7.32114 7.2749L7.3446 0.0230713Z" fill="#93A1B0"/>
<path d="M14.1143 0.0461426L19.2884 0.0692376L19.2767 1.69744L16.0854 1.68589L16.0737 2.88683H18.737V4.43419L16.0737 4.42264L16.0619 5.66977L19.4175 5.68132L19.4057 7.32107L14.0909 7.29797L14.1143 0.0461426Z" fill="#93A1B0"/>
<path d="M21.1421 0.0808105L23.9932 0.092358C26.1168 0.103906 27.7124 1.47806 27.7007 3.72982C27.6889 5.98158 26.0816 7.34419 23.958 7.34419L21.1187 7.32109L21.1421 0.0808105ZM23.7585 5.6929C24.9552 5.6929 25.6944 4.91921 25.6944 3.71827C25.6944 2.51733 24.967 1.7321 23.7703 1.7321H23.1132L23.1015 5.6929H23.7585Z" fill="#93A1B0"/>
<path d="M34.1888 4.82682H32.7222V3.3372L35.937 3.34874L35.9487 6.46657C35.2682 7.02085 34.3765 7.45965 32.734 7.45965C30.5634 7.4481 28.7801 5.91229 28.7801 3.72981C28.7918 1.54733 30.5869 0.0230636 32.7105 0.0346111C34.0128 0.0346111 35.0218 0.519606 35.6671 1.33948L34.2827 2.50578C33.919 2.03233 33.4027 1.72055 32.6636 1.72055C31.4669 1.72055 30.7981 2.59816 30.7981 3.74136C30.7981 4.88456 31.4669 5.83146 32.7574 5.843C33.4731 5.843 33.872 5.70443 34.1888 5.56586V4.82682Z" fill="#93A1B0"/>
<path d="M37.7086 0.13855L42.8709 0.150097V1.77829L39.6679 1.76675V2.96769L42.3312 2.97923V4.51505H39.6679L39.6562 5.76218L43 5.77373V7.40193L37.6851 7.37883L37.7086 0.13855Z" fill="#93A1B0"/>
</g>
<defs>
<clipPath id="clip0">
<rect width="43" height="38.2222" fill="white"/>
</clipPath>
</defs>
</svg>
