<svg fill="none" xmlns="http://www.w3.org/2000/svg" viewBox="0 0 480 235"><clipPath id="hsds-illos-workplace-books-3__a"><path d="M0 0h480v235H0z"></path></clipPath><g clip-path="url(#hsds-illos-workplace-books-3__a)"><path d="M399.1 55.5c-1.9-.5-3.1.2-4.2 2.1 1.5.4 2.8.7 4.5 1.2-1 1.3-1.9 2.6-3 4h-10.1c-4.4-.1-8.8-.2-13.3-.3-.9 0-1.8-.1-2.7-.1h-18.2c-5.2 0-10.4-.2-15.5 0-2.5.1-4.9.4-7.4-.7-1.3-.6-3.1-.1-4.6-.1-5.1 0-10.3-.2-15.4-.1-4.2.1-8.3.5-12.5.5-8.3-.1-16.5-.3-24.8-.5-5.1-.1-10.1-.4-15.1-.5-3 0-6.1.5-9.1.5-5.3.1-10.6-.3-15.9.1-4 .3-7.9 1.3-11.8 2-.8.5-1.6.7-2.6.7-12.3-.8-24.5-.5-36.8-.7-4 0-8 .6-11.9-.7-1.6-1.1-3.5-1.2-5.2-1-3.1.2-6.3.3-9.4.2-.9 0-1.8.1-2.6.7-1.5.5-3 .4-4.5.2-.6-.1-1.3-.1-2 0-1.8.2-3.7.3-5.5-.1-1.2-.9-2.4-.6-3.6-.1-.6.1-1.2.1-1.7-.1-.9-.6-1.7-.9-2.7-.1-.3.1-.6.1-1 .1-.4-.1-.8-.1-1.2.1-.4.1-.8.1-1.2 0-.5-.4-1-.6-1.6-.3-1.1.3-2.1.7-3.2.2-3.7-.7-7.5-.7-11.3-.3-1.3.1-2.4 0-3.5-.6h-1.4c-.5.3-1 .3-1.6 0-4-.1-8 .1-12-.3-4.4-.4-8.8-1.4-13.3-2.1 0-.2 0-.4.1-.7.4-.1.7 0 1.1-.2.7-.3 1.9-.5 2-1 .2-.7-.3-1.7-.6-2.4-.4-1-1-2-1.5-3l.6-.9c1.9.1 3.9.2 5.8.3 2.4.1 4.9 0 7.3.1l26.8.6c2.8.1 5.6-.3 8.6.5 2.3.6 4.9-.4 7.4-.4 4.3-.1 8.6.2 12.9-.1 5.4-.4 10.9-1.1 16.3-2 1.6-.3 3-1.6 4.4-2.5.4-.3.7-.6 1-1.1.1-.2.3-.3.4-.5 1.3-2.3.7-4.7.3-6.9-.5-2.5-1.2-5.1-2.2-7.4-.5-.4-.4-1.2-1.1-1.5-2.1-3.2-3.8-6.7-6.4-9.4-1.9-2-4.8-3.2-7.3-4.6-1.1-.6-2.4-1.1-3.7-1.4-6.9-1.2-13.8-1.5-20.8-1.4-7.8.2-15.5-.5-23.3-.8-4.1-.1-8.2 0-12.4-.1-3.3-.1-6.6-.3-9.9-.6-.6 0-1.1-.6-2.1-1.3-1.4.7-3.4 1.2-5.4-.5-.8-.7-2.2-.7-3.1-1.3-.5-.3-2.4-.1-1.1-1.7-.5-.4-1-.8-1.6-1-.6-.3-1.3-.3-2.7-.6 3.9-1.9 7.5-2.2 11.1-2.1 1.7 0 3.3-.5 5-.6 4.5-.4 9.1-.9 13.6-1.2 4.2-.3 8.4-.5 12.6-.8 1.8-.7 3.8.4 5.5-.7h2.5c1 .7 2.1.5 3.1.5 4.3.1 8.6-.2 12.9.2 3.9.1 7.8.1 11.8.4 3 .2 5.9.7 8.9.9 2.2.2 4.5.2 6.8.4 3.1.3 6.1.7 9.2.9 2.5.1 5-.1 7.5-.1 3.3 0 6.6.2 9.9.2 5.3-.1 10.5-.4 15.8-.4 5.1 0 10.1.2 15.2.2 1 0 1.9-.3 2.9-.2l27.1.6c2 .1 3.9.6 5.9.7 1.1.1 2.3-.1 3.4-.2 1.2-.1 2.5-.7 3.6-.4 2.9.9 5.8 0 8.6 0 5.2.1 10.3.8 15.5 1.1 2.5.2 5 .1 7.5.1l19 .3c4 .1 8 .1 12 .3 1.8.1 3.6.3 5.4.4 3.3.1 6.6.1 9.9.3 4.7.2 9.5.5 14.2.7 3.2.1 6.5 0 9.7.1 5 .1 10.1.1 15.1.6 3.7.4 7.4 1.3 11.1 2.1 4.2 1 5.7 4.4 6.7 8.1.5 2 .6 4 2.7 5.2.7.4.8 2 1.3 3.1-.8.3-1.6.5-2.3.7v.3c.6.1 1.2.2 1.8.2.9 1.4-.1 1.5-.9 1.6 2.3.5 2.3 2.9 3.1 4.5 1.1 2.2-.8 3.8-2.1 5.4 2 1.7 2.4 3.2 1.4 5.8-.8 2.3-1.4 4.7-1.7 7.1.1.2.1.3 0 .5-.3 1.3-1.7 1.8-2 3 .1.6-.7.4-1.2.1z" fill="#537cea"></path><path d="M136.5.7l-14.2.3c-.6 0-1.2-.6-1.8-.9h16zM118 0c-1.6 2-3.7.4-5.5.7V0zm320.8 146.7c1.2.4 2.1.8 1.5 2.4-.9 2.2-.1 3.4 2.1 4.4 7.2 3 14.8 5.4 21.2 10.1 3.9 2.8 8 5.4 11.7 8.5 1.7 1.4 2.5 3.7 3.8 5.7-1.2.9-2 1.5-3.3 2.5 1 .1 1.3.2 1.7.2 2.1-.4 2.5.1 2.5 2.2-.1 3.4-.5 6.7-2.6 9.6-.6.9-1.4 1.7-2.1 2.5-4.5 5.2-9.2 10.1-16.3 12.1-4.6 1.3-8.9 3.8-13.6 5-6.8 1.8-13.7 2.9-20.6 4.2-5.1 1-10.2 2-15.3 2.8-2.9.4-5.8.4-8.7.7-5.3.6-10.6 1.4-16 1.9-4.4.4-8.9.4-13.3.8-4.6.5-9.1 1.4-13.7 2-7.3 1.1-14.7 2.1-22 3.3-4.7.8-9.3 2-13.9 2.8-4.3.7-8.7 1.2-13 1.6-8.8.8-17.6 1.5-26.4 1.9-9.3.4-18.6.4-27.9.5-2.7 0-5.5-.2-8.2-.5-1.9-.2-3.7-.8-5.5-.9-7.2-.4-14.4-.6-21.6-1-8.1-.4-16.1-.8-24.1-1.6-3.7-.3-7.3-1.5-11-2.2-2.3-.5-4.6-.6-6.8-1.2-4.6-1.1-9.1-2.5-13.7-3.6-1.5-.4-3.1-.6-4.6-.8l-19.2-2.1c-5.1-.5-10.3-1.1-15.4-1.4-3-.2-6.1.3-9.1.4-9.2.1-18.3 0-27.5.1-3.6 0-7.3.2-10.9.5-5.4.4-10.9 1.5-16.3 1.3-10.7-.3-21.4-1.1-32.1-1.8-3.7-.3-7.6-.6-11.2-1.6-5.7-1.7-10.7-4.7-14.3-9.9-3.4-5-3.5-10.5-1.7-15.5 1.7-4.6 4.2-9.2 8.4-12.4 1.4-1 2.6-2.3 3.7-3.6 3.4-3.9 7.9-6.4 12.4-8.2 3.5-1.4 6.8-3.4 10.5-4.4 2.8-.8 5.4-2.1 8.2-3 2-.7 4.2-1 6.2-1.5 4.7-1.1 9.4-2.3 14.2-3.2 2.8-.5 5.8-1.3 8.6.5-1.2 1.9-3.3 1.7-5.2 2 .2.8 1.4.8 1.3 1.8-.5 1.3-2 .8-3.2 1.5 1.3.7 2.5 1.1 3.7 1.3 5.1.5 10.2 1.5 15.3 1.7 6.5.2 13 1 19.5 1.1 8.2.1 16.4.6 24.6.4 7.6-.2 15.3 0 22.9.1 7.1 0 14.3 0 21.4-1.3 2.4-.4 4.8-.1 7.2 0 6.2.3 12.3-.5 18.4-.4 5.9.1 11.8.3 17.7.2 6.7-.1 13.5 0 20.2-.1 5.5-.2 11-.1 16.4.3 3.9.3 7.8-.4 11.7.1 1.1.1 2.3 0 3.5.1 2.5.2 5.1.7 7.7-.1 1.6-.5 3.4-.5 4.9 0 2.6.9 5.2.8 7.9.8 7.4-.1 14.8.5 22.2.4 8.6-.2 17.3.4 25.9-.1 5.8-.3 11.6.3 17.5.2 6.6-.1 13.1-.1 19.7-.2 5.3-.1 10.6 0 15.9.1 4.7.1 9.5-.2 14.2-.2 3.7.1 7.3.1 11 .3s7.3-.9 10.9-.1c.7.2 1.4 0 1.8-.9 1.2-2.4 2.6-4.6 3-7.3.1-.4.2-.8.5-1.1 1.7-1.6 2.1-3.8 2.8-6 .7-2.1 1-4.5 3.9-4.7z" fill="#def0fe"></path><path d="M438.8 146.7c-1.6 1.6-2.9 3-2.9 5.7 0 1.9-2.1 3.8-3.2 5.8 2 1.8-2.1 2.1-1.6 3.5.7 2.2-1.3 2.9-2.2 4.2.3.3.6.6 1.1 1-.4.1-.6.2-.8.2H384c-2.7 0-5.4-.5-8-.5-2.1 0-4.2.3-6.3.4-8.7.1-17.5.2-26.2.2h-21.8c-5.2 0-10.3.1-15.5-.1-7.2-.1-14.4-.4-21.7-.6-5.7-.2-11.3-.6-17-.7-3.6-.1-7.3.5-11 .4-5.8-.2-11.6-.6-17.4-.9-1 0-1.9.4-2.9.4-9.6.1-19.2.1-28.8.2-5.3 0-10.6-.1-15.9-.1-4.9 0-9.9-.2-14.8 0-3.9.2-7.7.9-11.5 1.1-5.4.3-10.8.4-16.1.3-3.9 0-7.8-1-11.5-.4-2.7.4-5.2-.5-7.5-.1-3.3.6-6.6.4-9.8.4-4.3 0-8.6 0-12.9-.2-3.5-.2-7-.9-10.5-1.1-3.3-.2-6.7 0-10-.2-3.6-.2-7.3-.7-10.9-1.1-2-.2-4.1-.4-6.1-.8-1.7-.3-3.2-1-4.9-1.5v-.7c1.6-.3 3.1-.6 4.7-.9 0-.1.1-.3.1-.4-1.1-.4-2.3-.8-3.4-1.2v-.5c2.5-.6 4.9-1.2 7.4-1.8 1.2.1 2.5.8 3.5-.9.2-.4 1.7.1 2.6 0 2.7-.3 5.3-.8 8-.9 1.4-.1 2.9.7 4.3.6 2.3-.1 4.6-.5 6.8-.7 2.4-.2 4.8-.3 7.2-.3 4.8 0 9.6.2 14.4.2 3.2 0 6.5-.5 9.7-.4 4.8.1 9.5.3 14.3.6 3.7.2 7.5.6 11.2.7 4.3.2 5.7-.9 7.1-4.9 2.1-1.3 1.9-3.6 2.6-5.5 0-.1 0-.3.1-.4.5-.7 1.3-.8 1.8-1.4.3-.8-.6-1.1-.7-1.7.1-.1.2-.3.4-.4 1.3-2.6 2.9-5.1 4.1-7.8.2 0 .4-.1.6-.1.1.1.2.1.3 0v-.1c-.2-.2.1 0-.2.1-.1-.5-.2-1.1-.2-1.6.8-.8.3-2.2 1.4-2.8.2-.9.5-1.7.7-2.6 1.7-2.2 1.4-5.2 2.9-7.5.1-.1.1-.2.3-.2 1.4-1.4 1.3-3.3 1.3-5 0-1.3 0-2.6.4-3.9.4-1.2.4-2.6 0-3.7-.7-1.9-.4-4-1.5-5.8-6.6-.7-13.1-1.4-19.7-1.9-2.1-.2-4.3 0-6.4 0-4.4-.2-8.9-.6-13.3-.6-5 0-10.1.3-15.1.4-7.3.1-14.5.4-21.8.1-5.4-.2-10.8.6-16.2-.3-4.2-.7-8.6-.2-12.9-.3-.3.1-.6-.1-.8-.4-.7-.2-1.5-.3-2.2-.5-.4.1-.8-.2-1.2-.3-1.2-.4-2.4-.7-3.5-1.4-2-1.3-1.9-3 .2-4.2 1-.6 2-1 3-1.5.2-.4.6-.7.8-1.1 2.8-.1 5.7.3 8.4-.2 4.4-.8 8.4 1 12.6 1.3.6 0 1.2.1 1.7.1 3.5 0 7 .2 10.6 0 4.9-.3 9.8-.8 14.7-1.2 1.7-.1 3.4 0 5.1-.1 4.7-.2 9.3-.6 14-.7 5.5-.1 11.1 0 16.6 0 8.3-.1 16.7-.4 25-.4 4.2 0 8.4.4 12.6.4 5.3 0 10.5-.4 15.8-.6 1.4 0 2.9.1 4.3 0 1.9-.2 3.8-.7 5.8-.7 4.4-.1 8.9-.3 13.3 0 7.1.6 14.2-.2 21.2-.8.8-.1 1.5-.5 2.3-.8 5.6.1 11.1 0 16.7.1 8.1.1 16.1.5 24.2.7 5.2.2 10.4.6 15.6.6 4.5 0 9 .3 13.4.6 4.7.2 9.5.2 14.2.7 7.1.8 14.2.7 21.4 1.3 3.3.3 6.5 1.1 9.9 1 6.2 0 12.4 0 18.7-.1 3.6 0 7.2-1.2 10.9-.9 4.9.4 9.8.7 14.8 1.1 3.6.2 7.1.4 10.6 1 2.6.4 5.1.9 7.6 1.8l2.7 1.2c-.1.1-.3.1-.4.2 1.1 1.7 2.2 3.4 3.4 5.5 1.8-1 3.2-5.1 7-1.8-2.1 1.4-4 2.7-6.2 4.2-.4 2.6 2.8 1.8 3.7 3-.6 1.8-1.2 3.4-1.8 5.1 1.5.8 0 2.5 1 3.4.2 0 .3.1.5.1.4 1.6.9 3.3 1.3 4.9l-.6 5.1c.6.8.6 1.7 0 2.5v4c.6 1.5.1 3 .3 4.5-1 3.4-2 6.8-2.9 10.2-.5.5.3 1.4.7 2.1z" fill="#2b3b5b"></path><path d="M130.4 62.1h1c.8.1 1.6-.3 2.3 0h2.4c.9.2 1.8-.4 2.7 0h12.4c5.7-.1 11.4-.4 17.1 0 4.9.2 9.7.6 14.6.7 6.8.1 13.6-.1 20.4.1 4.9.1 9.9.6 14.8.9.6 0 1.1-.1 1.7-.2 1 1.9 2.5 2 4.5 2 2.8-.1 5.5.5 8.3.7 4.3.4 8.7.8 13 1.2 1.2 1.2.8 2.8.7 4.2-.1 2.3-.3 4.6.1 6.8.1 1 .1 2-.7 2.7-5-.2-9.9-.3-14.9-.6-2.7-.1-5.4-.5-8.1-.6-1.6 0-3.2.4-4.8.6-.8.1-1.6 0-2.4 0-1.9 0-3.7 0-5.6-.2-2.3-.2-4.5-.6-6.7-.6-10.4 0-20.8.1-31.2.2-2.3 0-4.6-.3-7-.2-5.6.2-11.1.9-16.7.6-3.2-.1-6.2.4-9.3.6-4.5.3-9.1-.4-13.6-.4-2.4 0-4.9.5-7.3.7-6.6.5-13.3.9-19.9 1.4-2.2.2-4.5.3-6.7.5-1.7.1-2.5-.7-2.5-2.3.2-3.2.9-6.5.6-9.7-.4-3.6 1.4-3.9 4.1-4.5 5.3-1.1 10.4-2.7 15.7-4 4.6-1 9.3-.6 13.9-.6 1.3-.1 2.5-.2 3.8-.3.2 0 .3 0 .4.2.7 0 1.3.1 2 .1.3-.1.6-.1.9 0z" fill="#f9b34a"></path><path d="M245.8 81.3c0-4.6 0-9.2-.1-13.8 6.4 0 12.7-.1 19.1-.1 2.1 0 4.2-.1 6.2 0 3.3.2 6.7.7 10 .9 5.5.3 11 .4 16.6.5 4 .1 8-.1 12 .1 1.3 0 2.5.8 3.7.9 9.9.3 19.7.6 29.6.9 5 .1 10.1.1 15.1 0 2.9 0 5.8-.2 8.7-.3.6.5 1.1 1.1 1.1 1.9 0 3.4 1.1 6.8.4 10.3-.3 1.5-.2 3.1-.2 4.7 0 1 .1 2-.8 2.8-4.9-.3-9.7-.7-14.6-1-.4 0-.8-.2-1.2-.2-5.9-.3-11.9-.6-17.8-.9-4.6-.2-9.2-.3-13.8-.6-4.3-.3-8.6-.7-12.9-1.1-1.2-.1-2.3 0-3.5 0-5.9-.1-11.8-.1-17.7-.3-3.8-.1-7.6-.5-11.4-.6-6.3-.1-12.6 0-19-.1-1.2 0-2.4-.5-3.5-.8 0-2.1-1.3-2.9-3.1-3.2-1-.1-1.9 0-2.9 0z" fill="#fde5b6"></path><path d="M367.3 90c.2-2.9.5-5.8.4-8.6-.1-3.7-.6-7.4-.9-11 3.3 0 6.7.1 10 .1l11.2.3c5.7.1 11.4 0 17.1.1 3 .1 6.1.5 9.1.6 1.1 0 2.2-.6 3.2-.5 3.5.2 7.1.3 10.6.9 1 .2 1.9 1.6 2.5 2.7 2.2 4.2 1.6 8.6.8 13-.3 1.6-1.1 3.2-1.7 4.8-4.7-.7-9.4-1.5-14.2-2.1-1.7-.2-3.4 0-5-.1-5.5-.3-11.1-.7-16.6-.8-5 0-10 .5-15 .7-3.8.2-7.7 0-11.5-.1z" fill="#f8b34a"></path><path d="M157.6 138.3c-1.6.2-3 .5-4.5.4-4 0-8.1-.3-12.1-.3-5.6 0-11.1.1-16.7.2-1.6 0-3.2 0-4.9.1-3.5.2-7 .4-10.6.5-1 0-2.1-.3-3.1-.3-.6 0-1.3 0-1.9.1-.5 0-1.1.4-1.4.2-2.2-1.4-4.3-.4-6.5-.1-1.5.2-3 .1-4.6 0-5.3-.5-10.5-.9-15.7-1.8-2.7-.5-5.4-1.7-7.8-3-.8-.4-1-2.1-1.4-3.2 1 0 1.9-.1 2.9-.1.2 0 .5.1.9.2v-2.3H97c1.6 0 3.3.6 4.9.6 3.3 0 6.7-.3 10-.5.4 0 .9-.2 1.2-.1 6.8 1.8 13.7 1 20.6 1.5 6.5.4 13 1 19.5 1.5 1.5.1 3.1.3 4.6.5 2.1.3 2.8 1.9 1.6 3.7-.6.7-1.3 1.5-1.8 2.2zm7.9-25.7c-.3.8-.6 1.3-.6 1.8 0 3.2-.6 4.1-3.6 3.8-12.6-1.5-25.2.1-37.7-.4-4-.2-8.1-.5-12.1-.5-5.1.1-10.2.7-15.3.7-3.3 0-6.7-.4-10-.9-3-.5-5.9-1.2-8.8-2.1-1.2-.3-2.2-1.2-3.1-2-.3-.3-.4-1.6-.1-1.8.9-.6 2.3-1.6 3-1.2 2.8 1.3 5.5-.5 8.2-.2 2.8.3 5.6-.3 8.4-.3 2.5 0 4.9.4 7.4.4 8 .1 16-.7 23.9.3 8.2 1 16.4.2 24.6.7 3.7.2 7.4.2 11 .6 1.7 0 3.2.6 4.8 1.1zM84.3 37.3c1.7-.6 3.3-1.5 5-1.8 2.2-.3 4.6-.1 6.8-.1h19.5c1.6 0 3.2.5 4.7.7 1.3-.2 2.7-.7 4.1-.7 2.9.2 5.8.8 8.8.9 3.8.2 7.7 0 11.5.1 5.6.1 11.1.3 16.7.5 1.5.1 3.3.3 4.4 1.2.8.7 1.1 2.6.9 3.9-.2 1-1.4 2.4-2.2 2.5-2.3.3-4.7 0-7-.1-5.8-.4-11.5-1-17.3-1.4-.7-.1-1.3 0-2 0-7.5 0-14.9.1-22.4 0-7.2-.1-14.5-.2-21.7-.6-1.3-.1-2.6-1-3.9-1.5-.5-.2-1.1-.2-1.6-.4-.9-.3-3 .8-2.2-1.7 0 0-1.2-.4-1.8-.7-.1-.3-.2-.6-.3-.8zm60.5-15.6c-.6.8-.9 1.4-1.6 2.5 6.3-3 11.2-2.4 14.7 3.4-.2.3-.4.6-.5.6-3.1.3-6.1.6-9.2.8-2.9.2-5.8.3-8.7.4-1.1 0-2.3-.4-3.4-.4-8.1 0-16.3-.1-24.4 0-6.6.1-13.2.3-19.7.5-3.2.1-6.2-.6-9-2.1-.5-.3-.8-.8-1.7-1.6 1.3-.7 2.2-1.5 3.3-1.7 2.5-.6 5-2.4 7.8-.6.2.1.5.1.7 0 4.9-2.3 10.2-1.3 15.3-1.5 7.5-.2 15.1-.3 22.6-.4 3.9-.1 7.8 0 11.7 0 .5-.1 1.1 0 2.1.1z" fill="#def0fe"></path><path d="M402.6 51.9c-.3-.3-.8-.7-.7-1 .7-2.5 1.6-5 2.3-7.5.1-.3-.1-.6-.2-.9-.1-.6-.2-1.2-.4-2-.3-.2-1.1-.8-1.8-1.3.5-.5 1.2-.9 1.5-1.5.7-1.5 1.1-3.1 1.7-4.6-1.2-.7-3.5.3-2-2 .1-.1-.6-1-1-1.2-.6-.3-1.4-.3-2.1-.4.3-2.1 3 .5 2.8-1.9 2.4.8 2.8 3.2 2.8 5-.2 5.1 1.3 10.4-1.6 15.2-.7 1.1-.8 2.7-1.3 4.1z" fill="#7092ee"></path><path d="M176.9 100.3c.5.2 1.3.3 1.3.5.4 2.4 1 4.8.9 7.2-.1 3.2-.7 6.3-1.2 9.5-.1.4-.8.7-1.3 1.1.2-6.1.2-12.2.3-18.3z" fill="#54617b"></path><path d="M123.4 62.1c-4.6.2-9.3.4-13.9.6-.3-.4-.7-.7-1-1.1 1.5-.1 3-.2 4.5-.2h9.5c.2.1.5.5.9.7z" fill="#def0fe"></path><path d="M170.9 31.5c.2.1.7.1.7.2 1.4 4.4 3 8.7 2.3 13.4-.1.3-.7.5-1 .8l-1.8-11.4c-.2-1-.2-2-.2-3z" fill="#7092ee"></path><path d="M171 133.4c-.6 3-1.7 5.7-4.1 7.8-.1-.4-.5-1-.3-1.3 1.4-2.2 2.9-4.3 4.4-6.5z" fill="#54617b"></path><path d="M440.6 134.3c-1.7-1.4-.2-3-.3-4.5 1 .9 2 1.7 2.9 2.7.2.3-.1 1.4-.5 1.6-.5.3-1.4.1-2.1.2z" fill="#def0fe"></path><path d="M176.4 118.8c-.7 2.6 0 5.7-2.9 7.5.5-2.1.9-4.2 1.6-6.3.1-.5.9-.8 1.3-1.2zm263.4-17.1c1.2-.8 2.4-1.5 3.7-2.4.4 3.1.1 3.3-3.7 2.4zm-274.5 43.4c.7 2.4-.4 4.8-2.6 5.5.4-1 .8-2.1 1.2-3.1.5-.9 1-1.6 1.4-2.4z" fill="#54617b"></path><path d="M399.1 55.5c1.2-1 2.4-2.1 3.6-3.1-.7 1.4-1.4 2.7-2.1 4.1-.5-.3-1-.7-1.5-1z" fill="#7092ee"></path><path d="M166.6 141.6c.6.6 1.2 1.2 1.8 1.7-1 .5-2 .9-2.9 1.4.3-1 .7-2 1.1-3.1z" fill="#54617b"></path><path d="M441 118.2c-.4-1.6-.9-3.3-1.3-4.9 1.3 1.4 2.1 2.9 1.3 4.9zm1.4 26.5c.8.3 1.6.6 2.5.8-.1.4-.2.7-.2 1.1-.8-.2-1.6-.3-2.4-.5-.4-.5-.5-1 .1-1.4zm-3.2-31.5c-.3-1.1-.7-2.3-1-3.4.6.1 1.2.1 1.8.2-.3 1.2-.5 2.2-.8 3.2z" fill="#def0fe"></path><path d="M172.8 128.9c-.5.9-.9 1.9-1.4 2.8.5-.9 1-1.9 1.4-2.8zm269.5 14.2c-.5.3-.9.6-1.4.9 0 0-.3-.5-.5-.7.5-.3 1-.5 1.6-.8 0 .2.1.4.3.6z" fill="#54617b"></path><path d="M440.4 125.8v-2.5c1.3.8 1.3 1.6 0 2.5z" fill="#def0fe"></path><path d="M169.8 30c.4.5.7 1 1.1 1.5-.4-.5-.8-1-1.1-1.5z" fill="#7092ee"></path><path d="M70.7 97.3c.3.1.5.2.8.4-.3-.2-.6-.3-.8-.4zm101 36c.3-.1.5-.2.8-.3 0 0 .1.2.1.4-.3 0-.6-.1-.9-.1zM67.3 96.5l1.2.3z" fill="#54617b"></path><path d="M67.9 88.3c-.3.4-.5.8-.8 1.1.3-.4.5-.8.8-1.1z" fill="#9ba2b2"></path><path d="M172.4 46.3c-.3.4-.7.7-1 1.1.3-.4.6-.7 1-1.1z" fill="#7092ee"></path><path d="M442.4 144.7c-.1.5-.1 1-.2 1.5.1-.5.1-1 .2-1.5z" fill="#54617b"></path><path d="M167.1 113.6c-.1 0-.1 0-.2.1 0-.1 0-.2-.1-.3h.2c.1.1.1.1.1.2zm1.4-51.5c-2 .2-4.1.6-6.1.6-3.2.1-6.4 0-9.5-.1-.5 0-1-.4-1.5-.6.6-.2 1.1-.6 1.7-.7 4.8-.1 9.6-.1 14.3 0 .4.1.7.6 1.1.8z" fill="#def0fe"></path><path d="M376.5 45.4c.9-.6 1.9-1.1 3-1.8.2.9.3 1.7.6 3.3-1.5-.3-2.6-.5-3.7-.7 0-.3.1-.5.1-.8zm-199.2 0c-.7.1-1.4.2-2.2.3-.1-.3-.1-.6-.2-.9.7-.1 1.4-.3 2.1-.4.1.3.2.7.3 1zM402.1 34c-.3.2-.5.4-.6.4-.2-.1-.4-.4-.5-.5.2-.1.4-.2.6-.2.1-.1.3.1.5.3z" fill="#7092ee"></path><path d="M127.5 62c-.1-.1-.3-.1-.4-.2.2 0 .4-.1.5-.1 0 .1 0 .2-.1.3z" fill="#def0fe"></path><path d="M173.4 32.4c.1-.2.1-.4.2-.7-.1.3-.1.5-.2.7zm0 0l-.2.2v-.1c.1 0 .2 0 .2-.1z" fill="#7092ee"></path><path d="M144.7 214.2h6c-2.8 1.3-5.2 1.1-6 0zm293.9-62c-.2-.2-.4-.3-.6-.4.2-.2.4-.4.6-.5.1 0 .4.2.4.4s-.3.3-.4.5z" fill="#fdfdfe"></path><path d="M366.2 138c1.2-1.7 2.3-3.1 3.2-4.4 1.7.4 3.3.7 4.8 1.3.7.2 1.6 1.1 1.6 1.6-.1.6-.9 1.6-1.6 1.7-2 .5-4.2.7-6.3.9-.5-.1-1.1-.7-1.7-1.1z" fill="#54617b"></path></g></svg>