<svg width="40" height="40" viewBox="0 0 40 40" fill="none" xmlns="http://www.w3.org/2000/svg">
<ellipse cx="20" cy="20" rx="20" ry="20" fill="#EC5DA6"/>
<g style="mix-blend-mode:multiply">
<path fill-rule="evenodd" clip-rule="evenodd" d="M19.6667 8.00002C19.2985 8.00002 19 8.2985 19 8.66669V10C19 10.0069 19.0001 10.0137 19.0003 10.0205C13.6402 10.3509 9.35105 14.6399 9.02049 20H7.66666C7.29847 20 6.99999 20.2984 6.99999 20.6666C6.99999 21.0348 7.29847 21.3333 7.66666 21.3333H9.02048C9.35099 26.6933 13.64 30.9823 19 31.3129V32.6667C19 33.0349 19.2985 33.3334 19.6667 33.3334C20.0349 33.3334 20.3333 33.0349 20.3333 32.6667V31.3129C25.6934 30.9823 29.9823 26.6933 30.3128 21.3333H31.6667C32.0348 21.3333 32.3333 21.0348 32.3333 20.6666C32.3333 20.2984 32.0348 20 31.6667 20H30.3128C29.9823 14.6399 25.6932 10.3509 20.333 10.0205C20.3332 10.0137 20.3333 10.0069 20.3333 10V8.66669C20.3333 8.2985 20.0349 8.00002 19.6667 8.00002ZM19.6667 28.8333C24.177 28.8333 27.8333 25.177 27.8333 20.6667C27.8333 16.1564 24.177 12.5 19.6667 12.5C15.1563 12.5 11.5 16.1564 11.5 20.6667C11.5 25.177 15.1563 28.8333 19.6667 28.8333Z" fill="#9A4C9D"/>
</g>
<path fill-rule="evenodd" clip-rule="evenodd" d="M19.5339 20.5582C21.094 20.5582 22.3586 19.2935 22.3586 17.7334C22.3586 16.1734 21.094 14.9087 19.5339 14.9087C17.9738 14.9087 16.7096 16.1734 16.7096 17.7334C16.7096 19.2935 17.9738 20.5582 19.5339 20.5582ZM25.1586 24.6877C23.8832 26.4111 21.842 27.5334 19.5339 27.5334C17.2258 27.5334 15.1846 26.4111 13.9092 24.6877C15.046 22.7622 17.1362 21.4667 19.5339 21.4667C21.9316 21.4667 24.0218 22.7622 25.1586 24.6877Z" fill="url(#paint0_linear)"/>
<defs>
<linearGradient id="paint0_linear" x1="19.5339" y1="14.9087" x2="19.5339" y2="27.5334" gradientUnits="userSpaceOnUse">
<stop stop-color="white"/>
<stop offset="1" stop-color="#E9E9E9"/>
</linearGradient>
</defs>
</svg>
