<svg width="160" height="160" viewBox="0 0 160 160" fill="none" xmlns="http://www.w3.org/2000/svg">
<g style="mix-blend-mode:multiply">
<rect width="160" height="160" rx="80" fill="url(#paint0_linear)"/>
</g>
<g style="mix-blend-mode:multiply">
<path d="M120 75.5557H115.245C114.253 67.7334 110.689 60.4627 105.113 54.8872C99.5376 49.3116 92.2669 45.7476 84.4446 44.7557V40.0001C84.4446 38.8214 83.9763 37.6909 83.1428 36.8574C82.3093 36.0239 81.1789 35.5557 80.0001 35.5557C78.8214 35.5557 77.6909 36.0239 76.8574 36.8574C76.0239 37.6909 75.5557 38.8214 75.5557 40.0001V44.7557C67.7334 45.7476 60.4627 49.3116 54.8872 54.8872C49.3116 60.4627 45.7476 67.7334 44.7557 75.5557H40.0001C38.8214 75.5557 37.6909 76.0239 36.8574 76.8574C36.0239 77.6909 35.5557 78.8214 35.5557 80.0001C35.5557 81.1789 36.0239 82.3093 36.8574 83.1428C37.6909 83.9763 38.8214 84.4446 40.0001 84.4446H44.7557C45.7476 92.2669 49.3116 99.5376 54.8872 105.113C60.4627 110.689 67.7334 114.253 75.5557 115.245V120C75.5557 121.179 76.0239 122.309 76.8574 123.143C77.6909 123.976 78.8214 124.445 80.0001 124.445C81.1789 124.445 82.3093 123.976 83.1428 123.143C83.9763 122.309 84.4446 121.179 84.4446 120V115.245C92.2669 114.253 99.5376 110.689 105.113 105.113C110.689 99.5376 114.253 92.2669 115.245 84.4446H120C121.179 84.4446 122.309 83.9763 123.143 83.1428C123.976 82.3093 124.445 81.1789 124.445 80.0001C124.445 78.8214 123.976 77.6909 123.143 76.8574C122.309 76.0239 121.179 75.5557 120 75.5557ZM80.0001 106.667C74.7259 106.667 69.5702 105.103 65.1849 102.173C60.7996 99.2425 57.3817 95.0777 55.3633 90.205C53.345 85.3323 52.8169 79.9705 53.8458 74.7977C54.8748 69.6249 57.4145 64.8733 61.1439 61.1439C64.8733 57.4145 69.6249 54.8748 74.7977 53.8458C79.9705 52.8169 85.3323 53.345 90.205 55.3633C95.0777 57.3817 99.2425 60.7996 102.173 65.1849C105.103 69.5702 106.667 74.7259 106.667 80.0001C106.667 87.0726 103.857 93.8553 98.8563 98.8563C93.8553 103.857 87.0726 106.667 80.0001 106.667ZM80.0001 66.6668C77.363 66.6668 74.7852 67.4488 72.5925 68.9139C70.3999 70.3789 68.6909 72.4613 67.6817 74.8977C66.6726 77.334 66.4085 80.0149 66.923 82.6013C67.4374 85.1877 68.7073 87.5635 70.572 89.4282C72.4367 91.2929 74.8125 92.5628 77.3989 93.0773C79.9853 93.5917 82.6662 93.3277 85.1026 92.3185C87.5389 91.3093 89.6213 89.6004 91.0864 87.4077C92.5515 85.2151 93.3335 82.6372 93.3335 80.0001C93.3335 76.4639 91.9287 73.0725 89.4282 70.572C86.9277 68.0715 83.5363 66.6668 80.0001 66.6668ZM80.0001 84.4446C79.1211 84.4446 78.2618 84.1839 77.5309 83.6955C76.8 83.2072 76.2304 82.5131 75.894 81.7009C75.5576 80.8888 75.4696 79.9952 75.6411 79.1331C75.8126 78.2709 76.2359 77.479 76.8574 76.8574C77.479 76.2359 78.2709 75.8126 79.1331 75.6411C79.9952 75.4696 80.8888 75.5576 81.7009 75.894C82.5131 76.2304 83.2072 76.8 83.6955 77.5309C84.1839 78.2618 84.4446 79.1211 84.4446 80.0001C84.4446 81.1789 83.9763 82.3093 83.1428 83.1428C82.3093 83.9763 81.1789 84.4446 80.0001 84.4446Z" fill="#7874D2"/>
</g>
<path d="M80.0003 66.6665C77.3633 66.6665 74.7854 67.4485 72.5927 68.9136C70.4001 70.3787 68.6911 72.461 67.6819 74.8974C66.6728 77.3337 66.4087 80.0146 66.9232 82.601C67.4377 85.1874 68.7075 87.5632 70.5722 89.4279C72.4369 91.2926 74.8127 92.5625 77.3991 93.0769C79.9855 93.5914 82.6664 93.3274 85.1028 92.3182C87.5391 91.309 89.6215 89.6001 91.0866 87.4074C92.5517 85.2148 93.3337 82.6369 93.3337 79.9998C93.3337 76.4636 91.9289 73.0722 89.4284 70.5717C86.9279 68.0713 83.5366 66.6665 80.0003 66.6665ZM80.0003 84.4443C79.1213 84.4443 78.262 84.1836 77.5311 83.6952C76.8002 83.2069 76.2306 82.5127 75.8942 81.7006C75.5578 80.8885 75.4698 79.9949 75.6413 79.1327C75.8128 78.2706 76.2361 77.4787 76.8576 76.8571C77.4792 76.2356 78.2711 75.8123 79.1333 75.6408C79.9954 75.4693 80.889 75.5573 81.7012 75.8937C82.5133 76.2301 83.2074 76.7997 83.6958 77.5306C84.1841 78.2615 84.4448 79.1208 84.4448 79.9998C84.4448 81.1786 83.9765 82.309 83.143 83.1425C82.3095 83.976 81.1791 84.4443 80.0003 84.4443Z" fill="white"/>
<defs>
<linearGradient id="paint0_linear" x1="-5.4472e-07" y1="160" x2="146.222" y2="13.7778" gradientUnits="userSpaceOnUse">
<stop stop-color="#B153A0"/>
<stop offset="1" stop-color="#F4588A"/>
</linearGradient>
</defs>
</svg>
