 <svg
                    version="1.1"
                    xmlns="http://www.w3.org/2000/svg"
                    x="0px"
                    y="0px"
                    viewBox="-285.9 385.7 26.5 22"
                    role="img"
                  >
                    <path
                      fill="#8d98a1"
                      d="M-269.3,386c-2.4,0.9-3.9,3.1-3.7,5.6l0.1,0.9l-1-0.1c-3.5-0.4-6.5-2-9.1-4.5l-1.3-1.3l-0.3,0.9c-0.7,2.1-0.2,4.3,1.2,5.7 c0.8,0.8,0.6,0.9-0.7,0.4c-0.5-0.2-0.9-0.3-0.9-0.2c-0.1,0.1,0.3,1.9,0.7,2.6c0.5,1,1.5,1.9,2.6,2.5l0.9,0.4l-1.1,0 c-1.1,0-1.1,0-1,0.4c0.4,1.3,1.9,2.6,3.6,3.2l1.2,0.4l-1,0.6c-1.5,0.9-3.3,1.4-5.1,1.4c-0.9,0-1.6,0.1-1.6,0.2 c0,0.2,2.3,1.3,3.7,1.7c4.1,1.3,8.9,0.7,12.6-1.4c2.6-1.5,5.2-4.6,6.4-7.5c0.7-1.6,1.3-4.4,1.3-5.8c0-0.9,0.1-1,1.1-2.1 c0.6-0.6,1.2-1.3,1.3-1.5c0.2-0.4,0.2-0.4-0.8,0c-1.6,0.6-1.9,0.5-1.1-0.4c0.6-0.6,1.3-1.7,1.3-2.1c0-0.1-0.3,0-0.6,0.2 c-0.3,0.2-1.1,0.5-1.7,0.7l-1,0.3l-0.9-0.6c-0.5-0.3-1.2-0.7-1.6-0.9C-266.9,385.6-268.4,385.7-269.3,386z"
                    ></path>
                  </svg>